<?xml version="1.0" encoding="UTF-8"?>
<!DOCTYPE svg PUBLIC "-//W3C//DTD SVG 1.1//EN" "http://www.w3.org/Graphics/SVG/1.1/DTD/svg11.dtd">
<svg version="1.2" width="85mm" height="85mm" viewBox="0 0 8500 8500" preserveAspectRatio="xMidYMid" fill-rule="evenodd" stroke-width="28.222" stroke-linejoin="round" xmlns="http://www.w3.org/2000/svg" xmlns:ooo="http://xml.openoffice.org/svg/export" xmlns:xlink="http://www.w3.org/1999/xlink" xmlns:presentation="http://sun.com/xmlns/staroffice/presentation" xmlns:smil="http://www.w3.org/2001/SMIL20/" xmlns:anim="urn:oasis:names:tc:opendocument:xmlns:animation:1.0" xmlns:svg="urn:oasis:names:tc:opendocument:xmlns:svg-compatible:1.0" xml:space="preserve">
 <defs class="ClipPathGroup">
  <clipPath id="presentation_clip_path" clipPathUnits="userSpaceOnUse">
   <rect x="0" y="0" width="8500" height="8500"/>
  </clipPath>
  <clipPath id="presentation_clip_path_shrink" clipPathUnits="userSpaceOnUse">
   <rect x="8" y="8" width="8483" height="8483"/>
  </clipPath>
 </defs>
 <defs class="TextShapeIndex">
  <g ooo:slide="id1" ooo:id-list="id3 id4 id5 id6 id7 id8 id9 id10 id11 id12 id13 id14 id15 id16 id17 id18 id19 id20 id21 id22 id23 id24 id25 id26 id27 id28 id29 id30 id31 id32 id33 id34 id35 id36 id37 id38 id39 id40 id41 id42 id43 id44 id45 id46 id47"/>
 </defs>
 <defs class="EmbeddedBulletChars">
  <g id="bullet-char-template-57356" transform="scale(0.00048828125,-0.00048828125)">
   <path d="M 580,1141 L 1163,571 580,0 -4,571 580,1141 Z"/>
  </g>
  <g id="bullet-char-template-57354" transform="scale(0.00048828125,-0.00048828125)">
   <path d="M 8,1128 L 1137,1128 1137,0 8,0 8,1128 Z"/>
  </g>
  <g id="bullet-char-template-10146" transform="scale(0.00048828125,-0.00048828125)">
   <path d="M 174,0 L 602,739 174,1481 1456,739 174,0 Z M 1358,739 L 309,1346 659,739 1358,739 Z"/>
  </g>
  <g id="bullet-char-template-10132" transform="scale(0.00048828125,-0.00048828125)">
   <path d="M 2015,739 L 1276,0 717,0 1260,543 174,543 174,936 1260,936 717,1481 1274,1481 2015,739 Z"/>
  </g>
  <g id="bullet-char-template-10007" transform="scale(0.00048828125,-0.00048828125)">
   <path d="M 0,-2 C -7,14 -16,27 -25,37 L 356,567 C 262,823 215,952 215,954 215,979 228,992 255,992 264,992 276,990 289,987 310,991 331,999 354,1012 L 381,999 492,748 772,1049 836,1024 860,1049 C 881,1039 901,1025 922,1006 886,937 835,863 770,784 769,783 710,716 594,584 L 774,223 C 774,196 753,168 711,139 L 727,119 C 717,90 699,76 672,76 641,76 570,178 457,381 L 164,-76 C 142,-110 111,-127 72,-127 30,-127 9,-110 8,-76 1,-67 -2,-52 -2,-32 -2,-23 -1,-13 0,-2 Z"/>
  </g>
  <g id="bullet-char-template-10004" transform="scale(0.00048828125,-0.00048828125)">
   <path d="M 285,-33 C 182,-33 111,30 74,156 52,228 41,333 41,471 41,549 55,616 82,672 116,743 169,778 240,778 293,778 328,747 346,684 L 369,508 C 377,444 397,411 428,410 L 1163,1116 C 1174,1127 1196,1133 1229,1133 1271,1133 1292,1118 1292,1087 L 1292,965 C 1292,929 1282,901 1262,881 L 442,47 C 390,-6 338,-33 285,-33 Z"/>
  </g>
  <g id="bullet-char-template-9679" transform="scale(0.00048828125,-0.00048828125)">
   <path d="M 813,0 C 632,0 489,54 383,161 276,268 223,411 223,592 223,773 276,916 383,1023 489,1130 632,1184 813,1184 992,1184 1136,1130 1245,1023 1353,916 1407,772 1407,592 1407,412 1353,268 1245,161 1136,54 992,0 813,0 Z"/>
  </g>
  <g id="bullet-char-template-8226" transform="scale(0.00048828125,-0.00048828125)">
   <path d="M 346,457 C 273,457 209,483 155,535 101,586 74,649 74,723 74,796 101,859 155,911 209,963 273,989 346,989 419,989 480,963 531,910 582,859 608,796 608,723 608,648 583,586 532,535 482,483 420,457 346,457 Z"/>
  </g>
  <g id="bullet-char-template-8211" transform="scale(0.00048828125,-0.00048828125)">
   <path d="M -4,459 L 1135,459 1135,606 -4,606 -4,459 Z"/>
  </g>
  <g id="bullet-char-template-61548" transform="scale(0.00048828125,-0.00048828125)">
   <path d="M 173,740 C 173,903 231,1043 346,1159 462,1274 601,1332 765,1332 928,1332 1067,1274 1183,1159 1299,1043 1357,903 1357,740 1357,577 1299,437 1183,322 1067,206 928,148 765,148 601,148 462,206 346,322 231,437 173,577 173,740 Z"/>
  </g>
 </defs>
 <g>
  <g id="id2" class="Master_Slide">
   <g id="bg-id2" class="Background"/>
   <g id="bo-id2" class="BackgroundObjects"/>
  </g>
 </g>
 <g class="SlideGroup">
  <g>
   <g id="container-id1">
    <g id="id1" class="Slide" clip-path="url(#presentation_clip_path)">
     <g class="Page">
      <g class="com.sun.star.drawing.LineShape">
       <g id="id3">
        <rect class="BoundingBox" stroke="none" fill="none" x="3948" y="5247" width="607" height="607"/>
        <path fill="none" stroke="rgb(255,166,166)" stroke-width="106" stroke-linejoin="round" d="M 4001,5300 L 4501,5800"/>
       </g>
      </g>
      <g class="com.sun.star.drawing.EllipseShape">
       <g id="id4">
        <rect class="BoundingBox" stroke="none" fill="none" x="4139" y="5722" width="481" height="504"/>
        <path fill="none" stroke="rgb(255,166,166)" stroke-width="106" stroke-linejoin="round" d="M 4324,6171 C 4306,6164 4290,6155 4275,6144 4246,6123 4223,6094 4209,6061 4195,6029 4189,5992 4193,5957 4198,5921 4211,5887 4232,5858 4254,5830 4282,5807 4315,5792 4348,5778 4384,5773 4420,5777 4455,5781 4489,5794 4518,5815 4536,5829 4552,5846 4565,5865"/>
       </g>
      </g>
      <g class="com.sun.star.drawing.EllipseShape">
       <g id="id5">
        <rect class="BoundingBox" stroke="none" fill="none" x="4471" y="5810" width="247" height="660"/>
        <path fill="none" stroke="rgb(255,166,166)" stroke-width="106" stroke-linejoin="round" d="M 4557,5863 C 4593,5897 4621,5938 4640,5985 4662,6043 4669,6107 4660,6171 4650,6235 4624,6297 4585,6350 4567,6374 4547,6396 4525,6415"/>
       </g>
      </g>
      <g class="com.sun.star.drawing.EllipseShape">
       <g id="id6">
        <rect class="BoundingBox" stroke="none" fill="none" x="4532" y="5871" width="264" height="657"/>
        <path fill="none" stroke="rgb(255,166,166)" stroke-width="106" stroke-linejoin="round" d="M 4586,5925 C 4627,5951 4662,5987 4688,6029 4721,6082 4739,6144 4742,6209 4744,6274 4729,6339 4700,6399 4687,6425 4671,6451 4653,6474"/>
       </g>
      </g>
      <g class="com.sun.star.drawing.EllipseShape">
       <g id="id7">
        <rect class="BoundingBox" stroke="none" fill="none" x="4290" y="5807" width="360" height="546"/>
        <path fill="none" stroke="rgb(255,166,166)" stroke-width="106" stroke-linejoin="round" d="M 4565,5860 C 4585,5902 4595,5947 4596,5992 4597,6050 4582,6106 4552,6155 4523,6204 4479,6243 4427,6270 4401,6283 4373,6293 4343,6299"/>
       </g>
      </g>
      <g class="com.sun.star.drawing.CustomShape">
       <g id="id8">
        <rect class="BoundingBox" stroke="none" fill="none" x="3910" y="4310" width="748" height="1046"/>
        <path fill="rgb(255,245,206)" stroke="none" d="M 4594,4327 C 4630,4349 4651,4394 4656,4458 4660,4522 4647,4602 4618,4690 4589,4778 4545,4872 4491,4960 4437,5049 4374,5131 4308,5196 4243,5262 4178,5310 4119,5335 4060,5360 4010,5361 3974,5339 3937,5317 3916,5271 3912,5207 3907,5144 3920,5064 3949,4975 3978,4887 4022,4794 4076,4705 4131,4616 4194,4535 4259,4469 4324,4404 4390,4356 4448,4331 4507,4306 4557,4304 4594,4327 L 4594,4327 Z"/>
       </g>
      </g>
      <g class="com.sun.star.drawing.CustomShape">
       <g id="id9">
        <rect class="BoundingBox" stroke="none" fill="none" x="1342" y="3532" width="3043" height="1601"/>
        <path fill="rgb(128,128,128)" stroke="none" d="M 4382,3543 C 4394,3566 4335,3624 4212,3713 4089,3802 3905,3918 3680,4049 3455,4180 3196,4322 2929,4461 2663,4599 2398,4729 2161,4838 1924,4947 1724,5030 1580,5080 1437,5129 1355,5144 1344,5121 1332,5098 1391,5040 1514,4951 1637,4862 1821,4746 2046,4615 2271,4484 2530,4342 2797,4203 3063,4065 3328,3935 3565,3826 3802,3717 4002,3634 4146,3584 4289,3535 4371,3520 4382,3543 L 4382,3543 Z"/>
       </g>
      </g>
      <g class="com.sun.star.drawing.CustomShape">
       <g id="id10">
        <rect class="BoundingBox" stroke="none" fill="none" x="1464" y="3309" width="2938" height="1782"/>
        <path fill="rgb(238,238,238)" stroke="none" d="M 4399,3317 C 4411,3337 4355,3397 4237,3492 4119,3587 3942,3713 3725,3857 3509,4001 3259,4158 3001,4313 2744,4468 2488,4615 2259,4740 2030,4864 1836,4961 1697,5021 1558,5081 1478,5102 1466,5083 1454,5063 1510,5002 1628,4907 1746,4813 1923,4687 2140,4543 2356,4399 2606,4241 2863,4086 3121,3931 3377,3784 3606,3660 3835,3536 4029,3439 4168,3378 4307,3318 4387,3297 4399,3317 L 4399,3317 Z"/>
       </g>
      </g>
      <g class="com.sun.star.drawing.CustomShape">
       <g id="id11">
        <rect class="BoundingBox" stroke="none" fill="none" x="3561" y="4260" width="748" height="1046"/>
        <path fill="rgb(255,245,206)" stroke="none" d="M 4245,4277 C 4281,4299 4302,4344 4307,4408 4311,4472 4298,4552 4269,4640 4240,4728 4196,4822 4142,4910 4088,4999 4025,5081 3959,5146 3894,5212 3829,5260 3770,5285 3711,5310 3661,5311 3625,5289 3588,5267 3567,5221 3563,5157 3558,5094 3571,5014 3600,4925 3629,4837 3673,4744 3727,4655 3782,4566 3845,4485 3910,4419 3975,4354 4041,4306 4099,4281 4158,4256 4208,4254 4245,4277 L 4245,4277 Z"/>
       </g>
      </g>
      <g class="com.sun.star.drawing.CustomShape">
       <g id="id12">
        <rect class="BoundingBox" stroke="none" fill="none" x="3683" y="3132" width="2783" height="1178"/>
        <path fill="rgb(255,255,255)" stroke="none" d="M 6465,3721 C 6465,3824 6401,3925 6279,4015 6157,4104 5981,4179 5770,4230 5558,4282 5318,4309 5074,4309 4830,4309 4590,4282 4379,4230 4167,4179 3991,4104 3869,4015 3747,3925 3683,3824 3683,3721 3683,3617 3747,3516 3869,3426 3991,3337 4167,3262 4378,3211 4590,3159 4830,3132 5074,3132 5318,3132 5558,3159 5770,3211 5981,3262 6157,3337 6279,3426 6401,3516 6465,3617 6465,3720 L 6465,3721 Z"/>
       </g>
      </g>
      <g class="com.sun.star.drawing.CustomShape">
       <g id="id13">
        <rect class="BoundingBox" stroke="none" fill="none" x="5505" y="3133" width="1500" height="1070"/>
        <path fill="rgb(255,255,255)" stroke="none" d="M 7004,3668 C 7004,3761 6969,3853 6904,3935 6838,4016 6743,4083 6629,4130 6515,4177 6386,4202 6255,4202 6123,4202 5994,4177 5880,4130 5766,4083 5671,4016 5605,3935 5540,3853 5505,3761 5505,3668 5505,3574 5540,3482 5605,3400 5671,3319 5766,3252 5880,3205 5994,3158 6123,3133 6254,3133 6386,3133 6515,3158 6629,3205 6743,3252 6838,3319 6904,3400 6969,3482 7004,3574 7004,3667 L 7004,3668 Z"/>
       </g>
      </g>
      <g class="com.sun.star.drawing.CustomShape">
       <g id="id14">
        <rect class="BoundingBox" stroke="none" fill="none" x="6203" y="3148" width="812" height="626"/>
        <path fill="rgb(255,245,206)" stroke="none" d="M 6994,3698 C 6972,3734 6933,3758 6880,3768 6827,3777 6763,3773 6693,3754 6624,3736 6552,3704 6484,3663 6416,3621 6356,3570 6308,3517 6260,3463 6227,3407 6213,3355 6198,3304 6201,3258 6223,3223 6245,3187 6284,3163 6337,3153 6390,3143 6454,3148 6524,3166 6594,3185 6666,3217 6733,3258 6801,3300 6862,3350 6910,3404 6957,3458 6990,3514 7005,3565 7020,3617 7016,3663 6994,3698 L 6994,3698 Z"/>
       </g>
      </g>
      <g class="com.sun.star.drawing.CustomShape">
       <g id="id15">
        <rect class="BoundingBox" stroke="none" fill="none" x="2906" y="3613" width="3399" height="1273"/>
        <path fill="rgb(255,255,255)" stroke="none" d="M 6302,4024 C 6316,4128 6251,4241 6114,4351 5977,4461 5772,4565 5521,4651 5270,4737 4981,4803 4683,4843 4385,4882 4089,4894 3824,4876 3559,4858 3335,4811 3174,4741 3013,4670 2922,4578 2908,4474 2894,4370 2959,4257 3096,4147 3233,4037 3438,3933 3689,3847 3940,3761 4229,3695 4527,3655 4825,3616 5121,3604 5386,3622 5651,3640 5875,3687 6036,3757 6197,3828 6288,3920 6302,4024 L 6302,4024 Z"/>
       </g>
      </g>
      <g class="com.sun.star.drawing.CustomShape">
       <g id="id16">
        <rect class="BoundingBox" stroke="none" fill="none" x="2888" y="3887" width="1740" height="1019"/>
        <path fill="rgb(255,245,206)" stroke="none" d="M 4624,4281 C 4636,4368 4607,4459 4541,4544 4475,4630 4373,4707 4247,4768 4121,4829 3975,4871 3823,4892 3670,4912 3518,4909 3380,4883 3243,4857 3125,4809 3039,4743 2953,4678 2902,4598 2891,4511 2879,4424 2908,4333 2974,4248 3040,4162 3142,4085 3268,4024 3394,3963 3540,3920 3692,3900 3844,3880 3997,3883 4135,3909 4272,3935 4390,3983 4476,4049 4562,4114 4613,4194 4624,4281 L 4624,4281 Z"/>
       </g>
      </g>
      <g class="com.sun.star.drawing.CustomShape">
       <g id="id17">
        <rect class="BoundingBox" stroke="none" fill="none" x="3109" y="3821" width="2309" height="1089"/>
        <path fill="rgb(255,245,206)" stroke="none" d="M 5417,4343 C 5419,4438 5367,4533 5267,4617 5167,4702 5023,4773 4849,4824 4674,4875 4476,4904 4273,4908 4071,4912 3871,4891 3695,4846 3519,4802 3372,4736 3269,4656 3166,4575 3111,4483 3109,4387 3107,4292 3159,4197 3259,4113 3359,4028 3503,3957 3677,3906 3852,3855 4050,3826 4253,3822 4455,3818 4655,3839 4831,3884 5007,3928 5154,3994 5257,4074 5360,4155 5415,4247 5417,4343 L 5417,4343 Z"/>
       </g>
      </g>
      <g class="com.sun.star.drawing.CustomShape">
       <g id="id18">
        <rect class="BoundingBox" stroke="none" fill="none" x="1383" y="3428" width="3103" height="1541"/>
        <path fill="rgb(128,128,128)" stroke="none" d="M 4481,3464 C 4500,3505 4447,3579 4328,3678 4209,3778 4028,3900 3802,4032 3576,4163 3315,4301 3043,4430 2772,4558 2500,4674 2255,4765 2011,4857 1801,4920 1649,4949 1497,4978 1406,4972 1387,4932 1368,4891 1421,4817 1540,4718 1659,4618 1840,4496 2066,4364 2292,4233 2553,4095 2825,3966 3096,3838 3368,3722 3613,3631 3857,3539 4067,3476 4219,3447 4371,3418 4462,3424 4481,3464 L 4481,3464 Z"/>
       </g>
      </g>
      <g class="com.sun.star.drawing.CustomShape">
       <g id="id19">
        <rect class="BoundingBox" stroke="none" fill="none" x="5699" y="3125" width="1103" height="477"/>
        <path fill="rgb(255,245,206)" stroke="none" d="M 6801,3363 C 6801,3405 6776,3446 6727,3482 6679,3518 6609,3548 6526,3569 6442,3590 6347,3601 6250,3601 6154,3601 6059,3590 5975,3569 5892,3548 5822,3518 5774,3482 5725,3446 5700,3405 5700,3363 5700,3322 5725,3281 5774,3245 5822,3209 5892,3179 5975,3158 6059,3137 6154,3126 6250,3126 6347,3126 6442,3137 6526,3158 6609,3179 6679,3209 6727,3245 6776,3281 6801,3322 6801,3363 L 6801,3363 Z"/>
       </g>
      </g>
      <g class="com.sun.star.drawing.CustomShape">
       <g id="id20">
        <rect class="BoundingBox" stroke="none" fill="none" x="6318" y="3422" width="312" height="313"/>
        <path fill="rgb(0,0,0)" stroke="none" d="M 6345,3578 C 6345,3601 6351,3623 6362,3643 6373,3662 6390,3678 6409,3690 6429,3701 6451,3707 6474,3707 6496,3707 6518,3701 6538,3690 6557,3678 6574,3662 6585,3643 6596,3623 6602,3601 6602,3578 6602,3555 6596,3533 6585,3514 6574,3494 6557,3478 6538,3466 6518,3455 6496,3449 6474,3449 6451,3449 6429,3455 6409,3466 6390,3478 6373,3494 6362,3514 6351,3533 6345,3555 6345,3578 L 6345,3578 Z"/>
        <path fill="none" stroke="rgb(255,56,56)" stroke-width="53" stroke-linejoin="round" d="M 6345,3578 C 6345,3601 6351,3623 6362,3643 6373,3662 6390,3678 6409,3690 6429,3701 6451,3707 6474,3707 6496,3707 6518,3701 6538,3690 6557,3678 6574,3662 6585,3643 6596,3623 6602,3601 6602,3578 6602,3555 6596,3533 6585,3514 6574,3494 6557,3478 6538,3466 6518,3455 6496,3449 6474,3449 6451,3449 6429,3455 6409,3466 6390,3478 6373,3494 6362,3514 6351,3533 6345,3555 6345,3578 Z"/>
       </g>
      </g>
      <g class="com.sun.star.drawing.PolyPolygonShape">
       <g id="id21">
        <rect class="BoundingBox" stroke="none" fill="none" x="6582" y="3460" width="857" height="644"/>
        <path fill="rgb(255,166,166)" stroke="none" d="M 7010,3461 L 7438,4103 6582,4103 6582,3996 6582,3889 6796,3782 6796,3568 6689,3461 7010,3461 Z"/>
       </g>
      </g>
      <g class="com.sun.star.drawing.LineShape">
       <g id="id22">
        <rect class="BoundingBox" stroke="none" fill="none" x="6777" y="3764" width="679" height="358"/>
        <path fill="none" stroke="rgb(255,255,255)" stroke-width="35" stroke-linejoin="round" d="M 6795,3782 L 7437,4103"/>
       </g>
      </g>
      <g class="com.sun.star.drawing.CustomShape">
       <g id="id23">
        <rect class="BoundingBox" stroke="none" fill="none" x="1653" y="3343" width="3165" height="1415"/>
        <path fill="rgb(255,255,255)" stroke="none" d="M 4813,3387 C 4831,3430 4776,3502 4653,3597 4530,3693 4343,3807 4112,3929 3881,4052 3614,4177 3337,4294 3060,4410 2783,4513 2534,4593 2285,4672 2073,4725 1919,4746 1765,4767 1675,4756 1657,4713 1639,4670 1694,4598 1817,4503 1940,4407 2127,4293 2358,4171 2589,4048 2856,3923 3133,3806 3410,3690 3687,3587 3936,3507 4185,3428 4397,3375 4551,3354 4705,3333 4795,3344 4813,3387 L 4813,3387 Z"/>
       </g>
      </g>
      <g class="com.sun.star.drawing.LineShape">
       <g id="id24">
        <rect class="BoundingBox" stroke="none" fill="none" x="3647" y="5247" width="607" height="607"/>
        <path fill="none" stroke="rgb(255,215,215)" stroke-width="106" stroke-linejoin="round" d="M 3700,5300 L 4200,5800"/>
       </g>
      </g>
      <g class="com.sun.star.drawing.EllipseShape">
       <g id="id25">
        <rect class="BoundingBox" stroke="none" fill="none" x="3838" y="5722" width="481" height="504"/>
        <path fill="none" stroke="rgb(255,215,215)" stroke-width="106" stroke-linejoin="round" d="M 4023,6171 C 4005,6164 3989,6155 3974,6144 3945,6123 3922,6094 3908,6061 3894,6029 3888,5992 3892,5957 3897,5921 3910,5887 3931,5858 3953,5830 3981,5807 4014,5792 4047,5778 4083,5773 4119,5777 4154,5781 4188,5794 4217,5815 4235,5829 4251,5846 4264,5865"/>
       </g>
      </g>
      <g class="com.sun.star.drawing.EllipseShape">
       <g id="id26">
        <rect class="BoundingBox" stroke="none" fill="none" x="4170" y="5810" width="247" height="660"/>
        <path fill="none" stroke="rgb(255,215,215)" stroke-width="106" stroke-linejoin="round" d="M 4256,5863 C 4292,5897 4320,5938 4339,5985 4361,6043 4368,6107 4359,6171 4349,6235 4323,6297 4284,6350 4266,6374 4246,6396 4224,6415"/>
       </g>
      </g>
      <g class="com.sun.star.drawing.EllipseShape">
       <g id="id27">
        <rect class="BoundingBox" stroke="none" fill="none" x="4231" y="5871" width="264" height="657"/>
        <path fill="none" stroke="rgb(255,215,215)" stroke-width="106" stroke-linejoin="round" d="M 4285,5925 C 4326,5951 4361,5987 4387,6029 4420,6082 4438,6144 4441,6209 4443,6274 4428,6339 4399,6399 4386,6425 4370,6451 4352,6474"/>
       </g>
      </g>
      <g class="com.sun.star.drawing.EllipseShape">
       <g id="id28">
        <rect class="BoundingBox" stroke="none" fill="none" x="3989" y="5807" width="360" height="546"/>
        <path fill="none" stroke="rgb(255,215,215)" stroke-width="106" stroke-linejoin="round" d="M 4264,5860 C 4284,5902 4294,5947 4295,5992 4296,6050 4281,6106 4251,6155 4222,6204 4178,6243 4126,6270 4100,6283 4072,6293 4042,6299"/>
       </g>
      </g>
      <g class="com.sun.star.drawing.CustomShape">
       <g id="id29">
        <rect class="BoundingBox" stroke="none" fill="none" x="3324" y="4186" width="2299" height="721"/>
        <path fill="rgb(255,245,206)" stroke="none" d="M 5621,4433 C 5627,4493 5580,4557 5484,4619 5388,4680 5248,4738 5076,4785 4904,4832 4708,4868 4506,4887 4305,4907 4105,4911 3928,4898 3750,4886 3601,4857 3495,4815 3389,4773 3330,4719 3325,4659 3319,4599 3366,4535 3462,4473 3558,4412 3698,4354 3870,4307 4042,4260 4238,4224 4440,4205 4641,4185 4841,4181 5018,4194 5196,4206 5345,4235 5451,4277 5557,4319 5616,4373 5621,4433 L 5621,4433 Z"/>
       </g>
      </g>
      <g class="com.sun.star.drawing.CustomShape">
       <g id="id30">
        <rect class="BoundingBox" stroke="none" fill="none" x="3739" y="147" width="1307" height="1867"/>
        <path fill="rgb(238,238,238)" stroke="none" d="M 3770,157 C 3805,134 3868,154 3952,215 4037,276 4140,375 4252,504 4364,633 4481,786 4590,948 4699,1110 4797,1275 4874,1427 4952,1579 5005,1712 5030,1813 5054,1914 5049,1980 5014,2003 4979,2026 4916,2006 4832,1945 4747,1884 4644,1785 4532,1656 4420,1527 4303,1374 4194,1212 4085,1050 3987,885 3910,733 3832,581 3779,448 3754,347 3730,246 3735,180 3770,157 L 3770,157 Z"/>
       </g>
      </g>
      <g class="com.sun.star.drawing.CustomShape">
       <g id="id31">
        <rect class="BoundingBox" stroke="none" fill="none" x="3322" y="325" width="1517" height="1698"/>
        <path fill="rgb(238,238,238)" stroke="none" d="M 3344,340 C 3376,312 3441,324 3533,373 3625,422 3740,507 3868,620 3996,733 4131,869 4260,1015 4389,1161 4508,1312 4604,1453 4700,1594 4770,1719 4807,1816 4844,1913 4847,1979 4816,2007 4784,2034 4719,2023 4627,1974 4535,1925 4420,1840 4292,1727 4164,1614 4029,1478 3900,1331 3771,1185 3652,1034 3556,894 3460,753 3390,628 3353,531 3316,434 3313,368 3344,340 L 3344,340 Z"/>
       </g>
      </g>
      <g class="com.sun.star.drawing.CustomShape">
       <g id="id32">
        <rect class="BoundingBox" stroke="none" fill="none" x="2973" y="538" width="1674" height="1546"/>
        <path fill="rgb(238,238,238)" stroke="none" d="M 2988,559 C 3017,528 3082,533 3178,572 3275,611 3399,684 3537,783 3676,882 3825,1003 3969,1135 4113,1267 4248,1405 4358,1534 4469,1664 4553,1781 4600,1874 4648,1966 4658,2031 4630,2062 4602,2093 4537,2089 4440,2049 4344,2010 4220,1937 4081,1838 3942,1740 3793,1618 3649,1486 3505,1354 3371,1216 3260,1087 3150,957 3066,840 3018,747 2971,655 2960,590 2988,559 L 2988,559 Z"/>
       </g>
      </g>
      <g class="com.sun.star.drawing.CustomShape">
       <g id="id33">
        <rect class="BoundingBox" stroke="none" fill="none" x="2649" y="838" width="2071" height="1435"/>
        <path fill="rgb(238,238,238)" stroke="none" d="M 2658,866 C 2682,831 2752,829 2862,859 2973,890 3119,952 3287,1040 3454,1127 3637,1237 3818,1358 3998,1479 4168,1607 4313,1729 4457,1851 4570,1963 4639,2054 4709,2144 4733,2210 4710,2244 4686,2279 4616,2281 4506,2251 4395,2220 4249,2158 4081,2070 3914,1983 3731,1873 3550,1752 3370,1631 3200,1503 3055,1381 2911,1259 2798,1147 2729,1056 2659,966 2635,900 2658,866 L 2658,866 Z"/>
       </g>
      </g>
      <g class="com.sun.star.drawing.CustomShape">
       <g id="id34">
        <rect class="BoundingBox" stroke="none" fill="none" x="2369" y="1154" width="2206" height="1209"/>
        <path fill="rgb(238,238,238)" stroke="none" d="M 2375,1192 C 2395,1155 2464,1145 2577,1163 2690,1181 2842,1226 3019,1293 3195,1361 3389,1449 3582,1548 3774,1647 3958,1754 4115,1859 4272,1963 4396,2061 4476,2143 4555,2224 4587,2287 4568,2324 4548,2360 4479,2370 4366,2353 4253,2335 4101,2290 3924,2222 3748,2155 3554,2067 3362,1968 3169,1868 2985,1761 2828,1657 2671,1552 2547,1454 2467,1373 2388,1291 2356,1229 2375,1192 L 2375,1192 Z"/>
       </g>
      </g>
      <g class="com.sun.star.drawing.CustomShape">
       <g id="id35">
        <rect class="BoundingBox" stroke="none" fill="none" x="2102" y="1487" width="2507" height="1088"/>
        <path fill="rgb(238,238,238)" stroke="none" d="M 2105,1534 C 2121,1495 2194,1480 2317,1490 2440,1500 2609,1535 2806,1591 3004,1647 3223,1723 3443,1810 3662,1897 3874,1993 4056,2087 4238,2182 4385,2273 4481,2350 4577,2427 4620,2488 4604,2527 4589,2565 4516,2580 4393,2570 4270,2560 4101,2526 3903,2469 3705,2413 3486,2338 3267,2251 3047,2164 2836,2068 2654,1973 2471,1878 2325,1788 2229,1711 2132,1634 2090,1573 2105,1534 L 2105,1534 Z"/>
       </g>
      </g>
      <g class="com.sun.star.drawing.CustomShape">
       <g id="id36">
        <rect class="BoundingBox" stroke="none" fill="none" x="1867" y="1836" width="2568" height="934"/>
        <path fill="rgb(238,238,238)" stroke="none" d="M 1869,1896 C 1881,1856 1953,1835 2076,1836 2199,1837 2370,1860 2571,1901 2772,1943 2996,2002 3221,2074 3446,2145 3663,2226 3852,2307 4040,2389 4193,2469 4295,2540 4397,2610 4444,2669 4431,2709 4419,2749 4348,2770 4224,2769 4101,2768 3931,2745 3730,2704 3529,2662 3305,2603 3080,2531 2855,2460 2637,2380 2449,2298 2260,2216 2107,2136 2005,2065 1904,1995 1857,1937 1869,1896 L 1869,1896 Z"/>
       </g>
      </g>
      <g class="com.sun.star.drawing.CustomShape">
       <g id="id37">
        <rect class="BoundingBox" stroke="none" fill="none" x="1629" y="2209" width="2666" height="613"/>
        <path fill="rgb(238,238,238)" stroke="none" d="M 1630,2322 C 1636,2280 1704,2249 1826,2230 1948,2211 2121,2205 2326,2214 2532,2222 2763,2245 2997,2279 3231,2312 3459,2357 3658,2407 3857,2457 4021,2511 4132,2564 4244,2617 4299,2667 4293,2708 4287,2749 4219,2781 4097,2800 3975,2819 3802,2825 3597,2816 3391,2808 3160,2785 2926,2751 2692,2717 2464,2673 2265,2623 2066,2573 1902,2519 1791,2466 1679,2413 1624,2363 1630,2322 L 1630,2322 Z"/>
       </g>
      </g>
      <g class="com.sun.star.drawing.CustomShape">
       <g id="id38">
        <rect class="BoundingBox" stroke="none" fill="none" x="1511" y="2457" width="2689" height="584"/>
        <path fill="rgb(238,238,238)" stroke="none" d="M 1512,2814 C 1509,2765 1569,2713 1684,2664 1800,2615 1968,2571 2171,2536 2374,2501 2605,2477 2841,2465 3076,2454 3309,2456 3514,2470 3720,2485 3891,2513 4011,2550 4131,2587 4196,2633 4198,2683 4201,2732 4141,2784 4026,2833 3910,2882 3742,2926 3539,2961 3336,2996 3105,3020 2869,3032 2634,3043 2401,3041 2196,3027 1990,3012 1819,2984 1699,2947 1579,2910 1514,2864 1512,2814 L 1512,2814 Z"/>
       </g>
      </g>
      <g class="com.sun.star.drawing.PolyPolygonShape">
       <g id="id39">
        <rect class="BoundingBox" stroke="none" fill="none" x="4221" y="742" width="1101" height="2401"/>
        <path fill="rgb(238,238,238)" stroke="none" d="M 5321,3142 L 5221,2942 5221,2042 4421,742 4221,2242 4721,3142 5321,3142 Z"/>
       </g>
      </g>
      <g class="com.sun.star.drawing.PolyPolygonShape">
       <g id="id40">
        <rect class="BoundingBox" stroke="none" fill="none" x="2231" y="377" width="3003" height="3403"/>
        <path fill="rgb(255,255,255)" stroke="none" d="M 5233,3507 L 4115,1952 2232,378 4129,3778 5233,3507 Z"/>
       </g>
      </g>
      <g class="com.sun.star.drawing.CustomShape">
       <g id="id41">
        <rect class="BoundingBox" stroke="none" fill="none" x="1909" y="334" width="2351" height="1951"/>
        <path fill="rgb(255,255,255)" stroke="none" d="M 1928,366 C 1963,323 2052,324 2185,369 2317,414 2489,501 2682,623 2876,745 3085,896 3288,1061 3491,1227 3681,1401 3839,1566 3997,1731 4117,1881 4187,2002 4258,2122 4276,2208 4240,2252 4205,2295 4116,2294 3983,2249 3851,2204 3679,2117 3486,1995 3292,1873 3083,1722 2880,1557 2677,1391 2487,1217 2329,1052 2171,887 2051,737 1981,616 1910,496 1892,410 1928,366 L 1928,366 Z"/>
       </g>
      </g>
      <g class="com.sun.star.drawing.CustomShape">
       <g id="id42">
        <rect class="BoundingBox" stroke="none" fill="none" x="1494" y="685" width="2527" height="1722"/>
        <path fill="rgb(255,255,255)" stroke="none" d="M 1506,729 C 1537,682 1624,673 1761,704 1897,735 2076,804 2282,905 2487,1005 2711,1134 2930,1277 3150,1420 3357,1574 3532,1721 3707,1869 3843,2006 3926,2119 4010,2231 4037,2315 4007,2362 3977,2410 3889,2418 3753,2387 3616,2357 3437,2287 3231,2187 3026,2086 2802,1958 2583,1814 2363,1671 2156,1518 1981,1370 1806,1222 1670,1085 1587,973 1503,860 1476,776 1506,729 L 1506,729 Z"/>
       </g>
      </g>
      <g class="com.sun.star.drawing.CustomShape">
       <g id="id43">
        <rect class="BoundingBox" stroke="none" fill="none" x="1131" y="1151" width="3030" height="1497"/>
        <path fill="rgb(255,255,255)" stroke="none" d="M 1138,1210 C 1162,1159 1254,1141 1407,1157 1560,1174 1767,1224 2008,1303 2249,1382 2516,1488 2780,1609 3045,1729 3299,1862 3516,1992 3733,2122 3907,2246 4019,2350 4130,2455 4177,2537 4153,2587 4130,2638 4037,2657 3884,2640 3731,2624 3524,2574 3283,2494 3042,2415 2775,2310 2511,2189 2246,2068 1992,1936 1775,1806 1558,1676 1384,1552 1272,1448 1161,1343 1114,1261 1138,1210 L 1138,1210 Z"/>
       </g>
      </g>
      <g class="com.sun.star.drawing.CustomShape">
       <g id="id44">
        <rect class="BoundingBox" stroke="none" fill="none" x="828" y="1618" width="3161" height="1184"/>
        <path fill="rgb(255,255,255)" stroke="none" d="M 831,1700 C 849,1647 939,1619 1092,1618 1245,1617 1457,1643 1705,1694 1953,1745 2230,1819 2506,1909 2783,1998 3050,2100 3281,2204 3512,2307 3699,2410 3822,2500 3946,2590 4001,2666 3984,2719 3967,2771 3877,2800 3723,2801 3570,2802 3359,2775 3110,2724 2862,2673 2586,2599 2309,2510 2032,2421 1765,2319 1534,2215 1303,2111 1117,2009 993,1919 870,1828 814,1753 831,1700 L 831,1700 Z"/>
       </g>
      </g>
      <g class="com.sun.star.drawing.CustomShape">
       <g id="id45">
        <rect class="BoundingBox" stroke="none" fill="none" x="548" y="2099" width="3530" height="993"/>
        <path fill="rgb(255,255,255)" stroke="none" d="M 550,2211 C 562,2156 655,2120 820,2106 985,2092 1216,2102 1490,2133 1764,2164 2071,2216 2381,2283 2690,2351 2991,2432 3253,2517 3515,2603 3729,2691 3873,2773 4018,2854 4088,2925 4076,2980 4064,3035 3970,3071 3805,3085 3640,3098 3409,3089 3135,3058 2861,3027 2554,2975 2245,2908 1935,2840 1634,2759 1372,2673 1110,2587 896,2500 752,2418 607,2337 538,2265 550,2211 L 550,2211 Z"/>
       </g>
      </g>
      <g class="com.sun.star.drawing.CustomShape">
       <g id="id46">
        <rect class="BoundingBox" stroke="none" fill="none" x="315" y="2607" width="4205" height="882"/>
        <path fill="rgb(255,255,255)" stroke="none" d="M 316,2744 C 324,2688 428,2647 619,2625 810,2604 1081,2602 1404,2620 1727,2638 2092,2676 2461,2729 2829,2782 3190,2849 3505,2923 3821,2997 4081,3076 4258,3151 4436,3226 4526,3295 4518,3351 4511,3407 4406,3448 4215,3470 4024,3491 3753,3493 3430,3475 3107,3457 2742,3419 2374,3366 2005,3313 1644,3246 1329,3172 1013,3098 753,3019 576,2944 398,2869 308,2800 316,2744 L 316,2744 Z"/>
       </g>
      </g>
      <g class="com.sun.star.drawing.CustomShape">
       <g id="id47">
        <rect class="BoundingBox" stroke="none" fill="none" x="207" y="2932" width="4185" height="766"/>
        <path fill="rgb(255,255,255)" stroke="none" d="M 207,3525 C 202,3469 293,3404 472,3337 651,3270 911,3203 1226,3143 1542,3083 1901,3032 2268,2996 2635,2959 2997,2937 3318,2933 3638,2929 3906,2943 4095,2973 4283,3003 4385,3048 4390,3104 4396,3160 4305,3225 4126,3292 3947,3359 3687,3426 3372,3486 3056,3546 2697,3597 2330,3633 1963,3670 1601,3692 1280,3696 959,3700 692,3686 503,3656 315,3626 213,3581 207,3525 L 207,3525 Z"/>
       </g>
      </g>
     </g>
    </g>
   </g>
  </g>
 </g>
</svg>