<?xml version="1.0" encoding="UTF-8"?>
<!DOCTYPE svg PUBLIC "-//W3C//DTD SVG 1.1//EN" "http://www.w3.org/Graphics/SVG/1.1/DTD/svg11.dtd">
<svg version="1.2" width="85mm" height="85mm" viewBox="0 0 8500 8500" preserveAspectRatio="xMidYMid" fill-rule="evenodd" stroke-width="28.222" stroke-linejoin="round" xmlns="http://www.w3.org/2000/svg" xmlns:ooo="http://xml.openoffice.org/svg/export" xmlns:xlink="http://www.w3.org/1999/xlink" xmlns:presentation="http://sun.com/xmlns/staroffice/presentation" xmlns:smil="http://www.w3.org/2001/SMIL20/" xmlns:anim="urn:oasis:names:tc:opendocument:xmlns:animation:1.0" xmlns:svg="urn:oasis:names:tc:opendocument:xmlns:svg-compatible:1.0" xml:space="preserve">
 <defs class="ClipPathGroup">
  <clipPath id="presentation_clip_path" clipPathUnits="userSpaceOnUse">
   <rect x="0" y="0" width="8500" height="8500"/>
  </clipPath>
  <clipPath id="presentation_clip_path_shrink" clipPathUnits="userSpaceOnUse">
   <rect x="8" y="8" width="8483" height="8483"/>
  </clipPath>
 </defs>
 <defs class="TextShapeIndex">
  <g ooo:slide="id1" ooo:id-list="id3 id4 id5 id6 id7 id8 id9 id10 id11 id12 id13 id14 id15 id16 id17 id18 id19 id20 id21 id22 id23 id24 id25 id26 id27 id28 id29 id30 id31 id32 id33"/>
 </defs>
 <defs class="EmbeddedBulletChars">
  <g id="bullet-char-template-57356" transform="scale(0.00048828125,-0.00048828125)">
   <path d="M 580,1141 L 1163,571 580,0 -4,571 580,1141 Z"/>
  </g>
  <g id="bullet-char-template-57354" transform="scale(0.00048828125,-0.00048828125)">
   <path d="M 8,1128 L 1137,1128 1137,0 8,0 8,1128 Z"/>
  </g>
  <g id="bullet-char-template-10146" transform="scale(0.00048828125,-0.00048828125)">
   <path d="M 174,0 L 602,739 174,1481 1456,739 174,0 Z M 1358,739 L 309,1346 659,739 1358,739 Z"/>
  </g>
  <g id="bullet-char-template-10132" transform="scale(0.00048828125,-0.00048828125)">
   <path d="M 2015,739 L 1276,0 717,0 1260,543 174,543 174,936 1260,936 717,1481 1274,1481 2015,739 Z"/>
  </g>
  <g id="bullet-char-template-10007" transform="scale(0.00048828125,-0.00048828125)">
   <path d="M 0,-2 C -7,14 -16,27 -25,37 L 356,567 C 262,823 215,952 215,954 215,979 228,992 255,992 264,992 276,990 289,987 310,991 331,999 354,1012 L 381,999 492,748 772,1049 836,1024 860,1049 C 881,1039 901,1025 922,1006 886,937 835,863 770,784 769,783 710,716 594,584 L 774,223 C 774,196 753,168 711,139 L 727,119 C 717,90 699,76 672,76 641,76 570,178 457,381 L 164,-76 C 142,-110 111,-127 72,-127 30,-127 9,-110 8,-76 1,-67 -2,-52 -2,-32 -2,-23 -1,-13 0,-2 Z"/>
  </g>
  <g id="bullet-char-template-10004" transform="scale(0.00048828125,-0.00048828125)">
   <path d="M 285,-33 C 182,-33 111,30 74,156 52,228 41,333 41,471 41,549 55,616 82,672 116,743 169,778 240,778 293,778 328,747 346,684 L 369,508 C 377,444 397,411 428,410 L 1163,1116 C 1174,1127 1196,1133 1229,1133 1271,1133 1292,1118 1292,1087 L 1292,965 C 1292,929 1282,901 1262,881 L 442,47 C 390,-6 338,-33 285,-33 Z"/>
  </g>
  <g id="bullet-char-template-9679" transform="scale(0.00048828125,-0.00048828125)">
   <path d="M 813,0 C 632,0 489,54 383,161 276,268 223,411 223,592 223,773 276,916 383,1023 489,1130 632,1184 813,1184 992,1184 1136,1130 1245,1023 1353,916 1407,772 1407,592 1407,412 1353,268 1245,161 1136,54 992,0 813,0 Z"/>
  </g>
  <g id="bullet-char-template-8226" transform="scale(0.00048828125,-0.00048828125)">
   <path d="M 346,457 C 273,457 209,483 155,535 101,586 74,649 74,723 74,796 101,859 155,911 209,963 273,989 346,989 419,989 480,963 531,910 582,859 608,796 608,723 608,648 583,586 532,535 482,483 420,457 346,457 Z"/>
  </g>
  <g id="bullet-char-template-8211" transform="scale(0.00048828125,-0.00048828125)">
   <path d="M -4,459 L 1135,459 1135,606 -4,606 -4,459 Z"/>
  </g>
  <g id="bullet-char-template-61548" transform="scale(0.00048828125,-0.00048828125)">
   <path d="M 173,740 C 173,903 231,1043 346,1159 462,1274 601,1332 765,1332 928,1332 1067,1274 1183,1159 1299,1043 1357,903 1357,740 1357,577 1299,437 1183,322 1067,206 928,148 765,148 601,148 462,206 346,322 231,437 173,577 173,740 Z"/>
  </g>
 </defs>
 <g>
  <g id="id2" class="Master_Slide">
   <g id="bg-id2" class="Background"/>
   <g id="bo-id2" class="BackgroundObjects"/>
  </g>
 </g>
 <g class="SlideGroup">
  <g>
   <g id="container-id1">
    <g id="id1" class="Slide" clip-path="url(#presentation_clip_path)">
     <g class="Page">
      <g class="com.sun.star.drawing.CustomShape">
       <g id="id3">
        <rect class="BoundingBox" stroke="none" fill="none" x="6163" y="4003" width="2129" height="1410"/>
        <path fill="rgb(238,238,238)" stroke="none" d="M 8286,5395 C 8268,5422 8202,5416 8094,5379 7986,5342 7840,5274 7670,5183 7500,5092 7313,4980 7127,4859 6942,4739 6764,4613 6611,4495 6459,4377 6338,4271 6260,4188 6183,4105 6151,4047 6168,4020 6186,3993 6252,3999 6360,4036 6468,4074 6614,4141 6784,4233 6954,4324 7141,4435 7327,4556 7513,4677 7691,4802 7843,4920 7995,5038 8116,5144 8194,5227 8272,5311 8303,5369 8286,5395 L 8286,5395 Z"/>
       </g>
      </g>
      <g class="com.sun.star.drawing.CustomShape">
       <g id="id4">
        <rect class="BoundingBox" stroke="none" fill="none" x="6112" y="3911" width="534" height="1281"/>
        <path fill="rgb(238,238,238)" stroke="none" d="M 6580,5188 C 6550,5198 6510,5178 6466,5130 6422,5083 6375,5009 6329,4917 6283,4825 6240,4718 6205,4606 6169,4494 6142,4382 6127,4280 6112,4179 6108,4091 6117,4027 6126,3963 6146,3924 6177,3914 6207,3905 6247,3925 6291,3972 6335,4020 6382,4093 6428,4185 6474,4277 6517,4384 6553,4496 6588,4608 6615,4720 6630,4822 6645,4924 6649,5011 6640,5075 6631,5139 6611,5178 6580,5188 L 6580,5188 Z"/>
       </g>
      </g>
      <g class="com.sun.star.drawing.CustomShape">
       <g id="id5">
        <rect class="BoundingBox" stroke="none" fill="none" x="6331" y="4136" width="773" height="1154"/>
        <path fill="rgb(238,238,238)" stroke="none" d="M 7070,5281 C 7042,5297 6999,5288 6945,5253 6890,5217 6826,5158 6759,5080 6692,5002 6624,4909 6562,4809 6500,4709 6446,4607 6406,4512 6366,4417 6341,4334 6334,4269 6326,4205 6337,4162 6364,4145 6391,4128 6434,4138 6489,4173 6543,4208 6607,4267 6675,4345 6742,4423 6810,4517 6872,4616 6934,4716 6987,4818 7027,4913 7067,5008 7092,5092 7100,5156 7107,5221 7097,5264 7070,5281 L 7070,5281 Z"/>
       </g>
      </g>
      <g class="com.sun.star.drawing.CustomShape">
       <g id="id6">
        <rect class="BoundingBox" stroke="none" fill="none" x="6389" y="3957" width="1228" height="1474"/>
        <path fill="rgb(238,238,238)" stroke="none" d="M 7600,5421 C 7575,5441 7524,5427 7450,5380 7376,5334 7283,5256 7180,5156 7077,5056 6968,4935 6863,4808 6758,4680 6662,4550 6583,4429 6505,4309 6447,4202 6416,4121 6385,4040 6382,3987 6406,3967 6431,3947 6482,3961 6556,4007 6630,4054 6723,4131 6826,4231 6929,4332 7038,4452 7143,4580 7248,4707 7344,4838 7422,4958 7501,5079 7559,5185 7590,5266 7621,5347 7624,5401 7600,5421 L 7600,5421 Z"/>
       </g>
      </g>
      <g class="com.sun.star.drawing.CustomShape">
       <g id="id7">
        <rect class="BoundingBox" stroke="none" fill="none" x="1521" y="3660" width="2645" height="2199"/>
        <path fill="rgb(128,128,128)" stroke="none" d="M 4161,3667 C 4177,3686 4132,3756 4031,3869 3929,3982 3774,4134 3582,4310 3390,4486 3167,4679 2935,4871 2704,5063 2472,5246 2264,5402 2055,5558 1877,5682 1748,5761 1618,5840 1541,5871 1525,5851 1509,5832 1554,5762 1655,5649 1757,5536 1912,5384 2104,5208 2296,5032 2519,4839 2751,4647 2982,4455 3214,4272 3422,4116 3631,3960 3809,3836 3938,3757 4068,3678 4145,3647 4161,3667 L 4161,3667 Z"/>
       </g>
      </g>
      <g class="com.sun.star.drawing.CustomShape">
       <g id="id8">
        <rect class="BoundingBox" stroke="none" fill="none" x="1633" y="3437" width="2502" height="2356"/>
        <path fill="rgb(238,238,238)" stroke="none" d="M 4130,3442 C 4146,3459 4104,3530 4009,3647 3913,3765 3767,3925 3586,4112 3404,4299 3194,4505 2975,4711 2756,4917 2537,5115 2339,5285 2142,5455 1973,5590 1850,5679 1726,5767 1653,5805 1637,5788 1621,5771 1663,5700 1758,5582 1854,5465 1999,5304 2181,5118 2362,4931 2573,4724 2792,4518 3011,4312 3230,4114 3427,3945 3625,3775 3794,3639 3917,3551 4040,3462 4114,3425 4130,3442 L 4130,3442 Z"/>
       </g>
      </g>
      <g class="com.sun.star.drawing.CustomShape">
       <g id="id9">
        <rect class="BoundingBox" stroke="none" fill="none" x="3683" y="3132" width="2783" height="1178"/>
        <path fill="rgb(255,255,255)" stroke="none" d="M 6465,3721 C 6465,3824 6401,3925 6279,4015 6157,4104 5981,4179 5770,4230 5558,4282 5318,4309 5074,4309 4830,4309 4590,4282 4379,4230 4167,4179 3991,4104 3869,4015 3747,3925 3683,3824 3683,3721 3683,3617 3747,3516 3869,3426 3991,3337 4167,3262 4378,3211 4590,3159 4830,3132 5074,3132 5318,3132 5558,3159 5770,3211 5981,3262 6157,3337 6279,3426 6401,3516 6465,3617 6465,3720 L 6465,3721 Z"/>
       </g>
      </g>
      <g class="com.sun.star.drawing.CustomShape">
       <g id="id10">
        <rect class="BoundingBox" stroke="none" fill="none" x="5870" y="3736" width="390" height="1330"/>
        <path fill="rgb(238,238,238)" stroke="none" d="M 6136,5064 C 6104,5067 6069,5040 6036,4984 6002,4929 5970,4848 5944,4748 5917,4649 5896,4535 5884,4419 5872,4302 5868,4187 5873,4085 5878,3982 5892,3896 5913,3835 5934,3774 5962,3740 5994,3737 6025,3734 6060,3761 6093,3817 6127,3872 6159,3954 6185,4053 6212,4152 6233,4266 6245,4382 6258,4499 6262,4614 6256,4717 6251,4819 6238,4905 6216,4966 6195,5027 6167,5061 6136,5064 L 6136,5064 Z"/>
       </g>
      </g>
      <g class="com.sun.star.drawing.CustomShape">
       <g id="id11">
        <rect class="BoundingBox" stroke="none" fill="none" x="5374" y="3630" width="546" height="1275"/>
        <path fill="rgb(238,238,238)" stroke="none" d="M 5857,4901 C 5826,4912 5787,4892 5742,4845 5697,4799 5649,4726 5602,4635 5555,4543 5510,4437 5474,4325 5437,4214 5408,4102 5392,4001 5375,3899 5370,3812 5378,3747 5386,3683 5406,3643 5436,3633 5467,3623 5506,3642 5551,3689 5596,3736 5644,3808 5691,3900 5738,3991 5783,4098 5819,4209 5856,4320 5885,4432 5901,4534 5918,4635 5923,4723 5915,4787 5907,4852 5887,4891 5857,4901 L 5857,4901 Z"/>
       </g>
      </g>
      <g class="com.sun.star.drawing.CustomShape">
       <g id="id12">
        <rect class="BoundingBox" stroke="none" fill="none" x="5505" y="3133" width="1500" height="1070"/>
        <path fill="rgb(255,255,255)" stroke="none" d="M 7004,3668 C 7004,3761 6969,3853 6904,3935 6838,4016 6743,4083 6629,4130 6515,4177 6386,4202 6255,4202 6123,4202 5994,4177 5880,4130 5766,4083 5671,4016 5605,3935 5540,3853 5505,3761 5505,3668 5505,3574 5540,3482 5605,3400 5671,3319 5766,3252 5880,3205 5994,3158 6123,3133 6254,3133 6386,3133 6515,3158 6629,3205 6743,3252 6838,3319 6904,3400 6969,3482 7004,3574 7004,3667 L 7004,3668 Z"/>
       </g>
      </g>
      <g class="com.sun.star.drawing.CustomShape">
       <g id="id13">
        <rect class="BoundingBox" stroke="none" fill="none" x="6203" y="3148" width="812" height="626"/>
        <path fill="rgb(255,245,206)" stroke="none" d="M 6994,3698 C 6972,3734 6933,3758 6880,3768 6827,3777 6763,3773 6693,3754 6624,3736 6552,3704 6484,3663 6416,3621 6356,3570 6308,3517 6260,3463 6227,3407 6213,3355 6198,3304 6201,3258 6223,3223 6245,3187 6284,3163 6337,3153 6390,3143 6454,3148 6524,3166 6594,3185 6666,3217 6733,3258 6801,3300 6862,3350 6910,3404 6957,3458 6990,3514 7005,3565 7020,3617 7016,3663 6994,3698 L 6994,3698 Z"/>
       </g>
      </g>
      <g class="com.sun.star.drawing.CustomShape">
       <g id="id14">
        <rect class="BoundingBox" stroke="none" fill="none" x="2906" y="3613" width="3399" height="1273"/>
        <path fill="rgb(255,255,255)" stroke="none" d="M 6302,4024 C 6316,4128 6251,4241 6114,4351 5977,4461 5772,4565 5521,4651 5270,4737 4981,4803 4683,4843 4385,4882 4089,4894 3824,4876 3559,4858 3335,4811 3174,4741 3013,4670 2922,4578 2908,4474 2894,4370 2959,4257 3096,4147 3233,4037 3438,3933 3689,3847 3940,3761 4229,3695 4527,3655 4825,3616 5121,3604 5386,3622 5651,3640 5875,3687 6036,3757 6197,3828 6288,3920 6302,4024 L 6302,4024 Z"/>
       </g>
      </g>
      <g class="com.sun.star.drawing.CustomShape">
       <g id="id15">
        <rect class="BoundingBox" stroke="none" fill="none" x="1518" y="3550" width="2733" height="2129"/>
        <path fill="rgb(128,128,128)" stroke="none" d="M 4241,3570 C 4268,3605 4232,3689 4137,3811 4041,3934 3890,4091 3697,4268 3505,4444 3278,4634 3040,4817 2802,5000 2561,5171 2341,5312 2121,5453 1930,5559 1787,5620 1644,5681 1555,5694 1527,5658 1500,5623 1536,5539 1631,5417 1727,5294 1878,5137 2071,4960 2263,4784 2490,4594 2728,4411 2966,4228 3207,4057 3427,3916 3647,3775 3838,3669 3981,3608 4124,3547 4213,3534 4241,3570 L 4241,3570 Z"/>
       </g>
      </g>
      <g class="com.sun.star.drawing.CustomShape">
       <g id="id16">
        <rect class="BoundingBox" stroke="none" fill="none" x="2976" y="3651" width="1889" height="1555"/>
        <path fill="rgb(255,255,255)" stroke="none" d="M 2990,5178 C 2962,5143 2977,5075 3034,4978 3091,4882 3188,4762 3315,4631 3443,4499 3596,4361 3759,4229 3922,4097 4090,3977 4245,3881 4401,3784 4539,3714 4645,3679 4751,3643 4822,3643 4850,3678 4878,3713 4863,3781 4806,3878 4749,3974 4652,4094 4525,4225 4397,4357 4244,4495 4081,4627 3918,4759 3750,4879 3595,4975 3439,5072 3301,5142 3195,5177 3089,5213 3018,5213 2990,5178 L 2990,5178 Z"/>
       </g>
      </g>
      <g class="com.sun.star.drawing.CustomShape">
       <g id="id17">
        <rect class="BoundingBox" stroke="none" fill="none" x="2997" y="3926" width="1635" height="1821"/>
        <path fill="rgb(255,255,255)" stroke="none" d="M 3020,5729 C 2987,5699 2990,5629 3031,5524 3071,5420 3147,5285 3251,5135 3355,4984 3483,4822 3622,4665 3762,4508 3907,4362 4045,4241 4182,4120 4307,4029 4405,3977 4504,3924 4574,3913 4608,3943 4641,3973 4638,4043 4597,4148 4557,4252 4481,4387 4377,4537 4273,4688 4145,4850 4006,5007 3866,5164 3721,5310 3583,5431 3446,5552 3321,5643 3223,5695 3124,5748 3054,5759 3020,5729 L 3020,5729 Z"/>
       </g>
      </g>
      <g class="com.sun.star.drawing.CustomShape">
       <g id="id18">
        <rect class="BoundingBox" stroke="none" fill="none" x="3222" y="4119" width="1404" height="2002"/>
        <path fill="rgb(255,255,255)" stroke="none" d="M 3255,6109 C 3218,6084 3212,6013 3239,5904 3265,5796 3323,5652 3406,5489 3489,5326 3594,5149 3712,4975 3829,4802 3954,4638 4074,4500 4194,4362 4306,4256 4396,4191 4487,4126 4555,4105 4592,4130 4629,4156 4635,4226 4608,4335 4582,4444 4524,4587 4441,4750 4358,4913 4253,5090 4136,5264 4018,5438 3893,5602 3773,5739 3653,5877 3542,5984 3451,6049 3360,6114 3292,6134 3255,6109 L 3255,6109 Z"/>
       </g>
      </g>
      <g class="com.sun.star.drawing.CustomShape">
       <g id="id19">
        <rect class="BoundingBox" stroke="none" fill="none" x="3513" y="4298" width="1168" height="2149"/>
        <path fill="rgb(255,255,255)" stroke="none" d="M 3560,6440 C 3520,6419 3505,6350 3517,6239 3530,6128 3568,5979 3630,5806 3691,5634 3773,5444 3867,5257 3961,5070 4064,4891 4166,4739 4268,4587 4364,4466 4446,4390 4528,4314 4592,4285 4632,4305 4673,4325 4687,4394 4675,4505 4663,4617 4624,4766 4563,4938 4502,5111 4420,5300 4326,5487 4231,5675 4128,5853 4027,6006 3925,6158 3829,6278 3747,6354 3665,6430 3600,6460 3560,6440 L 3560,6440 Z"/>
       </g>
      </g>
      <g class="com.sun.star.drawing.CustomShape">
       <g id="id20">
        <rect class="BoundingBox" stroke="none" fill="none" x="3859" y="4463" width="966" height="2247"/>
        <path fill="rgb(255,255,255)" stroke="none" d="M 3923,6705 C 3881,6690 3859,6623 3859,6511 3859,6399 3882,6247 3925,6069 3967,5891 4028,5694 4102,5497 4175,5301 4259,5112 4343,4949 4428,4787 4511,4657 4584,4572 4657,4487 4718,4451 4760,4467 4802,4482 4824,4549 4824,4661 4824,4773 4801,4925 4758,5103 4716,5281 4655,5478 4581,5674 4508,5871 4424,6060 4340,6222 4255,6385 4172,6515 4099,6599 4026,6684 3965,6721 3923,6705 L 3923,6705 Z"/>
       </g>
      </g>
      <g class="com.sun.star.drawing.CustomShape">
       <g id="id21">
        <rect class="BoundingBox" stroke="none" fill="none" x="4263" y="4316" width="745" height="2599"/>
        <path fill="rgb(255,255,255)" stroke="none" d="M 4361,6912 C 4317,6903 4287,6834 4273,6712 4259,6590 4262,6419 4281,6217 4301,6016 4337,5789 4385,5562 4433,5334 4491,5113 4555,4920 4619,4728 4685,4570 4747,4465 4809,4359 4865,4308 4909,4318 4953,4327 4983,4396 4997,4518 5011,4640 5008,4811 4989,5013 4969,5214 4933,5441 4885,5668 4837,5896 4779,6117 4715,6310 4651,6502 4585,6660 4523,6765 4461,6871 4405,6922 4361,6912 L 4361,6912 Z"/>
       </g>
      </g>
      <g class="com.sun.star.drawing.CustomShape">
       <g id="id22">
        <rect class="BoundingBox" stroke="none" fill="none" x="4635" y="4424" width="567" height="2641"/>
        <path fill="rgb(255,255,255)" stroke="none" d="M 4795,7063 C 4751,7059 4712,6994 4684,6874 4656,6755 4640,6585 4636,6382 4632,6180 4642,5951 4663,5719 4685,5488 4718,5261 4759,5063 4800,4865 4847,4701 4897,4589 4946,4477 4996,4420 5041,4425 5085,4429 5124,4494 5152,4614 5180,4733 5196,4903 5200,5106 5204,5308 5194,5537 5173,5769 5151,6000 5118,6227 5077,6425 5036,6623 4989,6787 4939,6899 4890,7011 4840,7068 4795,7063 L 4795,7063 Z"/>
       </g>
      </g>
      <g class="com.sun.star.drawing.CustomShape">
       <g id="id23">
        <rect class="BoundingBox" stroke="none" fill="none" x="4983" y="4307" width="514" height="2889"/>
        <path fill="rgb(255,255,255)" stroke="none" d="M 5248,7195 C 5203,7195 5158,7129 5119,7002 5079,6876 5046,6694 5022,6474 4999,6255 4985,6006 4984,5752 4983,5499 4993,5250 5014,5030 5035,4811 5067,4628 5105,4501 5143,4374 5187,4307 5231,4307 5276,4307 5321,4373 5360,4500 5400,4626 5433,4808 5457,5028 5480,5247 5494,5496 5495,5750 5496,6003 5486,6252 5465,6472 5444,6691 5412,6874 5374,7001 5336,7128 5292,7195 5248,7195 L 5248,7195 Z"/>
       </g>
      </g>
      <g class="com.sun.star.drawing.CustomShape">
       <g id="id24">
        <rect class="BoundingBox" stroke="none" fill="none" x="5315" y="4405" width="560" height="2880"/>
        <path fill="rgb(255,255,255)" stroke="none" d="M 5705,7284 C 5660,7287 5610,7224 5562,7101 5513,6978 5467,6799 5427,6582 5388,6365 5357,6117 5338,5865 5318,5612 5311,5363 5317,5142 5323,4922 5341,4738 5370,4608 5399,4479 5439,4409 5484,4405 5529,4402 5578,4465 5626,4588 5675,4711 5721,4890 5761,5107 5800,5324 5831,5572 5850,5824 5870,6077 5877,6326 5871,6547 5865,6767 5847,6951 5818,7081 5789,7210 5750,7280 5705,7284 L 5705,7284 Z"/>
       </g>
      </g>
      <g class="com.sun.star.drawing.CustomShape">
       <g id="id25">
        <rect class="BoundingBox" stroke="none" fill="none" x="5455" y="4540" width="849" height="2814"/>
        <path fill="rgb(255,255,255)" stroke="none" d="M 6221,7351 C 6177,7362 6118,7307 6051,7193 5983,7079 5908,6910 5834,6701 5760,6493 5690,6254 5629,6007 5569,5761 5522,5516 5492,5297 5461,5078 5450,4893 5458,4761 5465,4628 5493,4553 5536,4542 5580,4532 5639,4586 5707,4700 5775,4814 5849,4984 5923,5192 5997,5400 6068,5639 6128,5886 6188,6132 6235,6377 6266,6596 6296,6815 6308,7000 6300,7132 6292,7265 6265,7340 6221,7351 L 6221,7351 Z"/>
       </g>
      </g>
      <g class="com.sun.star.drawing.CustomShape">
       <g id="id26">
        <rect class="BoundingBox" stroke="none" fill="none" x="5489" y="4638" width="1333" height="2639"/>
        <path fill="rgb(255,255,255)" stroke="none" d="M 6760,7269 C 6712,7292 6636,7253 6541,7157 6445,7061 6334,6912 6218,6723 6101,6535 5984,6315 5878,6084 5772,5854 5680,5622 5612,5411 5545,5201 5503,5019 5492,4884 5481,4750 5501,4667 5550,4645 5598,4622 5674,4661 5769,4757 5865,4853 5976,5002 6092,5191 6209,5379 6326,5599 6432,5830 6538,6060 6630,6292 6698,6503 6765,6713 6807,6895 6818,7030 6829,7164 6809,7247 6760,7269 L 6760,7269 Z"/>
       </g>
      </g>
      <g class="com.sun.star.drawing.CustomShape">
       <g id="id27">
        <rect class="BoundingBox" stroke="none" fill="none" x="5483" y="5090" width="2049" height="2132"/>
        <path fill="rgb(255,255,255)" stroke="none" d="M 7506,7200 C 7468,7237 7384,7225 7262,7165 7141,7106 6987,7000 6816,6860 6645,6720 6462,6549 6287,6366 6111,6183 5949,5993 5816,5816 5684,5638 5586,5480 5531,5356 5477,5233 5469,5148 5508,5111 5546,5074 5630,5086 5752,5146 5873,5206 6027,5311 6198,5452 6369,5592 6552,5762 6727,5946 6903,6129 7065,6319 7197,6496 7330,6673 7428,6831 7483,6955 7537,7079 7545,7163 7506,7200 L 7506,7200 Z"/>
       </g>
      </g>
      <g class="com.sun.star.drawing.CustomShape">
       <g id="id28">
        <rect class="BoundingBox" stroke="none" fill="none" x="5733" y="5026" width="2258" height="1909"/>
        <path fill="rgb(255,255,255)" stroke="none" d="M 7972,6905 C 7938,6946 7854,6943 7726,6898 7599,6852 7435,6765 7249,6645 7063,6526 6862,6377 6667,6215 6472,6053 6290,5882 6138,5721 5986,5560 5870,5414 5802,5297 5735,5180 5717,5097 5751,5056 5785,5015 5870,5017 5997,5063 6124,5108 6289,5195 6475,5315 6661,5435 6861,5584 7056,5746 7251,5908 7434,6078 7585,6239 7737,6401 7853,6547 7921,6664 7989,6780 8007,6863 7972,6905 L 7972,6905 Z"/>
       </g>
      </g>
      <g class="com.sun.star.drawing.CustomShape">
       <g id="id29">
        <rect class="BoundingBox" stroke="none" fill="none" x="5699" y="3125" width="1103" height="477"/>
        <path fill="rgb(255,245,206)" stroke="none" d="M 6801,3363 C 6801,3405 6776,3446 6727,3482 6679,3518 6609,3548 6526,3569 6442,3590 6347,3601 6250,3601 6154,3601 6059,3590 5975,3569 5892,3548 5822,3518 5774,3482 5725,3446 5700,3405 5700,3363 5700,3322 5725,3281 5774,3245 5822,3209 5892,3179 5975,3158 6059,3137 6154,3126 6250,3126 6347,3126 6442,3137 6526,3158 6609,3179 6679,3209 6727,3245 6776,3281 6801,3322 6801,3363 L 6801,3363 Z"/>
       </g>
      </g>
      <g class="com.sun.star.drawing.CustomShape">
       <g id="id30">
        <rect class="BoundingBox" stroke="none" fill="none" x="6318" y="3422" width="312" height="313"/>
        <path fill="rgb(0,0,0)" stroke="none" d="M 6345,3578 C 6345,3601 6351,3623 6362,3643 6373,3662 6390,3678 6409,3690 6429,3701 6451,3707 6474,3707 6496,3707 6518,3701 6538,3690 6557,3678 6574,3662 6585,3643 6596,3623 6602,3601 6602,3578 6602,3555 6596,3533 6585,3514 6574,3494 6557,3478 6538,3466 6518,3455 6496,3449 6474,3449 6451,3449 6429,3455 6409,3466 6390,3478 6373,3494 6362,3514 6351,3533 6345,3555 6345,3578 L 6345,3578 Z"/>
        <path fill="none" stroke="rgb(255,56,56)" stroke-width="53" stroke-linejoin="round" d="M 6345,3578 C 6345,3601 6351,3623 6362,3643 6373,3662 6390,3678 6409,3690 6429,3701 6451,3707 6474,3707 6496,3707 6518,3701 6538,3690 6557,3678 6574,3662 6585,3643 6596,3623 6602,3601 6602,3578 6602,3555 6596,3533 6585,3514 6574,3494 6557,3478 6538,3466 6518,3455 6496,3449 6474,3449 6451,3449 6429,3455 6409,3466 6390,3478 6373,3494 6362,3514 6351,3533 6345,3555 6345,3578 Z"/>
       </g>
      </g>
      <g class="com.sun.star.drawing.PolyPolygonShape">
       <g id="id31">
        <rect class="BoundingBox" stroke="none" fill="none" x="6582" y="3460" width="857" height="644"/>
        <path fill="rgb(255,166,166)" stroke="none" d="M 7010,3461 L 7438,4103 6582,4103 6582,3996 6582,3889 6796,3782 6796,3568 6689,3461 7010,3461 Z"/>
       </g>
      </g>
      <g class="com.sun.star.drawing.LineShape">
       <g id="id32">
        <rect class="BoundingBox" stroke="none" fill="none" x="6777" y="3764" width="679" height="358"/>
        <path fill="none" stroke="rgb(255,255,255)" stroke-width="35" stroke-linejoin="round" d="M 6795,3782 L 7437,4103"/>
       </g>
      </g>
      <g class="com.sun.star.drawing.CustomShape">
       <g id="id33">
        <rect class="BoundingBox" stroke="none" fill="none" x="1736" y="3399" width="2823" height="2013"/>
        <path fill="rgb(255,255,255)" stroke="none" d="M 4549,3423 C 4576,3461 4537,3544 4437,3663 4337,3782 4179,3933 3979,4102 3779,4270 3544,4449 3298,4622 3052,4794 2803,4953 2577,5084 2350,5214 2154,5310 2008,5364 1862,5417 1771,5425 1745,5387 1718,5349 1757,5266 1857,5147 1957,5028 2115,4877 2315,4708 2515,4540 2750,4361 2996,4188 3242,4016 3491,3857 3717,3726 3944,3596 4140,3500 4286,3446 4432,3393 4523,3385 4549,3423 L 4549,3423 Z"/>
       </g>
      </g>
     </g>
    </g>
   </g>
  </g>
 </g>
</svg>