<?xml version="1.0" encoding="UTF-8"?>
<!DOCTYPE svg PUBLIC "-//W3C//DTD SVG 1.1//EN" "http://www.w3.org/Graphics/SVG/1.1/DTD/svg11.dtd">
<svg version="1.2" width="72mm" height="72mm" viewBox="0 0 7200 7200" preserveAspectRatio="xMidYMid" fill-rule="evenodd" stroke-width="28.222" stroke-linejoin="round" xmlns="http://www.w3.org/2000/svg" xmlns:ooo="http://xml.openoffice.org/svg/export" xmlns:xlink="http://www.w3.org/1999/xlink" xmlns:presentation="http://sun.com/xmlns/staroffice/presentation" xmlns:smil="http://www.w3.org/2001/SMIL20/" xmlns:anim="urn:oasis:names:tc:opendocument:xmlns:animation:1.0" xml:space="preserve">
 <defs class="ClipPathGroup">
  <clipPath id="presentation_clip_path" clipPathUnits="userSpaceOnUse">
   <rect x="0" y="0" width="7200" height="7200"/>
  </clipPath>
  <clipPath id="presentation_clip_path_shrink" clipPathUnits="userSpaceOnUse">
   <rect x="7" y="7" width="7186" height="7186"/>
  </clipPath>
 </defs>
 <defs class="TextShapeIndex">
  <g ooo:slide="id1" ooo:id-list="id3 id4 id5 id6 id7 id8 id9 id10 id11 id12 id13 id14 id15 id16 id17 id18 id19 id20 id21 id22 id23 id24 id25 id26 id27 id28 id29 id30 id31 id32 id33 id34 id35 id36 id37 id38"/>
 </defs>
 <defs class="EmbeddedBulletChars">
  <g id="bullet-char-template-57356" transform="scale(0.00048828125,-0.00048828125)">
   <path d="M 580,1141 L 1163,571 580,0 -4,571 580,1141 Z"/>
  </g>
  <g id="bullet-char-template-57354" transform="scale(0.00048828125,-0.00048828125)">
   <path d="M 8,1128 L 1137,1128 1137,0 8,0 8,1128 Z"/>
  </g>
  <g id="bullet-char-template-10146" transform="scale(0.00048828125,-0.00048828125)">
   <path d="M 174,0 L 602,739 174,1481 1456,739 174,0 Z M 1358,739 L 309,1346 659,739 1358,739 Z"/>
  </g>
  <g id="bullet-char-template-10132" transform="scale(0.00048828125,-0.00048828125)">
   <path d="M 2015,739 L 1276,0 717,0 1260,543 174,543 174,936 1260,936 717,1481 1274,1481 2015,739 Z"/>
  </g>
  <g id="bullet-char-template-10007" transform="scale(0.00048828125,-0.00048828125)">
   <path d="M 0,-2 C -7,14 -16,27 -25,37 L 356,567 C 262,823 215,952 215,954 215,979 228,992 255,992 264,992 276,990 289,987 310,991 331,999 354,1012 L 381,999 492,748 772,1049 836,1024 860,1049 C 881,1039 901,1025 922,1006 886,937 835,863 770,784 769,783 710,716 594,584 L 774,223 C 774,196 753,168 711,139 L 727,119 C 717,90 699,76 672,76 641,76 570,178 457,381 L 164,-76 C 142,-110 111,-127 72,-127 30,-127 9,-110 8,-76 1,-67 -2,-52 -2,-32 -2,-23 -1,-13 0,-2 Z"/>
  </g>
  <g id="bullet-char-template-10004" transform="scale(0.00048828125,-0.00048828125)">
   <path d="M 285,-33 C 182,-33 111,30 74,156 52,228 41,333 41,471 41,549 55,616 82,672 116,743 169,778 240,778 293,778 328,747 346,684 L 369,508 C 377,444 397,411 428,410 L 1163,1116 C 1174,1127 1196,1133 1229,1133 1271,1133 1292,1118 1292,1087 L 1292,965 C 1292,929 1282,901 1262,881 L 442,47 C 390,-6 338,-33 285,-33 Z"/>
  </g>
  <g id="bullet-char-template-9679" transform="scale(0.00048828125,-0.00048828125)">
   <path d="M 813,0 C 632,0 489,54 383,161 276,268 223,411 223,592 223,773 276,916 383,1023 489,1130 632,1184 813,1184 992,1184 1136,1130 1245,1023 1353,916 1407,772 1407,592 1407,412 1353,268 1245,161 1136,54 992,0 813,0 Z"/>
  </g>
  <g id="bullet-char-template-8226" transform="scale(0.00048828125,-0.00048828125)">
   <path d="M 346,457 C 273,457 209,483 155,535 101,586 74,649 74,723 74,796 101,859 155,911 209,963 273,989 346,989 419,989 480,963 531,910 582,859 608,796 608,723 608,648 583,586 532,535 482,483 420,457 346,457 Z"/>
  </g>
  <g id="bullet-char-template-8211" transform="scale(0.00048828125,-0.00048828125)">
   <path d="M -4,459 L 1135,459 1135,606 -4,606 -4,459 Z"/>
  </g>
  <g id="bullet-char-template-61548" transform="scale(0.00048828125,-0.00048828125)">
   <path d="M 173,740 C 173,903 231,1043 346,1159 462,1274 601,1332 765,1332 928,1332 1067,1274 1183,1159 1299,1043 1357,903 1357,740 1357,577 1299,437 1183,322 1067,206 928,148 765,148 601,148 462,206 346,322 231,437 173,577 173,740 Z"/>
  </g>
 </defs>
 <defs class="TextEmbeddedBitmaps"/>
 <g>
  <g id="id2" class="Master_Slide">
   <g id="bg-id2" class="Background"/>
   <g id="bo-id2" class="BackgroundObjects"/>
  </g>
 </g>
 <g class="SlideGroup">
  <g>
   <g id="container-id1">
    <g id="id1" class="Slide" clip-path="url(#presentation_clip_path)">
     <g class="Page">
      <g class="com.sun.star.drawing.CustomShape">
       <g id="id3">
        <rect class="BoundingBox" stroke="none" fill="none" x="2533" y="417" width="2532" height="2587"/>
        <path fill="rgb(53,82,105)" stroke="none" d="M 4457,582 C 4656,698 4797,844 4909,1049 5020,1253 5069,1454 5063,1692 5057,1930 5000,2133 4878,2341 4757,2548 4609,2698 4404,2820 4200,2942 4001,2999 3768,3002 3535,3005 3339,2954 3140,2838 2941,2722 2800,2576 2688,2372 2577,2167 2528,1966 2534,1728 2540,1490 2597,1287 2719,1080 2840,872 2988,722 3193,600 3397,478 3596,421 3829,418 4062,415 4258,466 4457,582 L 4457,582 Z"/>
       </g>
      </g>
      <g class="com.sun.star.drawing.LineShape">
       <g id="id4">
        <rect class="BoundingBox" stroke="none" fill="none" x="3801" y="2559" width="464" height="1555"/>
        <path fill="none" stroke="rgb(221,221,221)" stroke-width="53" stroke-linejoin="round" d="M 4237,2586 L 3828,4086"/>
       </g>
      </g>
      <g class="com.sun.star.drawing.LineShape">
       <g id="id5">
        <rect class="BoundingBox" stroke="none" fill="none" x="4573" y="1573" width="355" height="1455"/>
        <path fill="none" stroke="rgb(221,221,221)" stroke-width="53" stroke-linejoin="round" d="M 4600,1600 L 4900,3000"/>
       </g>
      </g>
      <g class="com.sun.star.drawing.LineShape">
       <g id="id6">
        <rect class="BoundingBox" stroke="none" fill="none" x="4573" y="1573" width="455" height="1455"/>
        <path fill="none" stroke="rgb(221,221,221)" stroke-width="53" stroke-linejoin="round" d="M 4600,1600 L 5000,3000"/>
       </g>
      </g>
      <g class="com.sun.star.drawing.LineShape">
       <g id="id7">
        <rect class="BoundingBox" stroke="none" fill="none" x="4573" y="1673" width="255" height="1655"/>
        <path fill="none" stroke="rgb(221,221,221)" stroke-width="53" stroke-linejoin="round" d="M 4600,1700 L 4800,3300"/>
       </g>
      </g>
      <g class="com.sun.star.drawing.LineShape">
       <g id="id8">
        <rect class="BoundingBox" stroke="none" fill="none" x="4573" y="1673" width="55" height="1655"/>
        <path fill="none" stroke="rgb(221,221,221)" stroke-width="53" stroke-linejoin="round" d="M 4600,1700 L 4600,3300"/>
       </g>
      </g>
      <g class="com.sun.star.drawing.LineShape">
       <g id="id9">
        <rect class="BoundingBox" stroke="none" fill="none" x="4373" y="1673" width="255" height="2255"/>
        <path fill="none" stroke="rgb(221,221,221)" stroke-width="53" stroke-linejoin="round" d="M 4600,1700 L 4400,3900"/>
       </g>
      </g>
      <g class="com.sun.star.drawing.LineShape">
       <g id="id10">
        <rect class="BoundingBox" stroke="none" fill="none" x="4173" y="2407" width="255" height="1521"/>
        <path fill="none" stroke="rgb(221,221,221)" stroke-width="53" stroke-linejoin="round" d="M 4400,2434 L 4200,3900"/>
       </g>
      </g>
      <g class="com.sun.star.drawing.LineShape">
       <g id="id11">
        <rect class="BoundingBox" stroke="none" fill="none" x="4273" y="1673" width="255" height="2255"/>
        <path fill="none" stroke="rgb(221,221,221)" stroke-width="53" stroke-linejoin="round" d="M 4500,1700 L 4300,3900"/>
       </g>
      </g>
      <g class="com.sun.star.drawing.LineShape">
       <g id="id12">
        <rect class="BoundingBox" stroke="none" fill="none" x="4073" y="1673" width="355" height="2255"/>
        <path fill="none" stroke="rgb(221,221,221)" stroke-width="53" stroke-linejoin="round" d="M 4400,1700 L 4100,3900"/>
       </g>
      </g>
      <g class="com.sun.star.drawing.LineShape">
       <g id="id13">
        <rect class="BoundingBox" stroke="none" fill="none" x="3955" y="2223" width="373" height="1805"/>
        <path fill="none" stroke="rgb(221,221,221)" stroke-width="53" stroke-linejoin="round" d="M 4300,2250 L 3982,4000"/>
       </g>
      </g>
      <g class="com.sun.star.drawing.LineShape">
       <g id="id14">
        <rect class="BoundingBox" stroke="none" fill="none" x="4473" y="1673" width="155" height="1955"/>
        <path fill="none" stroke="rgb(221,221,221)" stroke-width="53" stroke-linejoin="round" d="M 4600,1700 L 4500,3600"/>
       </g>
      </g>
      <g class="com.sun.star.drawing.LineShape">
       <g id="id15">
        <rect class="BoundingBox" stroke="none" fill="none" x="4573" y="1673" width="155" height="1655"/>
        <path fill="none" stroke="rgb(221,221,221)" stroke-width="53" stroke-linejoin="round" d="M 4600,1700 L 4700,3300"/>
       </g>
      </g>
      <g class="com.sun.star.drawing.LineShape">
       <g id="id16">
        <rect class="BoundingBox" stroke="none" fill="none" x="2420" y="4720" width="161" height="2261"/>
        <path fill="none" stroke="rgb(255,215,215)" stroke-width="159" stroke-linejoin="round" d="M 2500,4800 L 2500,6900"/>
       </g>
      </g>
      <g class="com.sun.star.drawing.LineShape">
       <g id="id17">
        <rect class="BoundingBox" stroke="none" fill="none" x="2820" y="4320" width="161" height="2261"/>
        <path fill="none" stroke="rgb(255,215,215)" stroke-width="159" stroke-linejoin="round" d="M 2900,4400 L 2900,6500"/>
       </g>
      </g>
      <g class="com.sun.star.drawing.CustomShape">
       <g id="id18">
        <rect class="BoundingBox" stroke="none" fill="none" x="1024" y="2449" width="1039" height="2662"/>
        <path fill="rgb(53,82,105)" stroke="none" d="M 1839,2454 C 1917,2471 1971,2542 2012,2679 2053,2816 2067,2979 2059,3199 2051,3419 2023,3631 1969,3875 1914,4119 1850,4322 1764,4525 1677,4728 1595,4869 1500,4976 1404,5082 1325,5123 1247,5106 1169,5088 1115,5018 1074,4881 1033,4743 1019,4581 1027,4360 1035,4140 1063,3929 1117,3685 1172,3441 1236,3237 1322,3035 1409,2832 1491,2691 1587,2584 1682,2477 1761,2436 1839,2454 L 1839,2454 Z"/>
       </g>
      </g>
      <g class="com.sun.star.drawing.CustomShape">
       <g id="id19">
        <rect class="BoundingBox" stroke="none" fill="none" x="2497" y="363" width="2532" height="2587"/>
        <path fill="rgb(238,238,238)" stroke="none" d="M 4421,528 C 4620,644 4761,790 4873,995 4984,1199 5033,1400 5027,1638 5021,1876 4964,2079 4842,2287 4721,2494 4573,2644 4368,2766 4164,2888 3965,2945 3732,2948 3499,2951 3303,2900 3104,2784 2905,2668 2764,2522 2652,2318 2541,2113 2492,1912 2498,1674 2504,1436 2561,1233 2683,1026 2804,818 2952,668 3157,546 3361,424 3560,367 3793,364 4026,361 4222,412 4421,528 L 4421,528 Z"/>
       </g>
      </g>
      <g class="com.sun.star.drawing.CustomShape">
       <g id="id20">
        <rect class="BoundingBox" stroke="none" fill="none" x="3099" y="97" width="1802" height="1091"/>
        <path fill="rgb(238,238,238)" stroke="none" d="M 3999,98 C 4164,98 4305,120 4449,170 4592,219 4696,281 4779,368 4862,454 4900,539 4900,640 4900,740 4863,825 4780,912 4698,999 4595,1061 4451,1112 4308,1162 4167,1186 4001,1186 3836,1186 3695,1164 3551,1114 3408,1065 3304,1003 3221,916 3138,830 3100,745 3100,644 3100,544 3137,459 3220,372 3302,285 3405,223 3549,172 3692,122 3833,98 3999,98 L 3999,98 Z"/>
       </g>
      </g>
      <g class="com.sun.star.drawing.CustomShape">
       <g id="id21">
        <rect class="BoundingBox" stroke="none" fill="none" x="1215" y="1117" width="2997" height="3767"/>
        <path fill="rgb(53,82,105)" stroke="none" d="M 3747,1229 C 3946,1345 4071,1518 4148,1782 4225,2045 4231,2320 4165,2661 4100,3001 3983,3305 3793,3631 3603,3957 3395,4207 3131,4431 2867,4656 2625,4786 2358,4849 2090,4911 1878,4887 1679,4771 1480,4655 1355,4482 1278,4218 1201,3955 1195,3680 1261,3339 1326,2999 1443,2695 1633,2369 1823,2043 2031,1793 2295,1569 2559,1344 2801,1214 3068,1151 3336,1089 3548,1113 3747,1229 L 3747,1229 Z"/>
       </g>
      </g>
      <g class="com.sun.star.drawing.CustomShape">
       <g id="id22">
        <rect class="BoundingBox" stroke="none" fill="none" x="1015" y="917" width="2997" height="3767"/>
        <path fill="rgb(222,230,239)" stroke="none" d="M 3547,1029 C 3746,1145 3871,1318 3948,1582 4025,1845 4031,2120 3965,2461 3900,2801 3783,3105 3593,3431 3403,3757 3195,4007 2931,4231 2667,4456 2425,4586 2158,4649 1890,4711 1678,4687 1479,4571 1280,4455 1155,4282 1078,4018 1001,3755 995,3480 1061,3139 1126,2799 1243,2495 1433,2169 1623,1843 1831,1593 2095,1369 2359,1144 2601,1014 2868,951 3136,889 3348,913 3547,1029 L 3547,1029 Z"/>
       </g>
      </g>
      <g class="com.sun.star.drawing.CustomShape">
       <g id="id23">
        <rect class="BoundingBox" stroke="none" fill="none" x="2725" y="1015" width="1234" height="1089"/>
        <path fill="rgb(53,82,105)" stroke="none" d="M 3595,1126 C 3698,1186 3775,1255 3841,1347 3907,1440 3943,1527 3954,1626 3965,1725 3949,1807 3902,1887 3856,1966 3793,2021 3701,2060 3609,2098 3515,2111 3403,2098 3290,2086 3192,2053 3088,1993 2985,1932 2908,1863 2842,1771 2776,1679 2740,1592 2729,1492 2718,1393 2734,1311 2781,1232 2827,1152 2890,1098 2982,1059 3074,1020 3168,1008 3280,1020 3393,1032 3491,1065 3595,1126 L 3595,1126 Z"/>
       </g>
      </g>
      <g class="com.sun.star.drawing.PolyPolygonShape">
       <g id="id24">
        <rect class="BoundingBox" stroke="none" fill="none" x="4460" y="455" width="1613" height="216"/>
        <path fill="rgb(255,170,149)" stroke="none" d="M 4726,455 L 5716,492 6072,588 4490,669 4461,659 4726,455 Z"/>
       </g>
      </g>
      <g class="com.sun.star.drawing.CustomShape">
       <g id="id25">
        <rect class="BoundingBox" stroke="none" fill="none" x="4261" y="364" width="255" height="255"/>
        <path fill="rgb(0,0,0)" stroke="none" d="M 4388,391 C 4406,391 4422,395 4438,404 4454,414 4465,425 4475,441 4484,457 4488,473 4488,491 4488,509 4484,525 4475,541 4465,557 4454,568 4438,578 4422,587 4406,591 4388,591 4370,591 4354,587 4338,578 4322,568 4311,557 4301,541 4292,525 4288,509 4288,491 4288,473 4292,457 4301,441 4311,425 4322,414 4338,404 4354,395 4370,391 4388,391 L 4388,391 Z"/>
        <path fill="none" stroke="rgb(255,191,0)" stroke-width="53" stroke-linejoin="round" d="M 4388,391 C 4406,391 4422,395 4438,404 4454,414 4465,425 4475,441 4484,457 4488,473 4488,491 4488,509 4484,525 4475,541 4465,557 4454,568 4438,578 4422,587 4406,591 4388,591 4370,591 4354,587 4338,578 4322,568 4311,557 4301,541 4292,525 4288,509 4288,491 4288,473 4292,457 4301,441 4311,425 4322,414 4338,404 4354,395 4370,391 4388,391 Z"/>
       </g>
      </g>
      <g class="com.sun.star.drawing.CustomShape">
       <g id="id26">
        <rect class="BoundingBox" stroke="none" fill="none" x="3300" y="74" width="1095" height="337"/>
        <path fill="rgb(53,82,105)" stroke="none" d="M 3835,79 C 3936,72 4022,73 4110,82 4198,90 4262,104 4314,127 4367,149 4391,173 4394,203 4396,233 4375,260 4326,289 4278,319 4216,342 4130,363 4044,384 3959,397 3859,405 3758,412 3672,411 3584,403 3496,394 3432,380 3379,358 3327,335 3303,311 3300,282 3298,252 3319,225 3368,195 3416,165 3477,142 3563,121 3650,100 3735,87 3835,79 L 3835,79 Z"/>
       </g>
      </g>
      <g class="com.sun.star.drawing.CustomShape">
       <g id="id27">
        <rect class="BoundingBox" stroke="none" fill="none" x="925" y="2349" width="1039" height="2662"/>
        <path fill="rgb(222,230,239)" stroke="none" d="M 1740,2354 C 1818,2371 1872,2442 1913,2579 1954,2716 1968,2879 1960,3099 1952,3319 1924,3531 1870,3775 1815,4019 1751,4222 1665,4425 1578,4628 1496,4769 1401,4876 1305,4982 1226,5023 1148,5006 1070,4988 1016,4918 975,4781 934,4643 920,4481 928,4260 936,4040 964,3829 1018,3585 1073,3341 1137,3137 1223,2935 1310,2732 1392,2591 1488,2484 1583,2377 1662,2336 1740,2354 L 1740,2354 Z"/>
       </g>
      </g>
      <g class="com.sun.star.drawing.LineShape">
       <g id="id28">
        <rect class="BoundingBox" stroke="none" fill="none" x="2773" y="6320" width="808" height="185"/>
        <path fill="none" stroke="rgb(255,215,215)" stroke-width="159" stroke-linejoin="round" d="M 2853,6400 L 3500,6424"/>
       </g>
      </g>
      <g class="com.sun.star.drawing.LineShape">
       <g id="id29">
        <rect class="BoundingBox" stroke="none" fill="none" x="2774" y="6320" width="707" height="461"/>
        <path fill="none" stroke="rgb(255,215,215)" stroke-width="159" stroke-linejoin="round" d="M 2854,6400 L 3400,6700"/>
       </g>
      </g>
      <g class="com.sun.star.drawing.LineShape">
       <g id="id30">
        <rect class="BoundingBox" stroke="none" fill="none" x="2759" y="6120" width="822" height="298"/>
        <path fill="none" stroke="rgb(255,215,215)" stroke-width="159" stroke-linejoin="round" d="M 2839,6337 L 3500,6200"/>
       </g>
      </g>
      <g class="com.sun.star.drawing.LineShape">
       <g id="id31">
        <rect class="BoundingBox" stroke="none" fill="none" x="2374" y="6720" width="808" height="185"/>
        <path fill="none" stroke="rgb(255,215,215)" stroke-width="159" stroke-linejoin="round" d="M 2454,6800 L 3101,6824"/>
       </g>
      </g>
      <g class="com.sun.star.drawing.LineShape">
       <g id="id32">
        <rect class="BoundingBox" stroke="none" fill="none" x="2375" y="6720" width="707" height="461"/>
        <path fill="none" stroke="rgb(255,215,215)" stroke-width="159" stroke-linejoin="round" d="M 2455,6800 L 3001,7100"/>
       </g>
      </g>
      <g class="com.sun.star.drawing.LineShape">
       <g id="id33">
        <rect class="BoundingBox" stroke="none" fill="none" x="2360" y="6520" width="822" height="298"/>
        <path fill="none" stroke="rgb(255,215,215)" stroke-width="159" stroke-linejoin="round" d="M 2440,6737 L 3101,6600"/>
       </g>
      </g>
      <g class="com.sun.star.drawing.LineShape">
       <g id="id34">
        <rect class="BoundingBox" stroke="none" fill="none" x="1775" y="6720" width="806" height="261"/>
        <path fill="none" stroke="rgb(255,215,215)" stroke-width="159" stroke-linejoin="round" d="M 1855,6900 L 2500,6800"/>
       </g>
      </g>
      <g class="com.sun.star.drawing.LineShape">
       <g id="id35">
        <rect class="BoundingBox" stroke="none" fill="none" x="2176" y="6320" width="806" height="261"/>
        <path fill="none" stroke="rgb(255,215,215)" stroke-width="159" stroke-linejoin="round" d="M 2256,6500 L 2901,6400"/>
       </g>
      </g>
      <g class="com.sun.star.drawing.LineShape">
       <g id="id36">
        <rect class="BoundingBox" stroke="none" fill="none" x="2515" y="158" width="1033" height="227"/>
        <path fill="none" stroke="rgb(53,82,105)" stroke-width="53" stroke-linejoin="round" d="M 3520,185 L 2542,357"/>
       </g>
      </g>
      <g class="com.sun.star.drawing.LineShape">
       <g id="id37">
        <rect class="BoundingBox" stroke="none" fill="none" x="2408" y="181" width="1135" height="344"/>
        <path fill="none" stroke="rgb(53,82,105)" stroke-width="53" stroke-linejoin="round" d="M 3515,208 L 2435,497"/>
       </g>
      </g>
      <g class="com.sun.star.drawing.LineShape">
       <g id="id38">
        <rect class="BoundingBox" stroke="none" fill="none" x="2525" y="181" width="1019" height="446"/>
        <path fill="none" stroke="rgb(53,82,105)" stroke-width="53" stroke-linejoin="round" d="M 3516,208 L 2552,599"/>
       </g>
      </g>
     </g>
    </g>
   </g>
  </g>
 </g>
</svg>