<?xml version="1.0" encoding="UTF-8"?>
<!DOCTYPE svg PUBLIC "-//W3C//DTD SVG 1.1//EN" "http://www.w3.org/Graphics/SVG/1.1/DTD/svg11.dtd">
<svg version="1.2" width="70.35mm" height="47.17mm" viewBox="79 1398 7035 4717" preserveAspectRatio="xMidYMid" fill-rule="evenodd" stroke-width="28.222" stroke-linejoin="round" xmlns="http://www.w3.org/2000/svg" xmlns:ooo="http://xml.openoffice.org/svg/export" xmlns:xlink="http://www.w3.org/1999/xlink" xmlns:presentation="http://sun.com/xmlns/staroffice/presentation" xmlns:smil="http://www.w3.org/2001/SMIL20/" xmlns:anim="urn:oasis:names:tc:opendocument:xmlns:animation:1.0" xml:space="preserve">
 <defs class="ClipPathGroup">
  <clipPath id="presentation_clip_path" clipPathUnits="userSpaceOnUse">
   <rect x="79" y="1398" width="7035" height="4717"/>
  </clipPath>
  <clipPath id="presentation_clip_path_shrink" clipPathUnits="userSpaceOnUse">
   <rect x="86" y="1402" width="7021" height="4708"/>
  </clipPath>
 </defs>
 <defs class="TextShapeIndex">
  <g ooo:slide="id1" ooo:id-list="id3 id4 id5 id6 id7 id8 id9 id10"/>
 </defs>
 <defs class="EmbeddedBulletChars">
  <g id="bullet-char-template-57356" transform="scale(0.00048828125,-0.00048828125)">
   <path d="M 580,1141 L 1163,571 580,0 -4,571 580,1141 Z"/>
  </g>
  <g id="bullet-char-template-57354" transform="scale(0.00048828125,-0.00048828125)">
   <path d="M 8,1128 L 1137,1128 1137,0 8,0 8,1128 Z"/>
  </g>
  <g id="bullet-char-template-10146" transform="scale(0.00048828125,-0.00048828125)">
   <path d="M 174,0 L 602,739 174,1481 1456,739 174,0 Z M 1358,739 L 309,1346 659,739 1358,739 Z"/>
  </g>
  <g id="bullet-char-template-10132" transform="scale(0.00048828125,-0.00048828125)">
   <path d="M 2015,739 L 1276,0 717,0 1260,543 174,543 174,936 1260,936 717,1481 1274,1481 2015,739 Z"/>
  </g>
  <g id="bullet-char-template-10007" transform="scale(0.00048828125,-0.00048828125)">
   <path d="M 0,-2 C -7,14 -16,27 -25,37 L 356,567 C 262,823 215,952 215,954 215,979 228,992 255,992 264,992 276,990 289,987 310,991 331,999 354,1012 L 381,999 492,748 772,1049 836,1024 860,1049 C 881,1039 901,1025 922,1006 886,937 835,863 770,784 769,783 710,716 594,584 L 774,223 C 774,196 753,168 711,139 L 727,119 C 717,90 699,76 672,76 641,76 570,178 457,381 L 164,-76 C 142,-110 111,-127 72,-127 30,-127 9,-110 8,-76 1,-67 -2,-52 -2,-32 -2,-23 -1,-13 0,-2 Z"/>
  </g>
  <g id="bullet-char-template-10004" transform="scale(0.00048828125,-0.00048828125)">
   <path d="M 285,-33 C 182,-33 111,30 74,156 52,228 41,333 41,471 41,549 55,616 82,672 116,743 169,778 240,778 293,778 328,747 346,684 L 369,508 C 377,444 397,411 428,410 L 1163,1116 C 1174,1127 1196,1133 1229,1133 1271,1133 1292,1118 1292,1087 L 1292,965 C 1292,929 1282,901 1262,881 L 442,47 C 390,-6 338,-33 285,-33 Z"/>
  </g>
  <g id="bullet-char-template-9679" transform="scale(0.00048828125,-0.00048828125)">
   <path d="M 813,0 C 632,0 489,54 383,161 276,268 223,411 223,592 223,773 276,916 383,1023 489,1130 632,1184 813,1184 992,1184 1136,1130 1245,1023 1353,916 1407,772 1407,592 1407,412 1353,268 1245,161 1136,54 992,0 813,0 Z"/>
  </g>
  <g id="bullet-char-template-8226" transform="scale(0.00048828125,-0.00048828125)">
   <path d="M 346,457 C 273,457 209,483 155,535 101,586 74,649 74,723 74,796 101,859 155,911 209,963 273,989 346,989 419,989 480,963 531,910 582,859 608,796 608,723 608,648 583,586 532,535 482,483 420,457 346,457 Z"/>
  </g>
  <g id="bullet-char-template-8211" transform="scale(0.00048828125,-0.00048828125)">
   <path d="M -4,459 L 1135,459 1135,606 -4,606 -4,459 Z"/>
  </g>
  <g id="bullet-char-template-61548" transform="scale(0.00048828125,-0.00048828125)">
   <path d="M 173,740 C 173,903 231,1043 346,1159 462,1274 601,1332 765,1332 928,1332 1067,1274 1183,1159 1299,1043 1357,903 1357,740 1357,577 1299,437 1183,322 1067,206 928,148 765,148 601,148 462,206 346,322 231,437 173,577 173,740 Z"/>
  </g>
 </defs>
 <defs class="TextEmbeddedBitmaps"/>
 <g class="SlideGroup">
  <g>
   <g id="container-id1">
    <g id="id1" class="Slide" clip-path="url(#presentation_clip_path)">
     <g class="Page">
      <g class="com.sun.star.drawing.CustomShape">
       <g id="id3">
        <rect class="BoundingBox" stroke="none" fill="none" x="4514" y="2324" width="1651" height="2112"/>
        <path fill="rgb(0,0,0)" stroke="none" d="M 5204,4337 L 4515,4239 4784,2324 6163,2519 5894,4434 5204,4337 Z"/>
       </g>
      </g>
      <g class="com.sun.star.drawing.LineShape">
       <g id="id4">
        <rect class="BoundingBox" stroke="none" fill="none" x="676" y="5333" width="826" height="617"/>
        <path fill="none" stroke="rgb(112,110,12)" stroke-width="247" stroke-linejoin="round" d="M 1377,5457 L 800,5825"/>
       </g>
      </g>
      <g class="com.sun.star.drawing.CustomShape">
       <g id="id5">
        <rect class="BoundingBox" stroke="none" fill="none" x="179" y="2998" width="5721" height="2867"/>
        <path fill="rgb(0,0,0)" stroke="none" d="M 3039,2999 C 2512,2999 2065,3059 1609,3190 1153,3322 825,3486 562,3715 299,3943 179,4167 179,4431 179,4695 299,4919 562,5147 825,5376 1153,5540 1609,5672 2065,5803 2512,5864 3039,5864 3566,5864 4013,5803 4469,5672 4925,5540 5253,5376 5516,5147 5779,4919 5899,4695 5899,4431 5899,4167 5779,3943 5516,3715 5253,3486 4925,3322 4469,3190 4013,3059 3566,2999 3039,2999 L 3039,2999 Z"/>
       </g>
      </g>
      <g class="com.sun.star.drawing.CustomShape">
       <g id="id6">
        <rect class="BoundingBox" stroke="none" fill="none" x="4779" y="1398" width="1817" height="1912"/>
        <path fill="rgb(0,0,0)" stroke="none" d="M 5687,1398 C 5520,1398 5378,1438 5233,1526 5088,1614 4984,1723 4901,1876 4817,2028 4779,2177 4779,2353 4779,2529 4817,2678 4901,2831 4984,2983 5088,3092 5233,3180 5378,3268 5520,3308 5687,3308 5854,3308 5996,3268 6141,3180 6286,3092 6390,2983 6473,2831 6557,2678 6595,2529 6595,2353 6595,2177 6557,2028 6473,1876 6390,1723 6286,1614 6141,1526 5996,1438 5854,1398 5687,1398 L 5687,1398 Z"/>
       </g>
      </g>
      <g class="com.sun.star.drawing.CustomShape">
       <g id="id7">
        <rect class="BoundingBox" stroke="none" fill="none" x="5639" y="1997" width="413" height="413"/>
        <path fill="rgb(0,0,0)" stroke="none" d="M 5845,2051 C 5817,2051 5793,2057 5769,2071 5744,2085 5727,2102 5713,2127 5699,2151 5693,2175 5693,2203 5693,2231 5699,2255 5713,2279 5727,2304 5744,2321 5769,2335 5793,2349 5817,2356 5845,2356 5873,2356 5897,2349 5921,2335 5946,2321 5963,2304 5977,2279 5991,2255 5998,2231 5998,2203 5998,2175 5991,2151 5977,2127 5963,2102 5946,2085 5921,2071 5897,2057 5873,2051 5845,2051 L 5845,2051 Z"/>
        <path fill="none" stroke="rgb(255,0,0)" stroke-width="106" stroke-linejoin="round" d="M 5845,2051 C 5817,2051 5793,2057 5769,2071 5744,2085 5727,2102 5713,2127 5699,2151 5693,2175 5693,2203 5693,2231 5699,2255 5713,2279 5727,2304 5744,2321 5769,2335 5793,2349 5817,2356 5845,2356 5873,2356 5897,2349 5921,2335 5946,2321 5963,2304 5977,2279 5991,2255 5998,2231 5998,2203 5998,2175 5991,2151 5977,2127 5963,2102 5946,2085 5921,2071 5897,2057 5873,2051 5845,2051 Z"/>
       </g>
      </g>
      <g class="com.sun.star.drawing.CustomShape">
       <g id="id8">
        <rect class="BoundingBox" stroke="none" fill="none" x="79" y="5538" width="796" height="578"/>
        <path fill="rgb(112,110,12)" stroke="none" d="M 79,5538 L 121,6115 873,5915 853,5627 79,5538 Z"/>
       </g>
      </g>
      <g class="com.sun.star.drawing.CustomShape">
       <g id="id9">
        <rect class="BoundingBox" stroke="none" fill="none" x="6136" y="1833" width="488" height="777"/>
        <path fill="rgb(238,238,238)" stroke="none" d="M 6257,1840 C 6218,1853 6191,1879 6169,1925 6146,1971 6136,2022 6137,2089 6137,2156 6147,2219 6170,2289 6192,2359 6220,2416 6259,2470 6298,2524 6336,2560 6381,2585 6426,2609 6464,2614 6502,2602 6541,2589 6569,2563 6591,2517 6613,2471 6623,2420 6623,2353 6623,2286 6612,2224 6590,2153 6567,2083 6539,2027 6500,1972 6461,1918 6423,1882 6378,1858 6334,1833 6296,1828 6257,1840 L 6257,1840 Z"/>
       </g>
      </g>
      <g class="com.sun.star.drawing.PolyPolygonShape">
       <g id="id10">
        <rect class="BoundingBox" stroke="none" fill="none" x="6195" y="2423" width="921" height="642"/>
        <path fill="rgb(238,238,238)" stroke="none" d="M 6424,2424 L 6955,2779 7114,3064 6207,2753 6195,2727 6424,2424 Z"/>
       </g>
      </g>
     </g>
    </g>
   </g>
  </g>
 </g>
</svg>