<?xml version="1.0" encoding="UTF-8"?>
<!DOCTYPE svg PUBLIC "-//W3C//DTD SVG 1.1//EN" "http://www.w3.org/Graphics/SVG/1.1/DTD/svg11.dtd">
<svg version="1.2" width="54.71mm" height="21.19mm" viewBox="1028 2990 5471 2119" preserveAspectRatio="xMidYMid" fill-rule="evenodd" stroke-width="28.222" stroke-linejoin="round" xmlns="http://www.w3.org/2000/svg" xmlns:ooo="http://xml.openoffice.org/svg/export" xmlns:xlink="http://www.w3.org/1999/xlink" xmlns:presentation="http://sun.com/xmlns/staroffice/presentation" xmlns:smil="http://www.w3.org/2001/SMIL20/" xmlns:anim="urn:oasis:names:tc:opendocument:xmlns:animation:1.0" xml:space="preserve">
 <defs class="ClipPathGroup">
  <clipPath id="presentation_clip_path" clipPathUnits="userSpaceOnUse">
   <rect x="1028" y="2990" width="5471" height="2119"/>
  </clipPath>
  <clipPath id="presentation_clip_path_shrink" clipPathUnits="userSpaceOnUse">
   <rect x="1033" y="2992" width="5461" height="2115"/>
  </clipPath>
 </defs>
 <defs class="TextShapeIndex">
  <g ooo:slide="id1" ooo:id-list="id3 id4 id5 id6 id7 id8 id9"/>
 </defs>
 <defs class="EmbeddedBulletChars">
  <g id="bullet-char-template-57356" transform="scale(0.00048828125,-0.00048828125)">
   <path d="M 580,1141 L 1163,571 580,0 -4,571 580,1141 Z"/>
  </g>
  <g id="bullet-char-template-57354" transform="scale(0.00048828125,-0.00048828125)">
   <path d="M 8,1128 L 1137,1128 1137,0 8,0 8,1128 Z"/>
  </g>
  <g id="bullet-char-template-10146" transform="scale(0.00048828125,-0.00048828125)">
   <path d="M 174,0 L 602,739 174,1481 1456,739 174,0 Z M 1358,739 L 309,1346 659,739 1358,739 Z"/>
  </g>
  <g id="bullet-char-template-10132" transform="scale(0.00048828125,-0.00048828125)">
   <path d="M 2015,739 L 1276,0 717,0 1260,543 174,543 174,936 1260,936 717,1481 1274,1481 2015,739 Z"/>
  </g>
  <g id="bullet-char-template-10007" transform="scale(0.00048828125,-0.00048828125)">
   <path d="M 0,-2 C -7,14 -16,27 -25,37 L 356,567 C 262,823 215,952 215,954 215,979 228,992 255,992 264,992 276,990 289,987 310,991 331,999 354,1012 L 381,999 492,748 772,1049 836,1024 860,1049 C 881,1039 901,1025 922,1006 886,937 835,863 770,784 769,783 710,716 594,584 L 774,223 C 774,196 753,168 711,139 L 727,119 C 717,90 699,76 672,76 641,76 570,178 457,381 L 164,-76 C 142,-110 111,-127 72,-127 30,-127 9,-110 8,-76 1,-67 -2,-52 -2,-32 -2,-23 -1,-13 0,-2 Z"/>
  </g>
  <g id="bullet-char-template-10004" transform="scale(0.00048828125,-0.00048828125)">
   <path d="M 285,-33 C 182,-33 111,30 74,156 52,228 41,333 41,471 41,549 55,616 82,672 116,743 169,778 240,778 293,778 328,747 346,684 L 369,508 C 377,444 397,411 428,410 L 1163,1116 C 1174,1127 1196,1133 1229,1133 1271,1133 1292,1118 1292,1087 L 1292,965 C 1292,929 1282,901 1262,881 L 442,47 C 390,-6 338,-33 285,-33 Z"/>
  </g>
  <g id="bullet-char-template-9679" transform="scale(0.00048828125,-0.00048828125)">
   <path d="M 813,0 C 632,0 489,54 383,161 276,268 223,411 223,592 223,773 276,916 383,1023 489,1130 632,1184 813,1184 992,1184 1136,1130 1245,1023 1353,916 1407,772 1407,592 1407,412 1353,268 1245,161 1136,54 992,0 813,0 Z"/>
  </g>
  <g id="bullet-char-template-8226" transform="scale(0.00048828125,-0.00048828125)">
   <path d="M 346,457 C 273,457 209,483 155,535 101,586 74,649 74,723 74,796 101,859 155,911 209,963 273,989 346,989 419,989 480,963 531,910 582,859 608,796 608,723 608,648 583,586 532,535 482,483 420,457 346,457 Z"/>
  </g>
  <g id="bullet-char-template-8211" transform="scale(0.00048828125,-0.00048828125)">
   <path d="M -4,459 L 1135,459 1135,606 -4,606 -4,459 Z"/>
  </g>
  <g id="bullet-char-template-61548" transform="scale(0.00048828125,-0.00048828125)">
   <path d="M 173,740 C 173,903 231,1043 346,1159 462,1274 601,1332 765,1332 928,1332 1067,1274 1183,1159 1299,1043 1357,903 1357,740 1357,577 1299,437 1183,322 1067,206 928,148 765,148 601,148 462,206 346,322 231,437 173,577 173,740 Z"/>
  </g>
 </defs>
 <defs class="TextEmbeddedBitmaps"/>
 <g class="SlideGroup">
  <g>
   <g id="container-id1">
    <g id="id1" class="Slide" clip-path="url(#presentation_clip_path)">
     <g class="Page">
      <g class="com.sun.star.drawing.PolyPolygonShape">
       <g id="id3">
        <rect class="BoundingBox" stroke="none" fill="none" x="1027" y="3299" width="1148" height="302"/>
        <path fill="rgb(238,238,238)" stroke="none" d="M 1985,3300 L 1282,3350 1028,3485 2153,3600 2173,3586 1985,3300 Z"/>
       </g>
      </g>
      <g class="com.sun.star.drawing.EllipseShape">
       <g id="id4">
        <rect class="BoundingBox" stroke="none" fill="none" x="2271" y="4481" width="4230" height="620"/>
        <path fill="rgb(0,0,0)" stroke="none" d="M 2299,5100 C 2239,4986 2276,4889 2417,4791 2558,4692 2761,4621 3066,4564 3371,4507 3685,4481 4072,4481 4459,4481 4801,4507 5166,4564 5531,4621 5809,4692 6054,4791 6300,4889 6439,4986 6499,5100 L 6499,5100 2299,5100 Z"/>
       </g>
      </g>
      <g class="com.sun.star.drawing.CustomShape">
       <g id="id5">
        <rect class="BoundingBox" stroke="none" fill="none" x="1996" y="3043" width="1560" height="2068"/>
        <path fill="rgb(0,0,0)" stroke="none" d="M 1997,3172 L 2038,3148 2081,3126 2124,3107 2169,3089 2215,3075 2261,3063 2309,3054 2358,3048 2406,3043 2455,3043 2504,3044 2554,3048 2603,3056 2653,3065 2702,3078 2751,3092 2800,3110 2848,3130 2895,3152 2942,3177 2987,3205 3031,3235 3074,3266 3116,3301 3157,3337 3197,3374 3234,3415 3270,3457 3304,3500 3336,3545 3366,3591 3395,3638 3421,3688 3444,3738 3466,3789 3486,3840 3503,3892 3518,3946 3531,3999 3540,4053 3547,4107 3552,4161 3555,4214 3555,4267 3553,4320 3548,4373 3540,4424 3530,4475 3518,4526 3503,4575 3485,4623 3466,4669 3445,4715 3421,4758 3394,4800 3367,4840 3336,4878 3304,4915 3270,4950 3234,4982 3197,5012 3157,5040 3117,5065 3075,5088 3032,5109 2809,4627 2831,4617 2853,4605 2874,4591 2894,4577 2914,4561 2932,4544 2950,4527 2966,4508 2982,4489 2996,4467 3010,4446 3023,4423 3034,4399 3044,4376 3052,4351 3060,4325 3066,4299 3072,4274 3076,4247 3078,4219 3079,4191 3079,4164 3078,4136 3075,4108 3071,4081 3066,4053 3060,4026 3052,3999 3043,3971 3033,3944 3022,3918 3010,3892 2996,3867 2982,3842 2966,3819 2949,3795 2931,3773 2913,3751 2894,3730 2873,3711 2853,3692 2831,3674 2809,3658 2786,3643 2762,3628 2738,3615 2714,3603 2689,3594 2664,3585 2638,3577 2613,3570 2588,3565 2562,3561 2536,3559 2511,3559 2485,3559 2460,3561 2435,3564 2411,3569 2387,3575 2362,3583 2340,3591 2317,3601 2295,3613 2273,3626 1997,3172 Z"/>
       </g>
      </g>
      <g class="com.sun.star.drawing.CustomShape">
       <g id="id6">
        <rect class="BoundingBox" stroke="none" fill="none" x="1930" y="2990" width="1195" height="765"/>
        <path fill="rgb(0,0,0)" stroke="none" d="M 2586,3003 C 2476,2985 2381,2986 2281,3005 2181,3024 2107,3056 2043,3106 1979,3156 1945,3210 1934,3278 1923,3346 1939,3408 1984,3475 2030,3543 2091,3596 2180,3645 2269,3694 2360,3724 2469,3741 2578,3759 2673,3758 2773,3739 2873,3720 2948,3688 3012,3638 3076,3588 3110,3534 3120,3466 3131,3398 3115,3336 3070,3269 3025,3201 2964,3148 2874,3099 2785,3050 2695,3020 2586,3003 L 2586,3003 Z"/>
       </g>
      </g>
      <g class="com.sun.star.drawing.CustomShape">
       <g id="id7">
        <rect class="BoundingBox" stroke="none" fill="none" x="1983" y="3307" width="897" height="449"/>
        <path fill="rgb(238,238,238)" stroke="none" d="M 2458,3315 C 2376,3305 2305,3305 2231,3316 2157,3327 2103,3345 2058,3374 2012,3403 1989,3435 1984,3474 1979,3514 1993,3550 2030,3590 2067,3629 2115,3661 2184,3690 2253,3718 2321,3736 2404,3747 2486,3757 2557,3757 2631,3746 2705,3735 2759,3717 2804,3688 2850,3659 2873,3627 2878,3588 2883,3548 2869,3512 2832,3472 2795,3433 2747,3401 2678,3372 2609,3344 2541,3326 2458,3315 L 2458,3315 Z"/>
       </g>
      </g>
      <g class="com.sun.star.drawing.CustomShape">
       <g id="id8">
        <rect class="BoundingBox" stroke="none" fill="none" x="1927" y="3263" width="603" height="438"/>
        <path fill="rgb(255,255,56)" stroke="none" d="M 2228,3263 C 2173,3263 2126,3272 2078,3292 2030,3312 1995,3337 1968,3372 1940,3407 1928,3441 1928,3481 1928,3521 1940,3555 1968,3590 1995,3625 2030,3650 2078,3670 2126,3690 2173,3699 2228,3699 2283,3699 2330,3690 2378,3670 2426,3650 2461,3625 2488,3590 2516,3555 2529,3521 2529,3481 2529,3441 2516,3407 2488,3372 2461,3337 2426,3312 2378,3292 2330,3272 2283,3263 2228,3263 L 2228,3263 Z"/>
       </g>
      </g>
      <g class="com.sun.star.drawing.CustomShape">
       <g id="id9">
        <rect class="BoundingBox" stroke="none" fill="none" x="2049" y="3275" width="206" height="205"/>
        <path fill="rgb(0,0,0)" stroke="none" d="M 2153,3302 C 2139,3302 2127,3305 2115,3311 2103,3318 2094,3326 2087,3338 2079,3350 2076,3361 2076,3375 2075,3389 2078,3401 2085,3413 2091,3425 2100,3434 2112,3441 2123,3448 2135,3452 2149,3452 2163,3452 2175,3450 2187,3443 2199,3436 2208,3428 2215,3416 2223,3404 2226,3393 2227,3379 2227,3365 2224,3353 2217,3341 2211,3329 2202,3320 2190,3313 2179,3306 2167,3302 2153,3302 L 2153,3302 Z"/>
        <path fill="none" stroke="rgb(6,154,46)" stroke-width="53" stroke-linejoin="round" d="M 2153,3302 C 2139,3302 2127,3305 2115,3311 2103,3318 2094,3326 2087,3338 2079,3350 2076,3361 2076,3375 2075,3389 2078,3401 2085,3413 2091,3425 2100,3434 2112,3441 2123,3448 2135,3452 2149,3452 2163,3452 2175,3450 2187,3443 2199,3436 2208,3428 2215,3416 2223,3404 2226,3393 2227,3379 2227,3365 2224,3353 2217,3341 2211,3329 2202,3320 2190,3313 2179,3306 2167,3302 2153,3302 Z"/>
       </g>
      </g>
     </g>
    </g>
   </g>
  </g>
 </g>
</svg>