<?xml version="1.0" encoding="UTF-8"?>
<!DOCTYPE svg PUBLIC "-//W3C//DTD SVG 1.1//EN" "http://www.w3.org/Graphics/SVG/1.1/DTD/svg11.dtd">
<svg version="1.2" width="72mm" height="72mm" viewBox="0 0 7200 7200" preserveAspectRatio="xMidYMid" fill-rule="evenodd" stroke-width="28.222" stroke-linejoin="round" xmlns="http://www.w3.org/2000/svg" xmlns:ooo="http://xml.openoffice.org/svg/export" xmlns:xlink="http://www.w3.org/1999/xlink" xmlns:presentation="http://sun.com/xmlns/staroffice/presentation" xmlns:smil="http://www.w3.org/2001/SMIL20/" xmlns:anim="urn:oasis:names:tc:opendocument:xmlns:animation:1.0" xml:space="preserve">
 <defs class="ClipPathGroup">
  <clipPath id="presentation_clip_path" clipPathUnits="userSpaceOnUse">
   <rect x="0" y="0" width="7200" height="7200"/>
  </clipPath>
  <clipPath id="presentation_clip_path_shrink" clipPathUnits="userSpaceOnUse">
   <rect x="7" y="7" width="7186" height="7186"/>
  </clipPath>
 </defs>
 <defs class="TextShapeIndex">
  <g ooo:slide="id1" ooo:id-list="id3 id4 id5 id6 id7 id8 id9 id10 id11 id12 id13 id14 id15 id16 id17 id18 id19 id20 id21 id22 id23 id24 id25 id26 id27"/>
 </defs>
 <defs class="EmbeddedBulletChars">
  <g id="bullet-char-template-57356" transform="scale(0.00048828125,-0.00048828125)">
   <path d="M 580,1141 L 1163,571 580,0 -4,571 580,1141 Z"/>
  </g>
  <g id="bullet-char-template-57354" transform="scale(0.00048828125,-0.00048828125)">
   <path d="M 8,1128 L 1137,1128 1137,0 8,0 8,1128 Z"/>
  </g>
  <g id="bullet-char-template-10146" transform="scale(0.00048828125,-0.00048828125)">
   <path d="M 174,0 L 602,739 174,1481 1456,739 174,0 Z M 1358,739 L 309,1346 659,739 1358,739 Z"/>
  </g>
  <g id="bullet-char-template-10132" transform="scale(0.00048828125,-0.00048828125)">
   <path d="M 2015,739 L 1276,0 717,0 1260,543 174,543 174,936 1260,936 717,1481 1274,1481 2015,739 Z"/>
  </g>
  <g id="bullet-char-template-10007" transform="scale(0.00048828125,-0.00048828125)">
   <path d="M 0,-2 C -7,14 -16,27 -25,37 L 356,567 C 262,823 215,952 215,954 215,979 228,992 255,992 264,992 276,990 289,987 310,991 331,999 354,1012 L 381,999 492,748 772,1049 836,1024 860,1049 C 881,1039 901,1025 922,1006 886,937 835,863 770,784 769,783 710,716 594,584 L 774,223 C 774,196 753,168 711,139 L 727,119 C 717,90 699,76 672,76 641,76 570,178 457,381 L 164,-76 C 142,-110 111,-127 72,-127 30,-127 9,-110 8,-76 1,-67 -2,-52 -2,-32 -2,-23 -1,-13 0,-2 Z"/>
  </g>
  <g id="bullet-char-template-10004" transform="scale(0.00048828125,-0.00048828125)">
   <path d="M 285,-33 C 182,-33 111,30 74,156 52,228 41,333 41,471 41,549 55,616 82,672 116,743 169,778 240,778 293,778 328,747 346,684 L 369,508 C 377,444 397,411 428,410 L 1163,1116 C 1174,1127 1196,1133 1229,1133 1271,1133 1292,1118 1292,1087 L 1292,965 C 1292,929 1282,901 1262,881 L 442,47 C 390,-6 338,-33 285,-33 Z"/>
  </g>
  <g id="bullet-char-template-9679" transform="scale(0.00048828125,-0.00048828125)">
   <path d="M 813,0 C 632,0 489,54 383,161 276,268 223,411 223,592 223,773 276,916 383,1023 489,1130 632,1184 813,1184 992,1184 1136,1130 1245,1023 1353,916 1407,772 1407,592 1407,412 1353,268 1245,161 1136,54 992,0 813,0 Z"/>
  </g>
  <g id="bullet-char-template-8226" transform="scale(0.00048828125,-0.00048828125)">
   <path d="M 346,457 C 273,457 209,483 155,535 101,586 74,649 74,723 74,796 101,859 155,911 209,963 273,989 346,989 419,989 480,963 531,910 582,859 608,796 608,723 608,648 583,586 532,535 482,483 420,457 346,457 Z"/>
  </g>
  <g id="bullet-char-template-8211" transform="scale(0.00048828125,-0.00048828125)">
   <path d="M -4,459 L 1135,459 1135,606 -4,606 -4,459 Z"/>
  </g>
  <g id="bullet-char-template-61548" transform="scale(0.00048828125,-0.00048828125)">
   <path d="M 173,740 C 173,903 231,1043 346,1159 462,1274 601,1332 765,1332 928,1332 1067,1274 1183,1159 1299,1043 1357,903 1357,740 1357,577 1299,437 1183,322 1067,206 928,148 765,148 601,148 462,206 346,322 231,437 173,577 173,740 Z"/>
  </g>
 </defs>
 <defs class="TextEmbeddedBitmaps"/>
 <g>
  <g id="id2" class="Master_Slide">
   <g id="bg-id2" class="Background"/>
   <g id="bo-id2" class="BackgroundObjects"/>
  </g>
 </g>
 <g class="SlideGroup">
  <g>
   <g id="container-id1">
    <g id="id1" class="Slide" clip-path="url(#presentation_clip_path)">
     <g class="Page">
      <g class="com.sun.star.drawing.LineShape">
       <g id="id3">
        <rect class="BoundingBox" stroke="none" fill="none" x="5069" y="6370" width="1207" height="207"/>
        <path fill="none" stroke="rgb(255,166,166)" stroke-width="106" stroke-linejoin="round" d="M 5122,6523 L 6222,6423"/>
       </g>
      </g>
      <g class="com.sun.star.drawing.LineShape">
       <g id="id4">
        <rect class="BoundingBox" stroke="none" fill="none" x="5069" y="6470" width="1128" height="207"/>
        <path fill="none" stroke="rgb(255,166,166)" stroke-width="106" stroke-linejoin="round" d="M 5122,6523 L 6143,6623"/>
       </g>
      </g>
      <g class="com.sun.star.drawing.LineShape">
       <g id="id5">
        <rect class="BoundingBox" stroke="none" fill="none" x="5069" y="6170" width="1128" height="407"/>
        <path fill="none" stroke="rgb(255,166,166)" stroke-width="106" stroke-linejoin="round" d="M 5122,6523 L 6143,6223"/>
       </g>
      </g>
      <g class="com.sun.star.drawing.CustomShape">
       <g id="id6">
        <rect class="BoundingBox" stroke="none" fill="none" x="521" y="1822" width="6203" height="5203"/>
        <g>
         <defs>
          <linearGradient id="gradient1" x1="522" y1="4423" x2="6723" y2="4423" gradientUnits="userSpaceOnUse">
           <stop offset="0" style="stop-color:rgb(238,238,238)"/>
           <stop offset="1" style="stop-color:rgb(153,153,153)"/>
          </linearGradient>
         </defs>
         <path style="fill:url(#gradient1)" d="M 3622,1823 L 3832,1828 4036,1843 4233,1870 4426,1907 4615,1955 4802,2015 4987,2087 5172,2171 5351,2264 5518,2362 5673,2468 5818,2581 5953,2702 6079,2833 6197,2973 6307,3123 6407,3278 6492,3434 6564,3590 6622,3749 6666,3911 6698,4076 6716,4247 6723,4423 6716,4599 6698,4770 6666,4935 6622,5097 6564,5256 6492,5412 6407,5568 6307,5723 6197,5873 6079,6013 5953,6144 5818,6265 5673,6378 5518,6484 5351,6582 5172,6675 4987,6759 4802,6831 4615,6891 4426,6939 4233,6976 4036,7003 3832,7018 3622,7024 3412,7018 3208,7003 3011,6976 2818,6939 2629,6891 2442,6831 2257,6759 2072,6675 1893,6582 1726,6484 1571,6378 1426,6265 1291,6144 1165,6013 1047,5873 937,5723 837,5568 752,5412 680,5256 622,5097 578,4935 546,4770 528,4599 522,4423 528,4247 546,4076 578,3911 622,3749 680,3590 752,3434 837,3278 937,3123 1047,2973 1165,2833 1291,2702 1426,2581 1571,2468 1726,2362 1893,2264 2072,2171 2257,2087 2442,2015 2629,1955 2818,1907 3011,1870 3208,1843 3412,1828 3622,1823 3622,1823 Z"/>
        </g>
       </g>
      </g>
      <g class="com.sun.star.drawing.CustomShape">
       <g id="id7">
        <rect class="BoundingBox" stroke="none" fill="none" x="1799" y="1099" width="4403" height="2787"/>
        <path fill="rgb(204,204,204)" stroke="none" d="M 4000,1100 C 4405,1100 4749,1158 5100,1286 5451,1414 5703,1574 5906,1796 6108,2018 6201,2236 6201,2492 6201,2748 6108,2966 5906,3188 5703,3410 5451,3570 5100,3698 4749,3826 4405,3885 4000,3885 3595,3885 3251,3826 2900,3698 2549,3570 2297,3410 2094,3188 1892,2966 1800,2748 1800,2492 1799,2236 1892,2018 2094,1796 2297,1574 2549,1414 2900,1286 3251,1158 3595,1100 4000,1100 L 4000,1100 Z"/>
       </g>
      </g>
      <g class="com.sun.star.drawing.CustomShape">
       <g id="id8">
        <rect class="BoundingBox" stroke="none" fill="none" x="2182" y="99" width="4001" height="2703"/>
        <path fill="rgb(238,238,238)" stroke="none" d="M 4182,100 C 4550,100 4863,156 5182,280 5501,405 5730,559 5914,775 6098,990 6182,1201 6182,1450 6182,1699 6098,1910 5914,2125 5730,2341 5501,2495 5182,2620 4863,2744 4550,2801 4182,2801 3814,2801 3501,2744 3182,2620 2863,2495 2634,2341 2450,2125 2266,1910 2182,1699 2182,1450 2182,1201 2266,990 2450,775 2634,559 2863,405 3182,280 3501,156 3814,100 4182,100 L 4182,100 Z"/>
       </g>
      </g>
      <g class="com.sun.star.drawing.CustomShape">
       <g id="id9">
        <rect class="BoundingBox" stroke="none" fill="none" x="4126" y="1260" width="684" height="683"/>
        <path fill="rgb(255,64,0)" stroke="none" d="M 4467,1301 C 4522,1301 4569,1313 4617,1341 4665,1368 4700,1403 4727,1451 4755,1499 4768,1546 4768,1601 4768,1656 4755,1703 4727,1751 4700,1799 4665,1834 4617,1861 4569,1889 4522,1902 4467,1902 4412,1902 4365,1889 4317,1861 4269,1834 4234,1799 4207,1751 4179,1703 4167,1656 4167,1601 4167,1546 4179,1499 4207,1451 4234,1403 4269,1368 4317,1341 4365,1313 4412,1301 4467,1301 L 4467,1301 Z"/>
        <path fill="none" stroke="rgb(153,153,153)" stroke-width="81" stroke-linejoin="round" d="M 4467,1301 C 4522,1301 4569,1313 4617,1341 4665,1368 4700,1403 4727,1451 4755,1499 4768,1546 4768,1601 4768,1656 4755,1703 4727,1751 4700,1799 4665,1834 4617,1861 4569,1889 4522,1902 4467,1902 4412,1902 4365,1889 4317,1861 4269,1834 4234,1799 4207,1751 4179,1703 4167,1656 4167,1601 4167,1546 4179,1499 4207,1451 4234,1403 4269,1368 4317,1341 4365,1313 4412,1301 4467,1301 Z"/>
       </g>
      </g>
      <g class="com.sun.star.drawing.CustomShape">
       <g id="id10">
        <rect class="BoundingBox" stroke="none" fill="none" x="4280" y="1398" width="403" height="403"/>
        <path fill="rgb(0,0,0)" stroke="none" d="M 4481,1398 C 4518,1398 4549,1407 4581,1425 4613,1444 4636,1467 4655,1499 4673,1531 4682,1562 4682,1599 4682,1636 4673,1667 4655,1699 4636,1731 4613,1754 4581,1773 4549,1791 4518,1800 4481,1800 4444,1800 4413,1791 4381,1773 4349,1754 4326,1731 4307,1699 4289,1667 4281,1636 4281,1599 4281,1562 4289,1531 4307,1499 4326,1467 4349,1444 4381,1425 4413,1407 4444,1398 4481,1398 L 4481,1398 Z"/>
       </g>
      </g>
      <g class="com.sun.star.drawing.PolyPolygonShape">
       <g id="id11">
        <rect class="BoundingBox" stroke="none" fill="none" x="5385" y="1832" width="1232" height="1308"/>
        <path fill="rgb(102,102,102)" stroke="none" d="M 5853,1833 L 6497,2599 6616,3138 5392,2353 5385,2304 5853,1833 Z"/>
       </g>
      </g>
      <g class="com.sun.star.drawing.LineShape">
       <g id="id12">
        <rect class="BoundingBox" stroke="none" fill="none" x="4069" y="6770" width="1207" height="207"/>
        <path fill="none" stroke="rgb(255,166,166)" stroke-width="106" stroke-linejoin="round" d="M 4122,6923 L 5222,6823"/>
       </g>
      </g>
      <g class="com.sun.star.drawing.LineShape">
       <g id="id13">
        <rect class="BoundingBox" stroke="none" fill="none" x="4069" y="6870" width="1128" height="207"/>
        <path fill="none" stroke="rgb(255,166,166)" stroke-width="106" stroke-linejoin="round" d="M 4122,6923 L 5143,7023"/>
       </g>
      </g>
      <g class="com.sun.star.drawing.LineShape">
       <g id="id14">
        <rect class="BoundingBox" stroke="none" fill="none" x="4069" y="6570" width="1128" height="407"/>
        <path fill="none" stroke="rgb(255,166,166)" stroke-width="106" stroke-linejoin="round" d="M 4122,6923 L 5143,6623"/>
       </g>
      </g>
      <g class="com.sun.star.drawing.CustomShape">
       <g id="id15">
        <rect class="BoundingBox" stroke="none" fill="none" x="5399" y="1779" width="323" height="323"/>
        <path fill="rgb(255,255,255)" stroke="none" d="M 5560,1780 C 5590,1780 5615,1786 5640,1801 5666,1816 5684,1834 5699,1860 5714,1885 5721,1910 5721,1940 5721,1970 5714,1995 5699,2020 5684,2046 5666,2064 5640,2079 5615,2094 5590,2101 5560,2101 5530,2101 5505,2094 5480,2079 5454,2064 5436,2046 5421,2020 5406,1995 5400,1970 5400,1940 5400,1910 5406,1885 5421,1860 5436,1834 5454,1816 5480,1801 5505,1786 5530,1780 5560,1780 L 5560,1780 Z"/>
       </g>
      </g>
      <g class="com.sun.star.drawing.CustomShape">
       <g id="id16">
        <rect class="BoundingBox" stroke="none" fill="none" x="5699" y="1679" width="323" height="323"/>
        <path fill="rgb(255,255,255)" stroke="none" d="M 5860,1680 C 5890,1680 5915,1686 5940,1701 5966,1716 5984,1734 5999,1760 6014,1785 6020,1810 6020,1840 6020,1870 6014,1895 5999,1920 5984,1946 5966,1964 5940,1979 5915,1994 5890,2001 5860,2001 5830,2001 5805,1994 5780,1979 5754,1964 5736,1946 5721,1920 5706,1895 5699,1870 5699,1840 5699,1810 5706,1785 5721,1760 5736,1734 5754,1716 5780,1701 5805,1686 5830,1680 5860,1680 L 5860,1680 Z"/>
       </g>
      </g>
      <g class="com.sun.star.drawing.CustomShape">
       <g id="id17">
        <rect class="BoundingBox" stroke="none" fill="none" x="920" y="3386" width="348" height="347"/>
        <path fill="rgb(0,0,0)" stroke="none" d="M 1094,3386 C 1126,3386 1153,3393 1180,3409 1208,3425 1228,3445 1244,3473 1260,3500 1267,3527 1267,3559 1267,3591 1260,3618 1244,3646 1228,3673 1208,3693 1180,3709 1153,3725 1126,3732 1094,3732 1062,3732 1035,3725 1008,3709 980,3693 960,3673 944,3646 928,3618 921,3591 921,3559 921,3527 928,3500 944,3473 960,3445 980,3425 1007,3409 1035,3393 1062,3386 1094,3386 L 1094,3386 Z"/>
       </g>
      </g>
      <g class="com.sun.star.drawing.CustomShape">
       <g id="id18">
        <rect class="BoundingBox" stroke="none" fill="none" x="1567" y="2878" width="348" height="347"/>
        <path fill="rgb(0,0,0)" stroke="none" d="M 1741,2878 C 1773,2878 1800,2885 1827,2901 1855,2917 1875,2937 1891,2965 1907,2992 1914,3019 1914,3051 1914,3083 1907,3110 1891,3137 1875,3165 1855,3185 1827,3201 1800,3217 1773,3224 1741,3224 1709,3224 1682,3217 1654,3201 1627,3185 1607,3165 1591,3137 1575,3110 1568,3083 1568,3051 1568,3019 1575,2992 1591,2965 1607,2937 1627,2917 1654,2901 1682,2885 1709,2878 1741,2878 L 1741,2878 Z"/>
       </g>
      </g>
      <g class="com.sun.star.drawing.CustomShape">
       <g id="id19">
        <rect class="BoundingBox" stroke="none" fill="none" x="1446" y="3931" width="347" height="348"/>
        <path fill="rgb(0,0,0)" stroke="none" d="M 1619,3932 C 1651,3932 1678,3939 1705,3955 1733,3971 1753,3991 1768,4018 1784,4046 1792,4073 1792,4105 1792,4137 1784,4164 1768,4191 1753,4219 1733,4239 1705,4255 1678,4271 1651,4278 1619,4278 1587,4278 1560,4271 1533,4255 1505,4239 1485,4219 1470,4191 1454,4164 1447,4137 1447,4105 1447,4073 1454,4046 1470,4018 1485,3991 1505,3971 1533,3955 1560,3939 1587,3932 1619,3932 L 1619,3932 Z"/>
       </g>
      </g>
      <g class="com.sun.star.drawing.CustomShape">
       <g id="id20">
        <rect class="BoundingBox" stroke="none" fill="none" x="2298" y="3726" width="348" height="347"/>
        <path fill="rgb(0,0,0)" stroke="none" d="M 2472,3727 C 2504,3727 2531,3734 2558,3750 2586,3765 2606,3785 2622,3813 2638,3840 2645,3867 2645,3899 2645,3931 2638,3958 2622,3985 2606,4013 2586,4033 2558,4048 2531,4064 2504,4072 2472,4072 2440,4072 2413,4064 2385,4048 2358,4033 2338,4013 2322,3985 2306,3958 2299,3931 2299,3899 2299,3867 2306,3840 2322,3813 2338,3785 2358,3765 2385,3750 2413,3734 2440,3727 2472,3727 L 2472,3727 Z"/>
       </g>
      </g>
      <g class="com.sun.star.drawing.CustomShape">
       <g id="id21">
        <rect class="BoundingBox" stroke="none" fill="none" x="815" y="4893" width="347" height="348"/>
        <path fill="rgb(0,0,0)" stroke="none" d="M 988,4894 C 1020,4894 1047,4901 1074,4917 1102,4933 1122,4953 1137,4980 1153,5008 1161,5035 1161,5067 1161,5099 1153,5126 1137,5153 1122,5181 1102,5201 1074,5217 1047,5233 1020,5240 988,5240 956,5240 929,5233 902,5217 874,5201 854,5181 839,5153 823,5126 816,5099 816,5067 816,5035 823,5008 839,4980 854,4953 874,4933 902,4917 929,4901 956,4894 988,4894 L 988,4894 Z"/>
       </g>
      </g>
      <g class="com.sun.star.drawing.CustomShape">
       <g id="id22">
        <rect class="BoundingBox" stroke="none" fill="none" x="1668" y="4688" width="347" height="347"/>
        <path fill="rgb(0,0,0)" stroke="none" d="M 1841,4689 C 1873,4689 1900,4696 1928,4712 1955,4727 1975,4747 1991,4775 2007,4802 2014,4829 2014,4861 2014,4893 2007,4920 1991,4947 1975,4975 1955,4995 1928,5010 1900,5026 1873,5034 1841,5034 1809,5034 1782,5026 1755,5010 1727,4995 1707,4975 1691,4947 1675,4920 1668,4893 1668,4861 1668,4829 1675,4802 1691,4775 1707,4747 1727,4727 1754,4712 1782,4696 1809,4689 1841,4689 L 1841,4689 Z"/>
       </g>
      </g>
      <g class="com.sun.star.drawing.CustomShape">
       <g id="id23">
        <rect class="BoundingBox" stroke="none" fill="none" x="2521" y="4671" width="348" height="347"/>
        <path fill="rgb(0,0,0)" stroke="none" d="M 2695,4671 C 2727,4671 2754,4678 2782,4694 2809,4710 2829,4730 2845,4758 2861,4785 2868,4812 2868,4844 2868,4876 2861,4903 2845,4931 2829,4958 2809,4978 2782,4994 2754,5010 2727,5017 2695,5017 2663,5017 2636,5010 2608,4994 2581,4978 2561,4958 2545,4931 2529,4903 2522,4876 2522,4844 2522,4812 2529,4785 2545,4758 2561,4730 2581,4710 2608,4694 2636,4678 2663,4671 2695,4671 L 2695,4671 Z"/>
       </g>
      </g>
      <g class="com.sun.star.drawing.CustomShape">
       <g id="id24">
        <rect class="BoundingBox" stroke="none" fill="none" x="3053" y="4132" width="347" height="347"/>
        <path fill="rgb(0,0,0)" stroke="none" d="M 3226,4132 C 3258,4132 3285,4139 3313,4155 3340,4171 3360,4191 3376,4219 3392,4246 3399,4273 3399,4305 3399,4337 3392,4364 3376,4392 3360,4419 3340,4439 3313,4455 3285,4471 3258,4478 3226,4478 3194,4478 3167,4471 3140,4455 3112,4439 3092,4419 3076,4392 3060,4364 3053,4337 3053,4305 3053,4273 3060,4246 3076,4219 3092,4191 3112,4171 3140,4155 3167,4139 3194,4132 3226,4132 L 3226,4132 Z"/>
       </g>
      </g>
      <g class="com.sun.star.drawing.CustomShape">
       <g id="id25">
        <rect class="BoundingBox" stroke="none" fill="none" x="598" y="4140" width="347" height="347"/>
        <path fill="rgb(0,0,0)" stroke="none" d="M 771,4140 C 803,4140 830,4147 858,4163 885,4179 905,4199 921,4227 937,4254 944,4281 944,4313 944,4345 937,4372 921,4400 905,4427 885,4447 858,4463 830,4479 803,4486 771,4486 739,4486 712,4479 685,4463 657,4447 637,4427 621,4400 605,4372 598,4345 598,4313 598,4281 605,4254 621,4227 637,4199 657,4179 684,4163 712,4147 739,4140 771,4140 L 771,4140 Z"/>
       </g>
      </g>
      <g class="com.sun.star.drawing.CustomShape">
       <g id="id26">
        <rect class="BoundingBox" stroke="none" fill="none" x="1351" y="5541" width="348" height="347"/>
        <path fill="rgb(0,0,0)" stroke="none" d="M 1525,5541 C 1557,5541 1584,5548 1612,5564 1639,5580 1659,5600 1675,5628 1691,5655 1698,5682 1698,5714 1698,5746 1691,5773 1675,5801 1659,5828 1639,5848 1612,5864 1584,5880 1557,5887 1525,5887 1493,5887 1466,5880 1439,5864 1411,5848 1391,5828 1375,5801 1359,5773 1352,5746 1352,5714 1352,5682 1359,5655 1375,5628 1391,5600 1411,5580 1438,5564 1466,5548 1493,5541 1525,5541 L 1525,5541 Z"/>
       </g>
      </g>
      <g class="com.sun.star.drawing.CustomShape">
       <g id="id27">
        <rect class="BoundingBox" stroke="none" fill="none" x="2208" y="5432" width="347" height="348"/>
        <path fill="rgb(0,0,0)" stroke="none" d="M 2381,5433 C 2413,5433 2440,5440 2467,5456 2495,5472 2515,5492 2530,5519 2546,5547 2554,5574 2554,5606 2554,5638 2546,5665 2530,5693 2515,5720 2495,5740 2467,5756 2440,5772 2413,5779 2381,5779 2349,5779 2322,5772 2295,5756 2267,5740 2247,5720 2232,5693 2216,5665 2209,5638 2209,5606 2209,5574 2216,5547 2232,5519 2247,5492 2267,5472 2295,5456 2322,5440 2349,5433 2381,5433 L 2381,5433 Z"/>
       </g>
      </g>
     </g>
    </g>
   </g>
  </g>
 </g>
</svg>