<?xml version="1.0" encoding="UTF-8"?>
<!DOCTYPE svg PUBLIC "-//W3C//DTD SVG 1.1//EN" "http://www.w3.org/Graphics/SVG/1.1/DTD/svg11.dtd">
<svg version="1.2" width="53.57mm" height="31.89mm" viewBox="948 1821 5357 3189" preserveAspectRatio="xMidYMid" fill-rule="evenodd" stroke-width="28.222" stroke-linejoin="round" xmlns="http://www.w3.org/2000/svg" xmlns:ooo="http://xml.openoffice.org/svg/export" xmlns:xlink="http://www.w3.org/1999/xlink" xmlns:presentation="http://sun.com/xmlns/staroffice/presentation" xmlns:smil="http://www.w3.org/2001/SMIL20/" xmlns:anim="urn:oasis:names:tc:opendocument:xmlns:animation:1.0" xml:space="preserve">
 <defs class="ClipPathGroup">
  <clipPath id="presentation_clip_path" clipPathUnits="userSpaceOnUse">
   <rect x="948" y="1821" width="5357" height="3189"/>
  </clipPath>
  <clipPath id="presentation_clip_path_shrink" clipPathUnits="userSpaceOnUse">
   <rect x="953" y="1824" width="5347" height="3183"/>
  </clipPath>
 </defs>
 <defs class="TextShapeIndex">
  <g ooo:slide="id1" ooo:id-list="id3 id4 id5 id6 id7 id8 id9 id10 id11 id12 id13 id14 id15 id16 id17 id18 id19 id20 id21 id22 id23 id24 id25 id26 id27 id28 id29 id30 id31 id32 id33 id34 id35 id36"/>
 </defs>
 <defs class="EmbeddedBulletChars">
  <g id="bullet-char-template-57356" transform="scale(0.00048828125,-0.00048828125)">
   <path d="M 580,1141 L 1163,571 580,0 -4,571 580,1141 Z"/>
  </g>
  <g id="bullet-char-template-57354" transform="scale(0.00048828125,-0.00048828125)">
   <path d="M 8,1128 L 1137,1128 1137,0 8,0 8,1128 Z"/>
  </g>
  <g id="bullet-char-template-10146" transform="scale(0.00048828125,-0.00048828125)">
   <path d="M 174,0 L 602,739 174,1481 1456,739 174,0 Z M 1358,739 L 309,1346 659,739 1358,739 Z"/>
  </g>
  <g id="bullet-char-template-10132" transform="scale(0.00048828125,-0.00048828125)">
   <path d="M 2015,739 L 1276,0 717,0 1260,543 174,543 174,936 1260,936 717,1481 1274,1481 2015,739 Z"/>
  </g>
  <g id="bullet-char-template-10007" transform="scale(0.00048828125,-0.00048828125)">
   <path d="M 0,-2 C -7,14 -16,27 -25,37 L 356,567 C 262,823 215,952 215,954 215,979 228,992 255,992 264,992 276,990 289,987 310,991 331,999 354,1012 L 381,999 492,748 772,1049 836,1024 860,1049 C 881,1039 901,1025 922,1006 886,937 835,863 770,784 769,783 710,716 594,584 L 774,223 C 774,196 753,168 711,139 L 727,119 C 717,90 699,76 672,76 641,76 570,178 457,381 L 164,-76 C 142,-110 111,-127 72,-127 30,-127 9,-110 8,-76 1,-67 -2,-52 -2,-32 -2,-23 -1,-13 0,-2 Z"/>
  </g>
  <g id="bullet-char-template-10004" transform="scale(0.00048828125,-0.00048828125)">
   <path d="M 285,-33 C 182,-33 111,30 74,156 52,228 41,333 41,471 41,549 55,616 82,672 116,743 169,778 240,778 293,778 328,747 346,684 L 369,508 C 377,444 397,411 428,410 L 1163,1116 C 1174,1127 1196,1133 1229,1133 1271,1133 1292,1118 1292,1087 L 1292,965 C 1292,929 1282,901 1262,881 L 442,47 C 390,-6 338,-33 285,-33 Z"/>
  </g>
  <g id="bullet-char-template-9679" transform="scale(0.00048828125,-0.00048828125)">
   <path d="M 813,0 C 632,0 489,54 383,161 276,268 223,411 223,592 223,773 276,916 383,1023 489,1130 632,1184 813,1184 992,1184 1136,1130 1245,1023 1353,916 1407,772 1407,592 1407,412 1353,268 1245,161 1136,54 992,0 813,0 Z"/>
  </g>
  <g id="bullet-char-template-8226" transform="scale(0.00048828125,-0.00048828125)">
   <path d="M 346,457 C 273,457 209,483 155,535 101,586 74,649 74,723 74,796 101,859 155,911 209,963 273,989 346,989 419,989 480,963 531,910 582,859 608,796 608,723 608,648 583,586 532,535 482,483 420,457 346,457 Z"/>
  </g>
  <g id="bullet-char-template-8211" transform="scale(0.00048828125,-0.00048828125)">
   <path d="M -4,459 L 1135,459 1135,606 -4,606 -4,459 Z"/>
  </g>
  <g id="bullet-char-template-61548" transform="scale(0.00048828125,-0.00048828125)">
   <path d="M 173,740 C 173,903 231,1043 346,1159 462,1274 601,1332 765,1332 928,1332 1067,1274 1183,1159 1299,1043 1357,903 1357,740 1357,577 1299,437 1183,322 1067,206 928,148 765,148 601,148 462,206 346,322 231,437 173,577 173,740 Z"/>
  </g>
 </defs>
 <defs class="TextEmbeddedBitmaps"/>
 <g class="SlideGroup">
  <g>
   <g id="container-id1">
    <g id="id1" class="Slide" clip-path="url(#presentation_clip_path)">
     <g class="Page">
      <g class="com.sun.star.drawing.CustomShape">
       <g id="id3">
        <rect class="BoundingBox" stroke="none" fill="none" x="1999" y="2499" width="3503" height="2103"/>
        <g>
         <defs>
          <linearGradient id="gradient1" x1="1999" y1="3550" x2="5501" y2="3550" gradientUnits="userSpaceOnUse">
           <stop offset="0" style="stop-color:rgb(255,255,215)"/>
           <stop offset="1" style="stop-color:rgb(80,32,12)"/>
          </linearGradient>
         </defs>
         <path style="fill:url(#gradient1)" d="M 3750,2499 L 3869,2502 3983,2508 4095,2519 4204,2534 4311,2553 4416,2577 4521,2606 4625,2640 4726,2678 4820,2718 4908,2760 4990,2806 5066,2855 5137,2908 5204,2964 5266,3025 5322,3087 5371,3150 5411,3214 5428,3245 5444,3278 5457,3310 5469,3343 5479,3376 5487,3410 5493,3444 5497,3479 5501,3550 5497,3621 5493,3656 5487,3690 5479,3724 5469,3757 5457,3790 5444,3822 5428,3855 5411,3886 5371,3950 5322,4013 5266,4075 5204,4136 5137,4192 5066,4245 4990,4294 4908,4340 4820,4382 4726,4422 4625,4460 4521,4494 4416,4523 4311,4547 4204,4566 4095,4581 3983,4592 3869,4598 3750,4601 3631,4598 3517,4592 3405,4581 3296,4566 3189,4547 3084,4523 2979,4494 2875,4460 2774,4422 2680,4382 2592,4340 2510,4294 2434,4245 2363,4192 2296,4136 2234,4075 2178,4013 2129,3950 2089,3886 2072,3855 2056,3822 2043,3790 2031,3757 2021,3724 2013,3690 2007,3656 2003,3621 2000,3550 2003,3479 2007,3444 2013,3410 2021,3376 2031,3343 2043,3310 2056,3278 2072,3245 2089,3214 2129,3150 2178,3087 2234,3025 2296,2964 2363,2908 2434,2855 2510,2806 2592,2760 2680,2718 2774,2678 2875,2640 2979,2606 3084,2577 3189,2553 3296,2534 3405,2519 3517,2508 3631,2502 3750,2499 3750,2499 Z"/>
        </g>
       </g>
      </g>
      <g class="com.sun.star.drawing.CustomShape">
       <g id="id4">
        <rect class="BoundingBox" stroke="none" fill="none" x="4152" y="2610" width="1259" height="427"/>
        <g>
         <defs>
          <linearGradient id="gradient2" x1="4532" y1="2391" x2="5031" y2="3254" gradientUnits="userSpaceOnUse">
           <stop offset="0" style="stop-color:rgb(178,178,178)"/>
           <stop offset="1" style="stop-color:rgb(80,32,12)"/>
          </linearGradient>
         </defs>
         <path style="fill:url(#gradient2)" d="M 4816,2657 L 4899,2676 4977,2697 5052,2720 5125,2745 5192,2772 5250,2799 5276,2813 5299,2826 5321,2840 5342,2854 5360,2869 5375,2882 5387,2895 5392,2902 5397,2908 5401,2914 5404,2920 5406,2926 5408,2932 5409,2938 5409,2944 5409,2949 5408,2955 5407,2961 5405,2966 5402,2971 5399,2976 5395,2981 5390,2985 5385,2990 5379,2994 5372,2998 5365,3001 5348,3008 5329,3015 5307,3020 5282,3025 5257,3029 5229,3032 5200,3034 5137,3035 5064,3033 4987,3027 4910,3018 4830,3005 4746,2989 4663,2970 4585,2949 4510,2926 4437,2900 4370,2873 4312,2847 4286,2833 4263,2819 4241,2805 4220,2791 4202,2777 4187,2763 4175,2750 4170,2744 4165,2738 4161,2732 4158,2726 4156,2720 4154,2714 4153,2708 4153,2702 4153,2696 4154,2691 4155,2685 4157,2680 4160,2674 4163,2669 4167,2665 4172,2660 4177,2656 4183,2652 4190,2648 4197,2644 4214,2637 4233,2631 4255,2625 4280,2620 4305,2617 4333,2614 4362,2612 4425,2610 4498,2613 4575,2619 4652,2628 4732,2641 4816,2657 4816,2657 Z"/>
        </g>
       </g>
      </g>
      <g class="com.sun.star.drawing.CustomShape">
       <g id="id5">
        <rect class="BoundingBox" stroke="none" fill="none" x="4000" y="2900" width="902" height="902"/>
        <path fill="rgb(85,48,141)" stroke="none" d="M 4000,2900 L 4901,3801 4000,3801 4000,2900 4000,2900 Z"/>
       </g>
      </g>
      <g class="com.sun.star.drawing.CustomShape">
       <g id="id6">
        <rect class="BoundingBox" stroke="none" fill="none" x="948" y="2216" width="1922" height="1189"/>
        <path fill="rgb(0,0,0)" stroke="none" d="M 1765,2557 C 1940,2458 2094,2385 2259,2323 2423,2260 2548,2228 2658,2219 2768,2210 2830,2227 2857,2274 2883,2320 2866,2383 2801,2472 2737,2562 2645,2653 2507,2761 2369,2870 2226,2965 2052,3063 1877,3162 1723,3235 1558,3298 1394,3360 1269,3392 1159,3401 1049,3410 987,3393 960,3346 934,3300 951,3238 1016,3148 1080,3058 1172,2968 1310,2859 1448,2750 1591,2656 1765,2557 L 1765,2557 Z"/>
       </g>
      </g>
      <g class="com.sun.star.drawing.CustomShape">
       <g id="id7">
        <rect class="BoundingBox" stroke="none" fill="none" x="988" y="3133" width="263" height="277"/>
        <path fill="rgb(255,255,0)" stroke="none" d="M 1220,3389 C 1204,3402 1187,3408 1165,3409 1142,3409 1121,3404 1098,3391 1074,3379 1055,3363 1036,3342 1018,3320 1006,3298 997,3273 989,3248 987,3226 991,3204 995,3182 1004,3166 1019,3153 1034,3140 1052,3134 1074,3134 1097,3133 1118,3139 1141,3151 1165,3163 1184,3179 1202,3201 1221,3222 1233,3244 1242,3269 1250,3294 1252,3316 1248,3338 1244,3360 1235,3376 1220,3389 L 1220,3389 Z"/>
       </g>
      </g>
      <g class="com.sun.star.drawing.CustomShape">
       <g id="id8">
        <rect class="BoundingBox" stroke="none" fill="none" x="1799" y="1899" width="1303" height="1103"/>
        <g>
         <defs>
          <linearGradient id="gradient3" x1="2450" y1="3000" x2="2450" y2="1899" gradientUnits="userSpaceOnUse">
           <stop offset="0" style="stop-color:rgb(255,255,215)"/>
           <stop offset="1" style="stop-color:rgb(238,238,238)"/>
          </linearGradient>
         </defs>
         <path style="fill:url(#gradient3)" d="M 2450,1900 L 2494,1901 2537,1904 2578,1909 2619,1917 2658,1928 2698,1940 2736,1956 2775,1973 2813,1993 2848,2014 2880,2036 2911,2060 2939,2086 2965,2113 2990,2143 3013,2175 3034,2208 3052,2241 3067,2274 3079,2307 3089,2342 3095,2377 3099,2413 3101,2450 3099,2487 3095,2523 3089,2558 3079,2593 3067,2626 3052,2659 3034,2692 3013,2725 2990,2757 2965,2787 2939,2814 2911,2840 2880,2864 2848,2886 2813,2907 2775,2927 2736,2944 2698,2960 2658,2972 2619,2983 2578,2991 2537,2996 2494,2999 2450,3001 2406,2999 2363,2996 2322,2991 2281,2983 2242,2972 2202,2960 2164,2944 2125,2927 2087,2907 2052,2886 2020,2864 1989,2840 1961,2814 1935,2787 1910,2757 1887,2725 1866,2692 1848,2659 1833,2626 1821,2593 1811,2558 1805,2523 1801,2487 1800,2450 1801,2413 1805,2377 1811,2342 1821,2307 1833,2274 1848,2241 1866,2208 1887,2175 1910,2143 1935,2113 1961,2086 1989,2060 2020,2036 2052,2014 2087,1993 2125,1973 2164,1956 2202,1940 2242,1928 2281,1917 2322,1909 2363,1904 2406,1901 2450,1900 2450,1900 Z"/>
        </g>
       </g>
      </g>
      <g class="com.sun.star.drawing.LineShape">
       <g id="id9">
        <rect class="BoundingBox" stroke="none" fill="none" x="2041" y="2647" width="413" height="387"/>
        <path fill="none" stroke="rgb(0,0,0)" stroke-width="106" stroke-linejoin="round" d="M 2094,2980 L 2400,2700"/>
       </g>
      </g>
      <g class="com.sun.star.drawing.LineShape">
       <g id="id10">
        <rect class="BoundingBox" stroke="none" fill="none" x="1747" y="2347" width="507" height="307"/>
        <path fill="none" stroke="rgb(0,0,0)" stroke-width="106" stroke-linejoin="round" d="M 1800,2600 L 2200,2400"/>
       </g>
      </g>
      <g class="com.sun.star.drawing.LineShape">
       <g id="id11">
        <rect class="BoundingBox" stroke="none" fill="none" x="2147" y="2247" width="607" height="207"/>
        <path fill="none" stroke="rgb(0,0,0)" stroke-width="106" stroke-linejoin="round" d="M 2200,2400 L 2700,2300"/>
       </g>
      </g>
      <g class="com.sun.star.drawing.CustomShape">
       <g id="id12">
        <rect class="BoundingBox" stroke="none" fill="none" x="2070" y="2267" width="272" height="273"/>
        <path fill="rgb(0,0,0)" stroke="none" d="M 2206,2308 C 2223,2308 2238,2312 2253,2321 2268,2329 2279,2340 2288,2356 2297,2371 2300,2386 2300,2403 2300,2420 2297,2435 2288,2451 2279,2466 2268,2477 2253,2485 2238,2494 2223,2498 2206,2498 2189,2498 2174,2494 2159,2485 2144,2477 2133,2466 2124,2451 2115,2435 2111,2420 2111,2403 2111,2386 2115,2371 2124,2356 2133,2340 2144,2329 2159,2321 2174,2312 2189,2308 2206,2308 L 2206,2308 Z"/>
        <path fill="none" stroke="rgb(75,34,4)" stroke-width="81" stroke-linejoin="round" d="M 2206,2308 C 2223,2308 2238,2312 2253,2321 2268,2329 2279,2340 2288,2356 2297,2371 2300,2386 2300,2403 2300,2420 2297,2435 2288,2451 2279,2466 2268,2477 2253,2485 2238,2494 2223,2498 2206,2498 2189,2498 2174,2494 2159,2485 2144,2477 2133,2466 2124,2451 2115,2435 2111,2420 2111,2403 2111,2386 2115,2371 2124,2356 2133,2340 2144,2329 2159,2321 2174,2312 2189,2308 2206,2308 Z"/>
       </g>
      </g>
      <g class="com.sun.star.drawing.EllipseShape">
       <g id="id13">
        <rect class="BoundingBox" stroke="none" fill="none" x="1720" y="1820" width="1218" height="962"/>
        <path fill="none" stroke="rgb(0,0,0)" stroke-width="159" stroke-linejoin="round" d="M 1800,2701 C 1804,2636 1812,2581 1827,2518 1862,2377 1918,2264 2004,2158 2091,2051 2183,1983 2298,1939 2413,1895 2517,1889 2630,1919 2718,1943 2787,1982 2857,2047"/>
       </g>
      </g>
      <g class="com.sun.star.drawing.LineShape">
       <g id="id14">
        <rect class="BoundingBox" stroke="none" fill="none" x="4443" y="4231" width="720" height="549"/>
        <path fill="none" stroke="rgb(255,128,0)" stroke-width="247" stroke-linejoin="round" d="M 4567,4355 L 5038,4655"/>
       </g>
      </g>
      <g class="com.sun.star.drawing.CustomShape">
       <g id="id15">
        <rect class="BoundingBox" stroke="none" fill="none" x="4961" y="4382" width="865" height="629"/>
        <path fill="rgb(255,134,13)" stroke="none" d="M 5825,4382 L 5779,5010 4962,4793 4984,4480 5825,4382 Z"/>
       </g>
      </g>
      <g class="com.sun.star.drawing.CustomShape">
       <g id="id16">
        <rect class="BoundingBox" stroke="none" fill="none" x="3799" y="2558" width="703" height="353"/>
        <g>
         <defs>
          <linearGradient id="gradient4" x1="3986" y1="2451" x2="4314" y2="3018" gradientUnits="userSpaceOnUse">
           <stop offset="0" style="stop-color:rgb(178,178,178)"/>
           <stop offset="1" style="stop-color:rgb(80,32,12)"/>
          </linearGradient>
         </defs>
         <path style="fill:url(#gradient4)" d="M 4150,2559 L 4197,2560 4219,2562 4241,2564 4262,2567 4283,2572 4304,2576 4325,2582 4345,2588 4364,2595 4382,2602 4398,2610 4414,2618 4428,2627 4441,2636 4454,2646 4465,2657 4474,2667 4483,2678 4486,2683 4489,2689 4492,2694 4494,2699 4496,2705 4498,2711 4499,2716 4500,2722 4500,2728 4501,2734 4500,2740 4500,2746 4499,2752 4498,2757 4496,2763 4494,2769 4492,2774 4489,2779 4486,2785 4483,2790 4474,2801 4465,2811 4454,2822 4441,2832 4428,2841 4414,2850 4398,2858 4382,2866 4364,2873 4345,2880 4325,2886 4304,2892 4283,2896 4262,2901 4241,2904 4219,2906 4197,2908 4150,2910 4103,2908 4081,2906 4059,2904 4038,2901 4017,2896 3996,2892 3975,2886 3955,2880 3936,2873 3918,2866 3902,2858 3886,2850 3872,2841 3859,2832 3846,2822 3835,2811 3826,2801 3817,2790 3814,2785 3811,2779 3808,2774 3806,2769 3804,2763 3802,2757 3801,2752 3800,2746 3800,2740 3800,2734 3800,2728 3800,2722 3801,2716 3802,2711 3804,2705 3806,2699 3808,2694 3811,2689 3814,2683 3817,2678 3826,2667 3835,2657 3846,2646 3859,2636 3872,2627 3886,2618 3902,2610 3918,2602 3936,2595 3955,2588 3975,2582 3996,2576 4017,2572 4038,2567 4059,2564 4081,2562 4103,2560 4150,2559 Z"/>
        </g>
       </g>
      </g>
      <g class="com.sun.star.drawing.CustomShape">
       <g id="id17">
        <rect class="BoundingBox" stroke="none" fill="none" x="3809" y="3880" width="783" height="441"/>
        <g>
         <defs>
          <linearGradient id="gradient5" x1="4007" y1="3766" x2="4393" y2="4434" gradientUnits="userSpaceOnUse">
           <stop offset="0" style="stop-color:rgb(178,178,178)"/>
           <stop offset="1" style="stop-color:rgb(80,32,12)"/>
          </linearGradient>
         </defs>
         <path style="fill:url(#gradient5)" d="M 4252,3906 L 4303,3922 4327,3930 4351,3940 4373,3950 4395,3960 4417,3972 4438,3984 4459,3997 4478,4010 4495,4023 4511,4037 4525,4050 4538,4064 4550,4078 4561,4093 4570,4108 4578,4123 4584,4137 4586,4144 4588,4150 4589,4157 4590,4164 4591,4171 4591,4177 4590,4184 4590,4191 4588,4197 4587,4204 4585,4211 4582,4217 4580,4223 4577,4229 4573,4235 4569,4240 4565,4246 4561,4251 4556,4256 4550,4261 4538,4270 4524,4279 4509,4287 4492,4294 4475,4301 4456,4306 4437,4311 4417,4314 4395,4317 4372,4319 4348,4320 4324,4320 4299,4319 4274,4317 4250,4314 4225,4311 4200,4306 4148,4294 4097,4278 4073,4270 4049,4260 4027,4250 4005,4240 3983,4228 3962,4216 3941,4203 3922,4190 3905,4177 3889,4163 3875,4150 3862,4136 3850,4122 3839,4107 3830,4092 3822,4077 3816,4063 3814,4056 3812,4050 3811,4043 3810,4036 3809,4029 3809,4023 3810,4016 3810,4009 3812,4003 3813,3996 3815,3989 3818,3983 3820,3977 3823,3971 3827,3965 3831,3960 3835,3954 3839,3949 3844,3944 3850,3939 3862,3930 3876,3921 3891,3913 3908,3906 3925,3899 3944,3894 3963,3889 3983,3886 4005,3883 4028,3881 4052,3880 4076,3880 4101,3881 4126,3883 4150,3886 4175,3889 4200,3894 4252,3906 Z"/>
        </g>
       </g>
      </g>
      <g class="com.sun.star.drawing.CustomShape">
       <g id="id18">
        <rect class="BoundingBox" stroke="none" fill="none" x="4205" y="3685" width="791" height="429"/>
        <g>
         <defs>
          <linearGradient id="gradient6" x1="4409" y1="3568" x2="4791" y2="4230" gradientUnits="userSpaceOnUse">
           <stop offset="0" style="stop-color:rgb(178,178,178)"/>
           <stop offset="1" style="stop-color:rgb(80,32,12)"/>
          </linearGradient>
         </defs>
         <path style="fill:url(#gradient6)" d="M 4641,3703 L 4693,3715 4718,3723 4742,3731 4765,3739 4787,3749 4810,3759 4832,3770 4853,3782 4872,3794 4890,3806 4907,3819 4922,3831 4936,3845 4948,3858 4960,3872 4970,3887 4979,3901 4985,3915 4988,3921 4990,3928 4992,3935 4993,3941 4994,3948 4994,3955 4994,3961 4994,3968 4993,3975 4992,3982 4990,3988 4988,3995 4986,4001 4983,4007 4980,4013 4977,4019 4973,4024 4968,4030 4964,4035 4959,4040 4947,4050 4934,4060 4919,4069 4902,4077 4885,4084 4867,4091 4848,4096 4828,4101 4807,4105 4784,4108 4760,4110 4735,4112 4711,4112 4686,4112 4662,4110 4637,4108 4611,4105 4559,4095 4507,4083 4482,4075 4458,4067 4435,4059 4413,4049 4390,4039 4368,4028 4347,4016 4328,4004 4310,3992 4293,3979 4278,3967 4264,3953 4252,3940 4240,3926 4230,3911 4221,3897 4215,3883 4212,3877 4210,3870 4208,3863 4207,3857 4206,3850 4206,3843 4206,3837 4206,3830 4207,3823 4208,3816 4210,3810 4212,3803 4214,3797 4217,3791 4220,3785 4223,3779 4227,3774 4232,3768 4236,3763 4241,3758 4253,3748 4266,3738 4281,3729 4298,3721 4315,3714 4333,3707 4352,3702 4372,3697 4393,3693 4416,3690 4440,3688 4465,3686 4489,3686 4514,3686 4538,3688 4563,3690 4589,3693 4641,3703 Z"/>
        </g>
       </g>
      </g>
      <g class="com.sun.star.drawing.CustomShape">
       <g id="id19">
        <rect class="BoundingBox" stroke="none" fill="none" x="3399" y="4199" width="803" height="403"/>
        <g>
         <defs>
          <linearGradient id="gradient7" x1="3613" y1="4076" x2="3988" y2="4725" gradientUnits="userSpaceOnUse">
           <stop offset="0" style="stop-color:rgb(178,178,178)"/>
           <stop offset="1" style="stop-color:rgb(80,32,12)"/>
          </linearGradient>
         </defs>
         <path style="fill:url(#gradient7)" d="M 3800,4200 L 3853,4201 3879,4203 3904,4206 3928,4210 3952,4214 3976,4220 4000,4226 4023,4234 4045,4241 4065,4249 4084,4258 4101,4267 4117,4277 4133,4288 4147,4300 4160,4312 4171,4324 4180,4336 4184,4342 4187,4348 4191,4354 4193,4360 4195,4367 4197,4373 4199,4380 4200,4386 4200,4393 4201,4400 4200,4407 4200,4414 4199,4420 4197,4427 4195,4433 4193,4440 4191,4446 4187,4452 4184,4458 4180,4464 4171,4476 4160,4488 4147,4500 4133,4512 4117,4523 4101,4533 4084,4542 4065,4551 4045,4559 4023,4566 4000,4574 3976,4580 3952,4586 3928,4590 3904,4594 3879,4597 3853,4599 3800,4601 3747,4599 3721,4597 3696,4594 3672,4590 3648,4586 3624,4580 3600,4574 3577,4566 3555,4559 3535,4551 3516,4542 3499,4533 3483,4523 3467,4512 3453,4500 3440,4488 3429,4476 3420,4464 3416,4458 3413,4452 3409,4446 3407,4440 3405,4433 3403,4427 3401,4420 3400,4414 3400,4407 3400,4400 3400,4393 3400,4386 3401,4380 3403,4373 3405,4367 3407,4360 3409,4354 3413,4348 3416,4342 3420,4336 3429,4324 3440,4312 3453,4300 3467,4288 3483,4277 3499,4267 3516,4258 3535,4249 3555,4241 3577,4234 3600,4226 3624,4220 3648,4214 3672,4210 3696,4206 3721,4203 3747,4201 3800,4200 3800,4200 Z"/>
        </g>
       </g>
      </g>
      <g class="com.sun.star.drawing.CustomShape">
       <g id="id20">
        <rect class="BoundingBox" stroke="none" fill="none" x="3173" y="3914" width="793" height="425"/>
        <g>
         <defs>
          <linearGradient id="gradient8" x1="3378" y1="3796" x2="3760" y2="4456" gradientUnits="userSpaceOnUse">
           <stop offset="0" style="stop-color:rgb(178,178,178)"/>
           <stop offset="1" style="stop-color:rgb(80,32,12)"/>
          </linearGradient>
         </defs>
         <path style="fill:url(#gradient8)" d="M 3608,3929 L 3660,3941 3684,3948 3708,3956 3732,3964 3754,3973 3777,3983 3799,3994 3820,4006 3840,4017 3858,4029 3875,4041 3890,4054 3904,4067 3917,4080 3929,4095 3939,4109 3948,4123 3954,4136 3957,4143 3959,4150 3961,4156 3962,4163 3963,4170 3964,4176 3964,4183 3964,4190 3963,4196 3962,4203 3960,4210 3959,4216 3956,4223 3954,4229 3951,4235 3947,4241 3943,4246 3939,4252 3935,4257 3930,4262 3918,4272 3905,4282 3890,4291 3874,4300 3857,4308 3839,4314 3820,4320 3800,4325 3779,4329 3756,4332 3732,4335 3707,4337 3683,4338 3658,4337 3633,4336 3608,4334 3583,4331 3530,4323 3478,4311 3454,4304 3430,4296 3406,4288 3384,4279 3361,4269 3339,4258 3318,4246 3298,4235 3280,4223 3263,4211 3248,4198 3234,4185 3221,4172 3209,4157 3199,4143 3190,4129 3184,4116 3181,4109 3179,4102 3177,4096 3176,4089 3175,4082 3174,4076 3174,4069 3174,4062 3175,4056 3176,4049 3178,4042 3179,4036 3182,4029 3184,4023 3187,4017 3191,4011 3195,4006 3199,4000 3203,3995 3208,3990 3220,3980 3233,3970 3248,3961 3264,3952 3281,3944 3299,3938 3318,3932 3338,3927 3359,3923 3382,3920 3406,3917 3431,3915 3455,3914 3480,3915 3505,3916 3530,3918 3555,3921 3608,3929 Z"/>
        </g>
       </g>
      </g>
      <g class="com.sun.star.drawing.CustomShape">
       <g id="id21">
        <rect class="BoundingBox" stroke="none" fill="none" x="3503" y="3690" width="795" height="419"/>
        <g>
         <defs>
          <linearGradient id="gradient9" x1="3710" y1="3571" x2="4090" y2="4227" gradientUnits="userSpaceOnUse">
           <stop offset="0" style="stop-color:rgb(178,178,178)"/>
           <stop offset="1" style="stop-color:rgb(80,32,12)"/>
          </linearGradient>
         </defs>
         <path style="fill:url(#gradient9)" d="M 3932,3701 L 3985,3711 4009,3717 4034,3724 4057,3732 4080,3740 4103,3750 4126,3760 4147,3770 4167,3781 4186,3793 4203,3804 4218,3816 4233,3829 4246,3842 4258,3856 4269,3870 4278,3883 4285,3897 4288,3903 4291,3910 4293,3916 4294,3923 4296,3930 4296,3936 4297,3943 4297,3950 4296,3956 4295,3963 4294,3970 4292,3977 4290,3983 4288,3989 4285,3995 4282,4001 4278,4007 4274,4012 4270,4018 4265,4023 4254,4034 4241,4044 4226,4054 4210,4063 4194,4071 4176,4078 4157,4085 4137,4090 4116,4095 4094,4099 4070,4103 4045,4105 4021,4107 3996,4107 3971,4107 3946,4106 3921,4104 3868,4097 3815,4087 3791,4081 3766,4074 3743,4066 3720,4058 3697,4048 3674,4038 3653,4028 3633,4017 3614,4005 3597,3994 3582,3982 3567,3969 3554,3956 3542,3942 3531,3928 3522,3915 3515,3901 3512,3895 3509,3888 3507,3882 3506,3875 3504,3868 3504,3862 3503,3855 3503,3848 3504,3842 3505,3835 3506,3828 3508,3821 3510,3815 3512,3809 3515,3803 3518,3797 3522,3791 3526,3786 3530,3780 3535,3775 3546,3764 3559,3754 3574,3744 3590,3735 3606,3727 3624,3720 3643,3713 3663,3708 3684,3703 3706,3699 3730,3695 3755,3693 3779,3691 3804,3691 3829,3691 3854,3692 3879,3694 3932,3701 Z"/>
        </g>
       </g>
      </g>
      <g class="com.sun.star.drawing.CustomShape">
       <g id="id22">
        <rect class="BoundingBox" stroke="none" fill="none" x="5085" y="3379" width="1221" height="573"/>
        <g>
         <defs>
          <linearGradient id="gradient10" x1="5419" y1="3187" x2="5971" y2="4143" gradientUnits="userSpaceOnUse">
           <stop offset="0" style="stop-color:rgb(178,178,178)"/>
           <stop offset="1" style="stop-color:rgb(80,32,12)"/>
          </linearGradient>
         </defs>
         <path style="fill:url(#gradient10)" d="M 5749,3410 L 5829,3429 5904,3452 5940,3464 5976,3478 6045,3508 6078,3525 6109,3541 6137,3558 6163,3575 6187,3593 6209,3611 6229,3629 6248,3648 6264,3668 6278,3687 6283,3696 6288,3705 6293,3714 6296,3723 6299,3732 6302,3741 6303,3749 6304,3758 6305,3767 6305,3776 6304,3784 6302,3793 6300,3802 6297,3810 6294,3818 6290,3826 6286,3834 6281,3841 6275,3848 6268,3855 6262,3862 6254,3868 6246,3874 6237,3881 6217,3892 6194,3903 6169,3913 6143,3922 6116,3930 6087,3936 6056,3941 6024,3945 5989,3948 5952,3950 5876,3950 5838,3948 5800,3945 5723,3935 5641,3920 5561,3901 5486,3878 5450,3866 5414,3852 5345,3822 5312,3805 5281,3789 5253,3772 5227,3755 5203,3737 5181,3719 5161,3701 5142,3682 5126,3662 5112,3643 5107,3634 5102,3625 5097,3616 5094,3607 5091,3598 5088,3589 5087,3581 5086,3572 5085,3563 5085,3554 5086,3546 5088,3537 5090,3528 5093,3520 5096,3512 5100,3504 5104,3496 5109,3489 5115,3482 5122,3475 5128,3468 5136,3462 5144,3456 5153,3449 5173,3438 5196,3427 5221,3417 5247,3408 5274,3400 5303,3394 5334,3389 5366,3385 5401,3382 5438,3380 5514,3380 5552,3382 5590,3385 5667,3395 5749,3410 5749,3410 Z"/>
        </g>
       </g>
      </g>
      <g class="com.sun.star.drawing.CustomShape">
       <g id="id23">
        <rect class="BoundingBox" stroke="none" fill="none" x="4673" y="2988" width="1219" height="471"/>
        <g>
         <defs>
          <linearGradient id="gradient11" x1="5028" y1="2784" x2="5536" y2="3662" gradientUnits="userSpaceOnUse">
           <stop offset="0" style="stop-color:rgb(178,178,178)"/>
           <stop offset="1" style="stop-color:rgb(80,32,12)"/>
          </linearGradient>
         </defs>
         <path style="fill:url(#gradient11)" d="M 5323,3027 L 5404,3045 5479,3066 5551,3090 5621,3117 5686,3146 5715,3160 5741,3175 5766,3189 5788,3205 5809,3220 5828,3236 5846,3252 5860,3267 5871,3282 5876,3289 5880,3296 5884,3303 5886,3310 5888,3317 5890,3324 5891,3331 5891,3338 5890,3344 5889,3351 5887,3358 5885,3364 5882,3370 5879,3376 5875,3382 5870,3387 5865,3393 5859,3398 5852,3403 5845,3407 5828,3416 5809,3424 5787,3432 5763,3439 5738,3444 5711,3449 5683,3453 5653,3455 5620,3457 5550,3457 5475,3453 5399,3446 5322,3435 5241,3419 5160,3401 5085,3380 5013,3356 4943,3329 4878,3300 4849,3286 4823,3271 4798,3257 4776,3241 4755,3226 4736,3210 4718,3194 4704,3179 4693,3164 4688,3157 4684,3150 4680,3143 4678,3136 4676,3129 4674,3122 4673,3115 4673,3108 4674,3102 4675,3095 4677,3088 4679,3082 4682,3076 4685,3070 4689,3064 4694,3059 4699,3053 4705,3048 4712,3043 4719,3039 4736,3030 4755,3022 4777,3014 4801,3007 4826,3002 4853,2997 4881,2993 4911,2991 4944,2989 5014,2989 5089,2993 5165,3000 5242,3011 5323,3027 5323,3027 Z"/>
        </g>
       </g>
      </g>
      <g class="com.sun.star.drawing.CustomShape">
       <g id="id24">
        <rect class="BoundingBox" stroke="none" fill="none" x="4407" y="3213" width="1151" height="621"/>
        <g>
         <defs>
          <linearGradient id="gradient12" x1="4704" y1="3042" x2="5260" y2="4004" gradientUnits="userSpaceOnUse">
           <stop offset="0" style="stop-color:rgb(178,178,178)"/>
           <stop offset="1" style="stop-color:rgb(80,32,12)"/>
          </linearGradient>
         </defs>
         <path style="fill:url(#gradient12)" d="M 5062,3339 L 5138,3374 5207,3410 5273,3448 5336,3488 5393,3530 5419,3550 5442,3569 5463,3589 5482,3608 5499,3627 5514,3647 5528,3666 5539,3683 5547,3700 5550,3708 5553,3716 5555,3724 5556,3731 5557,3738 5557,3745 5556,3752 5555,3759 5553,3765 5550,3772 5547,3778 5544,3784 5540,3789 5535,3794 5530,3799 5524,3804 5518,3808 5511,3811 5504,3815 5496,3818 5478,3823 5457,3827 5434,3830 5409,3832 5383,3832 5356,3832 5328,3829 5298,3826 5266,3821 5197,3806 5124,3788 5052,3765 4978,3738 4902,3707 4826,3672 4757,3636 4691,3598 4628,3558 4571,3516 4545,3496 4522,3477 4501,3457 4482,3438 4465,3419 4450,3399 4436,3380 4425,3363 4417,3346 4414,3338 4411,3330 4409,3322 4408,3315 4407,3308 4407,3301 4408,3294 4409,3287 4411,3281 4414,3274 4417,3268 4420,3262 4424,3257 4429,3252 4434,3247 4440,3242 4446,3238 4453,3235 4460,3231 4468,3228 4486,3223 4507,3219 4530,3216 4555,3214 4581,3214 4608,3214 4636,3217 4666,3220 4698,3225 4767,3240 4840,3258 4912,3281 4986,3308 5062,3339 5062,3339 Z"/>
        </g>
       </g>
      </g>
      <g class="com.sun.star.drawing.CustomShape">
       <g id="id25">
        <rect class="BoundingBox" stroke="none" fill="none" x="4473" y="3588" width="1219" height="471"/>
        <g>
         <defs>
          <linearGradient id="gradient13" x1="4828" y1="3384" x2="5336" y2="4262" gradientUnits="userSpaceOnUse">
           <stop offset="0" style="stop-color:rgb(178,178,178)"/>
           <stop offset="1" style="stop-color:rgb(80,32,12)"/>
          </linearGradient>
         </defs>
         <path style="fill:url(#gradient13)" d="M 5123,3627 L 5204,3645 5279,3666 5351,3690 5421,3717 5486,3746 5515,3760 5541,3775 5566,3789 5588,3805 5609,3820 5628,3836 5646,3852 5660,3867 5671,3882 5676,3889 5680,3896 5684,3903 5686,3910 5688,3917 5690,3924 5691,3931 5691,3938 5690,3944 5689,3951 5687,3958 5685,3964 5682,3970 5679,3976 5675,3982 5670,3987 5665,3993 5659,3998 5652,4003 5645,4007 5628,4016 5609,4024 5587,4032 5563,4039 5538,4044 5511,4049 5483,4053 5453,4055 5420,4057 5350,4057 5275,4053 5199,4046 5122,4035 5041,4019 4960,4001 4885,3980 4813,3956 4743,3929 4678,3900 4649,3886 4623,3871 4598,3857 4576,3841 4555,3826 4536,3810 4518,3794 4504,3779 4493,3764 4488,3757 4484,3750 4480,3743 4478,3736 4476,3729 4474,3722 4473,3715 4473,3708 4474,3702 4475,3695 4477,3688 4479,3682 4482,3676 4485,3670 4489,3664 4494,3659 4499,3653 4505,3648 4512,3643 4519,3639 4536,3630 4555,3622 4577,3614 4601,3607 4626,3602 4653,3597 4681,3593 4711,3591 4744,3589 4814,3589 4889,3593 4965,3600 5042,3611 5123,3627 5123,3627 Z"/>
        </g>
       </g>
      </g>
      <g class="com.sun.star.drawing.CustomShape">
       <g id="id26">
        <rect class="BoundingBox" stroke="none" fill="none" x="3392" y="3373" width="683" height="391"/>
        <g>
         <defs>
          <linearGradient id="gradient14" x1="3563" y1="3274" x2="3903" y2="3862" gradientUnits="userSpaceOnUse">
           <stop offset="0" style="stop-color:rgb(178,178,178)"/>
           <stop offset="1" style="stop-color:rgb(80,32,12)"/>
          </linearGradient>
         </defs>
         <path style="fill:url(#gradient14)" d="M 3782,3399 L 3826,3414 3847,3422 3867,3430 3887,3439 3906,3449 3925,3459 3944,3471 3961,3482 3978,3494 3992,3506 4006,3518 4018,3530 4030,3542 4040,3555 4049,3568 4057,3581 4063,3594 4068,3606 4070,3612 4071,3618 4073,3624 4073,3630 4074,3636 4074,3642 4073,3648 4072,3654 4071,3660 4070,3665 4068,3671 4066,3677 4063,3682 4061,3687 4057,3692 4054,3697 4050,3701 4046,3706 4042,3710 4037,3714 4026,3722 4014,3730 4000,3737 3985,3743 3970,3748 3954,3753 3937,3756 3919,3759 3900,3761 3880,3762 3859,3763 3837,3762 3816,3761 3795,3759 3773,3756 3752,3753 3730,3748 3684,3737 3640,3722 3619,3714 3599,3706 3579,3697 3560,3687 3541,3677 3522,3665 3505,3654 3488,3642 3474,3630 3460,3618 3448,3606 3436,3594 3426,3581 3417,3568 3409,3555 3403,3542 3398,3530 3396,3524 3395,3518 3393,3512 3393,3506 3392,3500 3392,3494 3393,3488 3394,3482 3395,3476 3396,3471 3398,3465 3400,3459 3403,3454 3405,3449 3409,3444 3412,3439 3416,3435 3420,3430 3424,3426 3429,3422 3440,3414 3452,3406 3466,3399 3481,3393 3496,3388 3512,3383 3529,3380 3547,3377 3566,3375 3586,3374 3607,3373 3629,3374 3650,3375 3671,3377 3693,3380 3714,3383 3736,3388 3782,3399 3782,3399 Z"/>
        </g>
       </g>
      </g>
      <g class="com.sun.star.drawing.CustomShape">
       <g id="id27">
        <rect class="BoundingBox" stroke="none" fill="none" x="3973" y="2988" width="1219" height="471"/>
        <g>
         <defs>
          <linearGradient id="gradient15" x1="4328" y1="2784" x2="4836" y2="3662" gradientUnits="userSpaceOnUse">
           <stop offset="0" style="stop-color:rgb(178,178,178)"/>
           <stop offset="1" style="stop-color:rgb(80,32,12)"/>
          </linearGradient>
         </defs>
         <path style="fill:url(#gradient15)" d="M 4623,3027 L 4704,3045 4779,3066 4851,3090 4921,3117 4986,3146 5015,3160 5041,3175 5066,3189 5088,3205 5109,3220 5128,3236 5146,3252 5160,3267 5171,3282 5176,3289 5180,3296 5184,3303 5186,3310 5188,3317 5190,3324 5191,3331 5191,3338 5190,3344 5189,3351 5187,3358 5185,3364 5182,3370 5179,3376 5175,3382 5170,3387 5165,3393 5159,3398 5152,3403 5145,3407 5128,3416 5109,3424 5087,3432 5063,3439 5038,3444 5011,3449 4983,3453 4953,3455 4920,3457 4850,3457 4775,3453 4699,3446 4622,3435 4541,3419 4460,3401 4385,3380 4313,3356 4243,3329 4178,3300 4149,3286 4123,3271 4098,3257 4076,3241 4055,3226 4036,3210 4018,3194 4004,3179 3993,3164 3988,3157 3984,3150 3980,3143 3978,3136 3976,3129 3974,3122 3973,3115 3973,3108 3974,3102 3975,3095 3977,3088 3979,3082 3982,3076 3985,3070 3989,3064 3994,3059 3999,3053 4005,3048 4012,3043 4019,3039 4036,3030 4055,3022 4077,3014 4101,3007 4126,3002 4153,2997 4181,2993 4211,2991 4244,2989 4314,2989 4389,2993 4465,3000 4542,3011 4623,3027 4623,3027 Z"/>
        </g>
       </g>
      </g>
      <g class="com.sun.star.drawing.CustomShape">
       <g id="id28">
        <rect class="BoundingBox" stroke="none" fill="none" x="3967" y="2679" width="917" height="422"/>
        <g>
         <defs>
          <linearGradient id="gradient16" x1="4219" y1="2534" x2="4631" y2="3246" gradientUnits="userSpaceOnUse">
           <stop offset="0" style="stop-color:rgb(178,178,178)"/>
           <stop offset="1" style="stop-color:rgb(80,32,12)"/>
          </linearGradient>
         </defs>
         <path style="fill:url(#gradient16)" d="M 4455,2692 L 4515,2702 4572,2716 4599,2723 4626,2732 4652,2742 4679,2752 4704,2763 4727,2774 4749,2786 4769,2797 4787,2810 4804,2822 4820,2836 4835,2850 4848,2864 4858,2877 4863,2884 4867,2891 4871,2897 4874,2904 4876,2911 4879,2917 4880,2924 4881,2931 4882,2937 4882,2944 4882,2951 4881,2958 4880,2965 4878,2971 4876,2977 4873,2984 4870,2990 4867,2996 4863,3001 4859,3007 4854,3012 4848,3018 4842,3023 4836,3028 4822,3038 4805,3048 4787,3057 4768,3065 4748,3072 4727,3078 4704,3084 4680,3089 4655,3092 4627,3096 4599,3098 4571,3099 4543,3100 4515,3099 4457,3096 4395,3088 4335,3078 4278,3064 4251,3056 4224,3048 4198,3038 4171,3028 4146,3017 4123,3005 4101,2994 4081,2982 4063,2970 4046,2957 4030,2944 4015,2930 4002,2916 3992,2902 3987,2896 3983,2889 3979,2882 3976,2876 3974,2869 3971,2862 3970,2856 3969,2849 3968,2842 3968,2836 3968,2829 3969,2822 3970,2815 3972,2809 3974,2802 3977,2796 3980,2790 3983,2784 3987,2778 3992,2773 3996,2767 4002,2762 4008,2757 4014,2752 4028,2742 4045,2732 4063,2723 4082,2715 4102,2708 4123,2701 4146,2696 4170,2691 4195,2687 4223,2684 4251,2682 4279,2680 4307,2680 4335,2680 4393,2684 4455,2692 4455,2692 Z"/>
        </g>
       </g>
      </g>
      <g class="com.sun.star.drawing.CustomShape">
       <g id="id29">
        <rect class="BoundingBox" stroke="none" fill="none" x="3692" y="2773" width="683" height="391"/>
        <g>
         <defs>
          <linearGradient id="gradient17" x1="3863" y1="2674" x2="4203" y2="3262" gradientUnits="userSpaceOnUse">
           <stop offset="0" style="stop-color:rgb(178,178,178)"/>
           <stop offset="1" style="stop-color:rgb(80,32,12)"/>
          </linearGradient>
         </defs>
         <path style="fill:url(#gradient17)" d="M 4082,2799 L 4126,2814 4147,2822 4167,2830 4187,2839 4206,2849 4225,2859 4244,2871 4261,2882 4278,2894 4292,2906 4306,2918 4318,2930 4330,2942 4340,2955 4349,2968 4357,2981 4363,2994 4368,3006 4370,3012 4371,3018 4373,3024 4373,3030 4374,3036 4374,3042 4373,3048 4372,3054 4371,3060 4370,3065 4368,3071 4366,3077 4363,3082 4361,3087 4357,3092 4354,3097 4350,3101 4346,3106 4342,3110 4337,3114 4326,3122 4314,3130 4300,3137 4285,3143 4270,3148 4254,3153 4237,3156 4219,3159 4200,3161 4180,3162 4159,3163 4137,3162 4116,3161 4095,3159 4073,3156 4052,3153 4030,3148 3984,3137 3940,3122 3919,3114 3899,3106 3879,3097 3860,3087 3841,3077 3822,3065 3805,3054 3788,3042 3774,3030 3760,3018 3748,3006 3736,2994 3726,2981 3717,2968 3709,2955 3703,2942 3698,2930 3696,2924 3695,2918 3693,2912 3693,2906 3692,2900 3692,2894 3693,2888 3694,2882 3695,2876 3696,2871 3698,2865 3700,2859 3703,2854 3705,2849 3709,2844 3712,2839 3716,2835 3720,2830 3724,2826 3729,2822 3740,2814 3752,2806 3766,2799 3781,2793 3796,2788 3812,2783 3829,2780 3847,2777 3866,2775 3886,2774 3907,2773 3929,2774 3950,2775 3971,2777 3993,2780 4014,2783 4036,2788 4082,2799 Z"/>
        </g>
       </g>
      </g>
      <g class="com.sun.star.drawing.CustomShape">
       <g id="id30">
        <rect class="BoundingBox" stroke="none" fill="none" x="3566" y="2443" width="703" height="353"/>
        <g>
         <defs>
          <linearGradient id="gradient18" x1="3753" y1="2336" x2="4081" y2="2903" gradientUnits="userSpaceOnUse">
           <stop offset="0" style="stop-color:rgb(178,178,178)"/>
           <stop offset="1" style="stop-color:rgb(80,32,12)"/>
          </linearGradient>
         </defs>
         <path style="fill:url(#gradient18)" d="M 3917,2444 L 3964,2445 3986,2447 4008,2449 4029,2452 4050,2457 4071,2461 4092,2467 4112,2473 4131,2480 4149,2487 4165,2495 4181,2503 4195,2512 4208,2521 4221,2531 4232,2542 4241,2552 4250,2563 4253,2568 4256,2574 4259,2579 4261,2584 4263,2590 4265,2596 4266,2601 4267,2607 4267,2613 4268,2619 4267,2625 4267,2631 4266,2637 4265,2642 4263,2648 4261,2654 4259,2659 4256,2664 4253,2670 4250,2675 4241,2686 4232,2696 4221,2707 4208,2717 4195,2726 4181,2735 4165,2743 4149,2751 4131,2758 4112,2765 4092,2771 4071,2777 4050,2781 4029,2786 4008,2789 3986,2791 3964,2793 3917,2795 3870,2793 3848,2791 3826,2789 3805,2786 3784,2781 3763,2777 3742,2771 3722,2765 3703,2758 3685,2751 3669,2743 3653,2735 3639,2726 3626,2717 3613,2707 3602,2696 3593,2686 3584,2675 3581,2670 3578,2664 3575,2659 3573,2654 3571,2648 3569,2642 3568,2637 3567,2631 3567,2625 3567,2619 3567,2613 3567,2607 3568,2601 3569,2596 3571,2590 3573,2584 3575,2579 3578,2574 3581,2568 3584,2563 3593,2552 3602,2542 3613,2531 3626,2521 3639,2512 3653,2503 3669,2495 3685,2487 3703,2480 3722,2473 3742,2467 3763,2461 3784,2457 3805,2452 3826,2449 3848,2447 3870,2445 3917,2444 Z"/>
        </g>
       </g>
      </g>
      <g class="com.sun.star.drawing.CustomShape">
       <g id="id31">
        <rect class="BoundingBox" stroke="none" fill="none" x="3332" y="2676" width="703" height="353"/>
        <g>
         <defs>
          <linearGradient id="gradient19" x1="3519" y1="2569" x2="3847" y2="3136" gradientUnits="userSpaceOnUse">
           <stop offset="0" style="stop-color:rgb(178,178,178)"/>
           <stop offset="1" style="stop-color:rgb(80,32,12)"/>
          </linearGradient>
         </defs>
         <path style="fill:url(#gradient19)" d="M 3683,2677 L 3730,2678 3752,2680 3774,2682 3795,2685 3816,2690 3837,2694 3858,2700 3878,2706 3897,2713 3915,2720 3931,2728 3947,2736 3961,2745 3974,2754 3987,2764 3998,2775 4007,2785 4016,2796 4019,2801 4022,2807 4025,2812 4027,2817 4029,2823 4031,2829 4032,2834 4033,2840 4033,2846 4034,2852 4033,2858 4033,2864 4032,2870 4031,2875 4029,2881 4027,2887 4025,2892 4022,2897 4019,2903 4016,2908 4007,2919 3998,2929 3987,2940 3974,2950 3961,2959 3947,2968 3931,2976 3915,2984 3897,2991 3878,2998 3858,3004 3837,3010 3816,3014 3795,3019 3774,3022 3752,3024 3730,3026 3683,3028 3636,3026 3614,3024 3592,3022 3571,3019 3550,3014 3529,3010 3508,3004 3488,2998 3469,2991 3451,2984 3435,2976 3419,2968 3405,2959 3392,2950 3379,2940 3368,2929 3359,2919 3350,2908 3347,2903 3344,2897 3341,2892 3339,2887 3337,2881 3335,2875 3334,2870 3333,2864 3333,2858 3333,2852 3333,2846 3333,2840 3334,2834 3335,2829 3337,2823 3339,2817 3341,2812 3344,2807 3347,2801 3350,2796 3359,2785 3368,2775 3379,2764 3392,2754 3405,2745 3419,2736 3435,2728 3451,2720 3469,2713 3488,2706 3508,2700 3529,2694 3550,2690 3571,2685 3592,2682 3614,2680 3636,2678 3683,2677 3683,2677 Z"/>
        </g>
       </g>
      </g>
      <g class="com.sun.star.drawing.CustomShape">
       <g id="id32">
        <rect class="BoundingBox" stroke="none" fill="none" x="3100" y="2444" width="703" height="353"/>
        <g>
         <defs>
          <linearGradient id="gradient20" x1="3287" y1="2337" x2="3615" y2="2904" gradientUnits="userSpaceOnUse">
           <stop offset="0" style="stop-color:rgb(178,178,178)"/>
           <stop offset="1" style="stop-color:rgb(80,32,12)"/>
          </linearGradient>
         </defs>
         <path style="fill:url(#gradient20)" d="M 3451,2445 L 3498,2446 3520,2448 3542,2450 3563,2453 3584,2458 3605,2462 3626,2468 3646,2474 3665,2481 3683,2488 3699,2496 3715,2504 3729,2513 3742,2522 3755,2532 3766,2543 3775,2553 3784,2564 3787,2569 3790,2575 3793,2580 3795,2585 3797,2591 3799,2597 3800,2602 3801,2608 3801,2614 3802,2620 3801,2626 3801,2632 3800,2638 3799,2643 3797,2649 3795,2655 3793,2660 3790,2665 3787,2671 3784,2676 3775,2687 3766,2697 3755,2708 3742,2718 3729,2727 3715,2736 3699,2744 3683,2752 3665,2759 3646,2766 3626,2772 3605,2778 3584,2782 3563,2787 3542,2790 3520,2792 3498,2794 3451,2796 3404,2794 3382,2792 3360,2790 3339,2787 3318,2782 3297,2778 3276,2772 3256,2766 3237,2759 3219,2752 3203,2744 3187,2736 3173,2727 3160,2718 3147,2708 3136,2697 3127,2687 3118,2676 3115,2671 3112,2665 3109,2660 3107,2655 3105,2649 3103,2643 3102,2638 3101,2632 3101,2626 3101,2620 3101,2614 3101,2608 3102,2602 3103,2597 3105,2591 3107,2585 3109,2580 3112,2575 3115,2569 3118,2564 3127,2553 3136,2543 3147,2532 3160,2522 3173,2513 3187,2504 3203,2496 3219,2488 3237,2481 3256,2474 3276,2468 3297,2462 3318,2458 3339,2453 3360,2450 3382,2448 3404,2446 3451,2445 3451,2445 Z"/>
        </g>
       </g>
      </g>
      <g class="com.sun.star.drawing.CustomShape">
       <g id="id33">
        <rect class="BoundingBox" stroke="none" fill="none" x="3374" y="2939" width="683" height="391"/>
        <g>
         <defs>
          <linearGradient id="gradient21" x1="3545" y1="2840" x2="3885" y2="3428" gradientUnits="userSpaceOnUse">
           <stop offset="0" style="stop-color:rgb(178,178,178)"/>
           <stop offset="1" style="stop-color:rgb(80,32,12)"/>
          </linearGradient>
         </defs>
         <path style="fill:url(#gradient21)" d="M 3764,2965 L 3808,2980 3829,2988 3849,2996 3869,3005 3888,3015 3907,3025 3926,3037 3943,3048 3960,3060 3974,3072 3988,3084 4000,3096 4012,3108 4022,3121 4031,3134 4039,3147 4045,3160 4050,3172 4052,3178 4053,3184 4055,3190 4055,3196 4056,3202 4056,3208 4055,3214 4054,3220 4053,3226 4052,3231 4050,3237 4048,3243 4045,3248 4043,3253 4039,3258 4036,3263 4032,3267 4028,3272 4024,3276 4019,3280 4008,3288 3996,3296 3982,3303 3967,3309 3952,3314 3936,3319 3919,3322 3901,3325 3882,3327 3862,3328 3841,3329 3819,3328 3798,3327 3777,3325 3755,3322 3734,3319 3712,3314 3666,3303 3622,3288 3601,3280 3581,3272 3561,3263 3542,3253 3523,3243 3504,3231 3487,3220 3470,3208 3456,3196 3442,3184 3430,3172 3418,3160 3408,3147 3399,3134 3391,3121 3385,3108 3380,3096 3378,3090 3377,3084 3375,3078 3375,3072 3374,3066 3374,3060 3375,3054 3376,3048 3377,3042 3378,3037 3380,3031 3382,3025 3385,3020 3387,3015 3391,3010 3394,3005 3398,3001 3402,2996 3406,2992 3411,2988 3422,2980 3434,2972 3448,2965 3463,2959 3478,2954 3494,2949 3511,2946 3529,2943 3548,2941 3568,2940 3589,2939 3611,2940 3632,2941 3653,2943 3675,2946 3696,2949 3718,2954 3764,2965 Z"/>
        </g>
       </g>
      </g>
      <g class="com.sun.star.drawing.LineShape">
       <g id="id34">
        <rect class="BoundingBox" stroke="none" fill="none" x="1410" y="2711" width="290" height="187"/>
        <path fill="none" stroke="rgb(102,102,102)" stroke-width="81" stroke-linejoin="round" d="M 1451,2856 L 1658,2752"/>
       </g>
      </g>
      <g class="com.sun.star.drawing.CustomShape">
       <g id="id35">
        <rect class="BoundingBox" stroke="none" fill="none" x="3392" y="3173" width="683" height="391"/>
        <g>
         <defs>
          <linearGradient id="gradient22" x1="3563" y1="3074" x2="3903" y2="3662" gradientUnits="userSpaceOnUse">
           <stop offset="0" style="stop-color:rgb(178,178,178)"/>
           <stop offset="1" style="stop-color:rgb(80,32,12)"/>
          </linearGradient>
         </defs>
         <path style="fill:url(#gradient22)" d="M 3782,3199 L 3826,3214 3847,3222 3867,3230 3887,3239 3906,3249 3925,3259 3944,3271 3961,3282 3978,3294 3992,3306 4006,3318 4018,3330 4030,3342 4040,3355 4049,3368 4057,3381 4063,3394 4068,3406 4070,3412 4071,3418 4073,3424 4073,3430 4074,3436 4074,3442 4073,3448 4072,3454 4071,3460 4070,3465 4068,3471 4066,3477 4063,3482 4061,3487 4057,3492 4054,3497 4050,3501 4046,3506 4042,3510 4037,3514 4026,3522 4014,3530 4000,3537 3985,3543 3970,3548 3954,3553 3937,3556 3919,3559 3900,3561 3880,3562 3859,3563 3837,3562 3816,3561 3795,3559 3773,3556 3752,3553 3730,3548 3684,3537 3640,3522 3619,3514 3599,3506 3579,3497 3560,3487 3541,3477 3522,3465 3505,3454 3488,3442 3474,3430 3460,3418 3448,3406 3436,3394 3426,3381 3417,3368 3409,3355 3403,3342 3398,3330 3396,3324 3395,3318 3393,3312 3393,3306 3392,3300 3392,3294 3393,3288 3394,3282 3395,3276 3396,3271 3398,3265 3400,3259 3403,3254 3405,3249 3409,3244 3412,3239 3416,3235 3420,3230 3424,3226 3429,3222 3440,3214 3452,3206 3466,3199 3481,3193 3496,3188 3512,3183 3529,3180 3547,3177 3566,3175 3586,3174 3607,3173 3629,3174 3650,3175 3671,3177 3693,3180 3714,3183 3736,3188 3782,3199 3782,3199 Z"/>
        </g>
       </g>
      </g>
      <g class="com.sun.star.drawing.CustomShape">
       <g id="id36">
        <rect class="BoundingBox" stroke="none" fill="none" x="3219" y="3636" width="567" height="363"/>
        <g>
         <defs>
          <linearGradient id="gradient23" x1="3353" y1="3559" x2="3651" y2="4075" gradientUnits="userSpaceOnUse">
           <stop offset="0" style="stop-color:rgb(178,178,178)"/>
           <stop offset="1" style="stop-color:rgb(80,32,12)"/>
          </linearGradient>
         </defs>
         <path style="fill:url(#gradient23)" d="M 3553,3659 L 3571,3666 3589,3673 3606,3680 3623,3688 3639,3696 3654,3705 3670,3715 3685,3725 3699,3736 3712,3747 3724,3757 3734,3768 3744,3780 3753,3791 3761,3803 3768,3815 3774,3828 3778,3839 3782,3851 3783,3857 3784,3862 3784,3868 3785,3873 3784,3879 3784,3884 3783,3890 3782,3895 3781,3901 3780,3906 3778,3911 3776,3917 3773,3922 3771,3926 3768,3931 3765,3935 3761,3940 3757,3944 3753,3948 3749,3952 3740,3959 3729,3966 3717,3973 3704,3979 3691,3984 3677,3988 3663,3992 3648,3994 3632,3996 3615,3998 3597,3998 3579,3998 3561,3997 3543,3995 3525,3993 3507,3989 3489,3985 3470,3980 3451,3975 3433,3968 3415,3961 3398,3954 3381,3946 3365,3938 3350,3929 3334,3919 3319,3909 3305,3898 3292,3887 3280,3877 3270,3866 3260,3854 3251,3843 3243,3831 3236,3819 3230,3806 3226,3795 3222,3783 3221,3777 3220,3772 3220,3766 3219,3761 3220,3755 3220,3750 3221,3744 3222,3739 3223,3733 3224,3728 3226,3723 3228,3717 3231,3712 3233,3708 3236,3703 3239,3699 3243,3694 3247,3690 3251,3686 3255,3682 3264,3675 3275,3668 3287,3661 3300,3655 3313,3650 3327,3646 3341,3642 3356,3640 3372,3638 3389,3636 3407,3636 3425,3636 3443,3637 3461,3639 3479,3641 3497,3645 3515,3649 3534,3654 3553,3659 Z"/>
        </g>
       </g>
      </g>
     </g>
    </g>
   </g>
  </g>
 </g>
</svg>