<?xml version="1.0" encoding="UTF-8"?>
<!DOCTYPE svg PUBLIC "-//W3C//DTD SVG 1.1//EN" "http://www.w3.org/Graphics/SVG/1.1/DTD/svg11.dtd">
<svg version="1.2" width="64.64mm" height="45.33mm" viewBox="322 1621 6464 4533" preserveAspectRatio="xMidYMid" fill-rule="evenodd" stroke-width="28.222" stroke-linejoin="round" xmlns="http://www.w3.org/2000/svg" xmlns:ooo="http://xml.openoffice.org/svg/export" xmlns:xlink="http://www.w3.org/1999/xlink" xmlns:presentation="http://sun.com/xmlns/staroffice/presentation" xmlns:smil="http://www.w3.org/2001/SMIL20/" xmlns:anim="urn:oasis:names:tc:opendocument:xmlns:animation:1.0" xml:space="preserve">
 <defs class="ClipPathGroup">
  <clipPath id="presentation_clip_path" clipPathUnits="userSpaceOnUse">
   <rect x="322" y="1621" width="6464" height="4533"/>
  </clipPath>
  <clipPath id="presentation_clip_path_shrink" clipPathUnits="userSpaceOnUse">
   <rect x="328" y="1625" width="6452" height="4524"/>
  </clipPath>
 </defs>
 <defs class="TextShapeIndex">
  <g ooo:slide="id1" ooo:id-list="id3 id4 id5 id6 id7 id8 id9 id10 id11 id12 id13 id14 id15 id16"/>
 </defs>
 <defs class="EmbeddedBulletChars">
  <g id="bullet-char-template-57356" transform="scale(0.00048828125,-0.00048828125)">
   <path d="M 580,1141 L 1163,571 580,0 -4,571 580,1141 Z"/>
  </g>
  <g id="bullet-char-template-57354" transform="scale(0.00048828125,-0.00048828125)">
   <path d="M 8,1128 L 1137,1128 1137,0 8,0 8,1128 Z"/>
  </g>
  <g id="bullet-char-template-10146" transform="scale(0.00048828125,-0.00048828125)">
   <path d="M 174,0 L 602,739 174,1481 1456,739 174,0 Z M 1358,739 L 309,1346 659,739 1358,739 Z"/>
  </g>
  <g id="bullet-char-template-10132" transform="scale(0.00048828125,-0.00048828125)">
   <path d="M 2015,739 L 1276,0 717,0 1260,543 174,543 174,936 1260,936 717,1481 1274,1481 2015,739 Z"/>
  </g>
  <g id="bullet-char-template-10007" transform="scale(0.00048828125,-0.00048828125)">
   <path d="M 0,-2 C -7,14 -16,27 -25,37 L 356,567 C 262,823 215,952 215,954 215,979 228,992 255,992 264,992 276,990 289,987 310,991 331,999 354,1012 L 381,999 492,748 772,1049 836,1024 860,1049 C 881,1039 901,1025 922,1006 886,937 835,863 770,784 769,783 710,716 594,584 L 774,223 C 774,196 753,168 711,139 L 727,119 C 717,90 699,76 672,76 641,76 570,178 457,381 L 164,-76 C 142,-110 111,-127 72,-127 30,-127 9,-110 8,-76 1,-67 -2,-52 -2,-32 -2,-23 -1,-13 0,-2 Z"/>
  </g>
  <g id="bullet-char-template-10004" transform="scale(0.00048828125,-0.00048828125)">
   <path d="M 285,-33 C 182,-33 111,30 74,156 52,228 41,333 41,471 41,549 55,616 82,672 116,743 169,778 240,778 293,778 328,747 346,684 L 369,508 C 377,444 397,411 428,410 L 1163,1116 C 1174,1127 1196,1133 1229,1133 1271,1133 1292,1118 1292,1087 L 1292,965 C 1292,929 1282,901 1262,881 L 442,47 C 390,-6 338,-33 285,-33 Z"/>
  </g>
  <g id="bullet-char-template-9679" transform="scale(0.00048828125,-0.00048828125)">
   <path d="M 813,0 C 632,0 489,54 383,161 276,268 223,411 223,592 223,773 276,916 383,1023 489,1130 632,1184 813,1184 992,1184 1136,1130 1245,1023 1353,916 1407,772 1407,592 1407,412 1353,268 1245,161 1136,54 992,0 813,0 Z"/>
  </g>
  <g id="bullet-char-template-8226" transform="scale(0.00048828125,-0.00048828125)">
   <path d="M 346,457 C 273,457 209,483 155,535 101,586 74,649 74,723 74,796 101,859 155,911 209,963 273,989 346,989 419,989 480,963 531,910 582,859 608,796 608,723 608,648 583,586 532,535 482,483 420,457 346,457 Z"/>
  </g>
  <g id="bullet-char-template-8211" transform="scale(0.00048828125,-0.00048828125)">
   <path d="M -4,459 L 1135,459 1135,606 -4,606 -4,459 Z"/>
  </g>
  <g id="bullet-char-template-61548" transform="scale(0.00048828125,-0.00048828125)">
   <path d="M 173,740 C 173,903 231,1043 346,1159 462,1274 601,1332 765,1332 928,1332 1067,1274 1183,1159 1299,1043 1357,903 1357,740 1357,577 1299,437 1183,322 1067,206 928,148 765,148 601,148 462,206 346,322 231,437 173,577 173,740 Z"/>
  </g>
 </defs>
 <defs class="TextEmbeddedBitmaps"/>
 <g class="SlideGroup">
  <g>
   <g id="container-id1">
    <g id="id1" class="Slide" clip-path="url(#presentation_clip_path)">
     <g class="Page">
      <g class="com.sun.star.drawing.LineShape">
       <g id="id3">
        <rect class="BoundingBox" stroke="none" fill="none" x="5405" y="5376" width="720" height="549"/>
        <path fill="none" stroke="rgb(128,128,128)" stroke-width="247" stroke-linejoin="round" d="M 5529,5500 L 6000,5800"/>
       </g>
      </g>
      <g class="com.sun.star.drawing.CustomShape">
       <g id="id4">
        <rect class="BoundingBox" stroke="none" fill="none" x="330" y="2340" width="1922" height="1189"/>
        <path fill="rgb(153,153,153)" stroke="none" d="M 1147,2681 C 1322,2582 1476,2509 1641,2447 1805,2384 1930,2352 2040,2343 2150,2334 2212,2351 2239,2398 2265,2444 2248,2507 2183,2596 2119,2686 2027,2777 1889,2885 1751,2994 1608,3089 1434,3187 1259,3286 1105,3359 940,3422 776,3484 651,3516 541,3525 431,3534 369,3517 342,3470 316,3424 333,3362 398,3272 462,3182 554,3092 692,2983 830,2874 973,2780 1147,2681 L 1147,2681 Z"/>
       </g>
      </g>
      <g class="com.sun.star.drawing.CustomShape">
       <g id="id5">
        <rect class="BoundingBox" stroke="none" fill="none" x="510" y="2765" width="6225" height="3114"/>
        <path fill="rgb(0,0,0)" stroke="none" d="M 3622,2766 C 4195,2766 4682,2831 5178,2974 5674,3118 6030,3296 6317,3544 6603,3792 6734,4036 6734,4322 6734,4608 6603,4852 6317,5100 6030,5348 5674,5526 5178,5670 4682,5813 4195,5878 3622,5878 3049,5878 2562,5813 2066,5670 1570,5526 1214,5348 927,5100 641,4852 511,4608 511,4322 510,4036 641,3792 927,3544 1214,3296 1570,3118 2066,2974 2562,2831 3049,2766 3622,2766 L 3622,2766 Z"/>
       </g>
      </g>
      <g class="com.sun.star.drawing.CustomShape">
       <g id="id6">
        <rect class="BoundingBox" stroke="none" fill="none" x="1649" y="4010" width="3840" height="1869"/>
        <path fill="rgb(238,238,238)" stroke="none" d="M 3569,4010 C 3922,4010 4223,4049 4528,4135 4834,4221 5054,4328 5231,4477 5408,4626 5488,4772 5488,4944 5488,5116 5408,5262 5231,5411 5054,5560 4834,5667 4529,5753 4223,5839 3922,5878 3569,5878 3216,5878 2915,5839 2610,5753 2304,5667 2084,5560 1907,5411 1730,5262 1650,5116 1650,4944 1650,4772 1730,4626 1907,4477 2084,4328 2304,4221 2609,4135 2915,4049 3216,4010 3569,4010 L 3569,4010 Z"/>
       </g>
      </g>
      <g class="com.sun.star.drawing.CustomShape">
       <g id="id7">
        <rect class="BoundingBox" stroke="none" fill="none" x="1131" y="1730" width="1973" height="2077"/>
        <path fill="rgb(0,0,0)" stroke="none" d="M 2117,1731 C 2299,1731 2453,1774 2610,1869 2767,1965 2880,2084 2971,2249 3062,2415 3103,2577 3103,2768 3103,2959 3062,3121 2971,3287 2880,3452 2767,3571 2610,3667 2453,3762 2299,3806 2117,3806 1935,3806 1781,3762 1624,3667 1467,3571 1354,3452 1263,3287 1172,3121 1131,2959 1131,2768 1131,2577 1172,2415 1263,2249 1354,2084 1467,1965 1624,1869 1781,1774 1935,1731 2117,1731 L 2117,1731 Z"/>
       </g>
      </g>
      <g class="com.sun.star.drawing.EllipseShape">
       <g id="id8">
        <rect class="BoundingBox" stroke="none" fill="none" x="1924" y="1724" width="1354" height="607"/>
        <path fill="none" stroke="rgb(0,0,0)" stroke-width="159" stroke-linejoin="round" d="M 2004,2012 C 2107,1909 2210,1850 2339,1821 2498,1785 2643,1806 2803,1888 2958,1967 3081,2080 3197,2250"/>
       </g>
      </g>
      <g class="com.sun.star.drawing.EllipseShape">
       <g id="id9">
        <rect class="BoundingBox" stroke="none" fill="none" x="2037" y="1621" width="1354" height="607"/>
        <path fill="none" stroke="rgb(0,0,0)" stroke-width="159" stroke-linejoin="round" d="M 2117,1909 C 2220,1806 2323,1747 2452,1718 2611,1682 2756,1703 2916,1785 3071,1864 3194,1977 3310,2147"/>
       </g>
      </g>
      <g class="com.sun.star.drawing.CustomShape">
       <g id="id10">
        <rect class="BoundingBox" stroke="none" fill="none" x="1546" y="2351" width="418" height="418"/>
        <path fill="rgb(255,191,0)" stroke="none" d="M 1754,2351 C 1792,2351 1825,2360 1858,2379 1891,2398 1915,2422 1934,2455 1953,2488 1962,2521 1962,2559 1962,2597 1953,2630 1934,2663 1915,2696 1891,2720 1858,2739 1825,2758 1792,2767 1754,2767 1716,2767 1683,2758 1650,2739 1617,2720 1593,2696 1574,2663 1555,2630 1546,2597 1546,2559 1546,2521 1555,2488 1574,2455 1593,2422 1617,2398 1650,2379 1683,2360 1716,2351 1754,2351 L 1754,2351 Z"/>
       </g>
      </g>
      <g class="com.sun.star.drawing.CustomShape">
       <g id="id11">
        <rect class="BoundingBox" stroke="none" fill="none" x="1657" y="2509" width="141" height="141"/>
        <path fill="rgb(0,0,0)" stroke="none" d="M 1727,2527 C 1737,2527 1745,2529 1753,2534 1761,2539 1767,2545 1772,2553 1777,2561 1779,2569 1779,2579 1779,2589 1777,2597 1772,2605 1767,2613 1761,2619 1753,2624 1745,2629 1737,2631 1727,2631 1717,2631 1709,2629 1701,2624 1693,2619 1687,2613 1682,2605 1677,2597 1675,2589 1675,2579 1675,2569 1677,2561 1682,2553 1687,2545 1693,2539 1701,2534 1709,2529 1717,2527 1727,2527 L 1727,2527 Z"/>
        <path fill="none" stroke="rgb(0,0,0)" stroke-width="35" stroke-linejoin="round" d="M 1727,2527 C 1737,2527 1745,2529 1753,2534 1761,2539 1767,2545 1772,2553 1777,2561 1779,2569 1779,2579 1779,2589 1777,2597 1772,2605 1767,2613 1761,2619 1753,2624 1745,2629 1737,2631 1727,2631 1717,2631 1709,2629 1701,2624 1693,2619 1687,2613 1682,2605 1677,2597 1675,2589 1675,2579 1675,2569 1677,2561 1682,2553 1687,2545 1693,2539 1701,2534 1709,2529 1717,2527 1727,2527 Z"/>
       </g>
      </g>
      <g class="com.sun.star.drawing.CustomShape">
       <g id="id12">
        <rect class="BoundingBox" stroke="none" fill="none" x="322" y="3270" width="248" height="247"/>
        <path fill="rgb(102,102,102)" stroke="none" d="M 524,3485 C 507,3500 488,3509 466,3513 444,3517 424,3516 403,3509 381,3501 365,3490 351,3473 336,3456 328,3439 324,3416 321,3394 322,3375 330,3353 338,3332 350,3315 367,3301 385,3286 403,3277 425,3273 448,3268 467,3270 489,3277 510,3284 526,3295 541,3312 555,3329 563,3347 567,3369 571,3391 569,3411 561,3432 553,3454 541,3470 524,3485 L 524,3485 Z"/>
       </g>
      </g>
      <g class="com.sun.star.drawing.LineShape">
       <g id="id13">
        <rect class="BoundingBox" stroke="none" fill="none" x="781" y="2934" width="290" height="187"/>
        <path fill="none" stroke="rgb(102,102,102)" stroke-width="81" stroke-linejoin="round" d="M 822,3079 L 1029,2975"/>
       </g>
      </g>
      <g class="com.sun.star.drawing.CustomShape">
       <g id="id14">
        <rect class="BoundingBox" stroke="none" fill="none" x="1962" y="2869" width="3321" height="1558"/>
        <path fill="rgb(0,0,0)" stroke="none" d="M 3622,2870 C 3928,2870 4187,2903 4452,2974 4716,3046 4906,3135 5059,3259 5212,3383 5282,3505 5282,3648 5282,3791 5212,3913 5059,4037 4906,4161 4716,4250 4452,4322 4187,4393 3928,4426 3622,4426 3316,4426 3057,4393 2792,4322 2528,4250 2338,4161 2185,4037 2032,3913 1963,3791 1963,3648 1962,3505 2032,3383 2185,3259 2338,3135 2528,3046 2792,2974 3057,2903 3316,2870 3622,2870 L 3622,2870 Z"/>
       </g>
      </g>
      <g class="com.sun.star.drawing.CustomShape">
       <g id="id15">
        <rect class="BoundingBox" stroke="none" fill="none" x="614" y="3492" width="1869" height="1870"/>
        <path fill="rgb(0,0,0)" stroke="none" d="M 1548,3492 C 1720,3492 1866,3531 2015,3617 2164,3703 2271,3810 2356,3959 2442,4108 2482,4254 2482,4426 2482,4598 2442,4744 2356,4893 2271,5042 2164,5149 2015,5235 1866,5321 1720,5360 1548,5360 1376,5360 1230,5321 1081,5235 932,5149 825,5042 740,4893 654,4744 615,4598 615,4426 614,4254 654,4108 740,3959 825,3810 932,3703 1081,3617 1230,3531 1376,3492 1548,3492 L 1548,3492 Z"/>
       </g>
      </g>
      <g class="com.sun.star.drawing.CustomShape">
       <g id="id16">
        <rect class="BoundingBox" stroke="none" fill="none" x="5923" y="5527" width="865" height="629"/>
        <path fill="rgb(153,153,153)" stroke="none" d="M 6787,5527 L 6741,6155 5924,5938 5946,5625 6787,5527 Z"/>
       </g>
      </g>
     </g>
    </g>
   </g>
  </g>
 </g>
</svg>