<?xml version="1.0" encoding="UTF-8"?>
<!DOCTYPE svg PUBLIC "-//W3C//DTD SVG 1.1//EN" "http://www.w3.org/Graphics/SVG/1.1/DTD/svg11.dtd">
<svg version="1.2" width="72mm" height="72mm" viewBox="0 0 7200 7200" preserveAspectRatio="xMidYMid" fill-rule="evenodd" stroke-width="28.222" stroke-linejoin="round" xmlns="http://www.w3.org/2000/svg" xmlns:ooo="http://xml.openoffice.org/svg/export" xmlns:xlink="http://www.w3.org/1999/xlink" xmlns:presentation="http://sun.com/xmlns/staroffice/presentation" xmlns:smil="http://www.w3.org/2001/SMIL20/" xmlns:anim="urn:oasis:names:tc:opendocument:xmlns:animation:1.0" xml:space="preserve">
 <defs class="ClipPathGroup">
  <clipPath id="presentation_clip_path" clipPathUnits="userSpaceOnUse">
   <rect x="0" y="0" width="7200" height="7200"/>
  </clipPath>
  <clipPath id="presentation_clip_path_shrink" clipPathUnits="userSpaceOnUse">
   <rect x="7" y="7" width="7186" height="7186"/>
  </clipPath>
 </defs>
 <defs class="TextShapeIndex">
  <g ooo:slide="id1" ooo:id-list="id3 id4 id5 id6 id7 id8 id9 id10 id11 id12 id13 id14 id15 id16 id17 id18 id19 id20 id21 id22 id23 id24 id25 id26 id27 id28 id29 id30 id31 id32 id33 id34 id35"/>
 </defs>
 <defs class="EmbeddedBulletChars">
  <g id="bullet-char-template-57356" transform="scale(0.00048828125,-0.00048828125)">
   <path d="M 580,1141 L 1163,571 580,0 -4,571 580,1141 Z"/>
  </g>
  <g id="bullet-char-template-57354" transform="scale(0.00048828125,-0.00048828125)">
   <path d="M 8,1128 L 1137,1128 1137,0 8,0 8,1128 Z"/>
  </g>
  <g id="bullet-char-template-10146" transform="scale(0.00048828125,-0.00048828125)">
   <path d="M 174,0 L 602,739 174,1481 1456,739 174,0 Z M 1358,739 L 309,1346 659,739 1358,739 Z"/>
  </g>
  <g id="bullet-char-template-10132" transform="scale(0.00048828125,-0.00048828125)">
   <path d="M 2015,739 L 1276,0 717,0 1260,543 174,543 174,936 1260,936 717,1481 1274,1481 2015,739 Z"/>
  </g>
  <g id="bullet-char-template-10007" transform="scale(0.00048828125,-0.00048828125)">
   <path d="M 0,-2 C -7,14 -16,27 -25,37 L 356,567 C 262,823 215,952 215,954 215,979 228,992 255,992 264,992 276,990 289,987 310,991 331,999 354,1012 L 381,999 492,748 772,1049 836,1024 860,1049 C 881,1039 901,1025 922,1006 886,937 835,863 770,784 769,783 710,716 594,584 L 774,223 C 774,196 753,168 711,139 L 727,119 C 717,90 699,76 672,76 641,76 570,178 457,381 L 164,-76 C 142,-110 111,-127 72,-127 30,-127 9,-110 8,-76 1,-67 -2,-52 -2,-32 -2,-23 -1,-13 0,-2 Z"/>
  </g>
  <g id="bullet-char-template-10004" transform="scale(0.00048828125,-0.00048828125)">
   <path d="M 285,-33 C 182,-33 111,30 74,156 52,228 41,333 41,471 41,549 55,616 82,672 116,743 169,778 240,778 293,778 328,747 346,684 L 369,508 C 377,444 397,411 428,410 L 1163,1116 C 1174,1127 1196,1133 1229,1133 1271,1133 1292,1118 1292,1087 L 1292,965 C 1292,929 1282,901 1262,881 L 442,47 C 390,-6 338,-33 285,-33 Z"/>
  </g>
  <g id="bullet-char-template-9679" transform="scale(0.00048828125,-0.00048828125)">
   <path d="M 813,0 C 632,0 489,54 383,161 276,268 223,411 223,592 223,773 276,916 383,1023 489,1130 632,1184 813,1184 992,1184 1136,1130 1245,1023 1353,916 1407,772 1407,592 1407,412 1353,268 1245,161 1136,54 992,0 813,0 Z"/>
  </g>
  <g id="bullet-char-template-8226" transform="scale(0.00048828125,-0.00048828125)">
   <path d="M 346,457 C 273,457 209,483 155,535 101,586 74,649 74,723 74,796 101,859 155,911 209,963 273,989 346,989 419,989 480,963 531,910 582,859 608,796 608,723 608,648 583,586 532,535 482,483 420,457 346,457 Z"/>
  </g>
  <g id="bullet-char-template-8211" transform="scale(0.00048828125,-0.00048828125)">
   <path d="M -4,459 L 1135,459 1135,606 -4,606 -4,459 Z"/>
  </g>
  <g id="bullet-char-template-61548" transform="scale(0.00048828125,-0.00048828125)">
   <path d="M 173,740 C 173,903 231,1043 346,1159 462,1274 601,1332 765,1332 928,1332 1067,1274 1183,1159 1299,1043 1357,903 1357,740 1357,577 1299,437 1183,322 1067,206 928,148 765,148 601,148 462,206 346,322 231,437 173,577 173,740 Z"/>
  </g>
 </defs>
 <defs class="TextEmbeddedBitmaps"/>
 <g>
  <g id="id2" class="Master_Slide">
   <g id="bg-id2" class="Background"/>
   <g id="bo-id2" class="BackgroundObjects"/>
  </g>
 </g>
 <g class="SlideGroup">
  <g>
   <g id="container-id1">
    <g id="id1" class="Slide" clip-path="url(#presentation_clip_path)">
     <g class="Page">
      <g class="com.sun.star.drawing.LineShape">
       <g id="id3">
        <rect class="BoundingBox" stroke="none" fill="none" x="5069" y="6370" width="1207" height="207"/>
        <path fill="none" stroke="rgb(97,23,41)" stroke-width="106" stroke-linejoin="round" d="M 5122,6523 L 6222,6423"/>
       </g>
      </g>
      <g class="com.sun.star.drawing.LineShape">
       <g id="id4">
        <rect class="BoundingBox" stroke="none" fill="none" x="5069" y="6470" width="1129" height="207"/>
        <path fill="none" stroke="rgb(97,23,41)" stroke-width="106" stroke-linejoin="round" d="M 5122,6523 L 6143,6623"/>
       </g>
      </g>
      <g class="com.sun.star.drawing.LineShape">
       <g id="id5">
        <rect class="BoundingBox" stroke="none" fill="none" x="5069" y="6170" width="1129" height="407"/>
        <path fill="none" stroke="rgb(97,23,41)" stroke-width="106" stroke-linejoin="round" d="M 5122,6523 L 6143,6223"/>
       </g>
      </g>
      <g class="com.sun.star.drawing.CustomShape">
       <g id="id6">
        <rect class="BoundingBox" stroke="none" fill="none" x="521" y="1822" width="6203" height="5203"/>
        <path fill="rgb(178,178,178)" stroke="none" d="M 3622,1823 C 4193,1823 4678,1932 5172,2171 5667,2410 6022,2708 6307,3123 6593,3537 6723,3944 6723,4423 6723,4902 6593,5309 6307,5723 6022,6138 5667,6436 5172,6675 4678,6914 4193,7024 3622,7024 3051,7024 2566,6914 2072,6675 1577,6436 1222,6138 937,5723 651,5309 522,4902 522,4423 521,3944 651,3537 937,3123 1222,2708 1577,2410 2072,2171 2566,1932 3051,1823 3622,1823 L 3622,1823 Z"/>
       </g>
      </g>
      <g class="com.sun.star.drawing.CustomShape">
       <g id="id7">
        <rect class="BoundingBox" stroke="none" fill="none" x="2010" y="1183" width="4001" height="2703"/>
        <path fill="rgb(178,178,178)" stroke="none" d="M 4010,1184 C 4378,1184 4691,1240 5010,1364 5329,1489 5558,1643 5742,1859 5926,2074 6010,2285 6010,2534 6010,2783 5926,2994 5742,3209 5558,3425 5329,3579 5010,3704 4691,3828 4378,3885 4010,3885 3642,3885 3329,3828 3010,3704 2691,3579 2462,3425 2278,3209 2094,2994 2010,2783 2010,2534 2010,2285 2094,2074 2278,1859 2462,1643 2691,1489 3010,1364 3329,1240 3642,1184 4010,1184 L 4010,1184 Z"/>
       </g>
      </g>
      <g class="com.sun.star.drawing.CustomShape">
       <g id="id8">
        <rect class="BoundingBox" stroke="none" fill="none" x="135" y="3180" width="1058" height="829"/>
        <path fill="rgb(102,102,102)" stroke="none" d="M 570,3258 C 655,3234 732,3228 815,3238 897,3248 961,3272 1019,3314 1077,3355 1111,3402 1128,3464 1146,3526 1141,3584 1113,3650 1085,3715 1043,3769 977,3820 912,3872 843,3906 758,3930 672,3954 595,3960 513,3950 430,3940 366,3916 308,3875 250,3833 216,3786 199,3724 182,3662 187,3604 214,3538 242,3473 285,3419 350,3368 415,3316 484,3282 570,3258 L 570,3258 Z"/>
        <path fill="none" stroke="rgb(255,191,0)" stroke-width="106" stroke-linejoin="round" d="M 570,3258 C 655,3234 732,3228 815,3238 897,3248 961,3272 1019,3314 1077,3355 1111,3402 1128,3464 1146,3526 1141,3584 1113,3650 1085,3715 1043,3769 977,3820 912,3872 843,3906 758,3930 672,3954 595,3960 513,3950 430,3940 366,3916 308,3875 250,3833 216,3786 199,3724 182,3662 187,3604 214,3538 242,3473 285,3419 350,3368 415,3316 484,3282 570,3258 L 570,3258 Z"/>
       </g>
      </g>
      <g class="com.sun.star.drawing.CustomShape">
       <g id="id9">
        <rect class="BoundingBox" stroke="none" fill="none" x="235" y="3579" width="1058" height="829"/>
        <path fill="rgb(102,102,102)" stroke="none" d="M 670,3657 C 755,3633 832,3627 915,3637 997,3647 1061,3671 1119,3713 1177,3754 1211,3801 1228,3863 1246,3925 1241,3983 1213,4049 1185,4114 1143,4168 1077,4219 1012,4271 943,4305 858,4329 772,4353 695,4359 613,4349 530,4339 466,4315 408,4274 350,4232 316,4185 299,4123 282,4061 287,4003 314,3937 342,3872 385,3818 450,3767 515,3715 584,3681 670,3657 L 670,3657 Z"/>
        <path fill="none" stroke="rgb(255,191,0)" stroke-width="106" stroke-linejoin="round" d="M 670,3657 C 755,3633 832,3627 915,3637 997,3647 1061,3671 1119,3713 1177,3754 1211,3801 1228,3863 1246,3925 1241,3983 1213,4049 1185,4114 1143,4168 1077,4219 1012,4271 943,4305 858,4329 772,4353 695,4359 613,4349 530,4339 466,4315 408,4274 350,4232 316,4185 299,4123 282,4061 287,4003 314,3937 342,3872 385,3818 450,3767 515,3715 584,3681 670,3657 L 670,3657 Z"/>
       </g>
      </g>
      <g class="com.sun.star.drawing.CustomShape">
       <g id="id10">
        <rect class="BoundingBox" stroke="none" fill="none" x="435" y="3978" width="1058" height="829"/>
        <path fill="rgb(102,102,102)" stroke="none" d="M 870,4056 C 955,4032 1032,4026 1115,4036 1197,4046 1261,4070 1319,4112 1377,4153 1411,4200 1428,4262 1446,4324 1441,4382 1413,4448 1385,4513 1343,4567 1277,4618 1212,4670 1143,4704 1058,4728 972,4752 895,4758 813,4748 730,4738 666,4714 608,4673 550,4631 516,4584 499,4522 482,4460 487,4402 514,4336 542,4271 585,4217 650,4166 715,4114 784,4080 870,4056 L 870,4056 Z"/>
        <path fill="none" stroke="rgb(255,191,0)" stroke-width="106" stroke-linejoin="round" d="M 870,4056 C 955,4032 1032,4026 1115,4036 1197,4046 1261,4070 1319,4112 1377,4153 1411,4200 1428,4262 1446,4324 1441,4382 1413,4448 1385,4513 1343,4567 1277,4618 1212,4670 1143,4704 1058,4728 972,4752 895,4758 813,4748 730,4738 666,4714 608,4673 550,4631 516,4584 499,4522 482,4460 487,4402 514,4336 542,4271 585,4217 650,4166 715,4114 784,4080 870,4056 Z"/>
       </g>
      </g>
      <g class="com.sun.star.drawing.CustomShape">
       <g id="id11">
        <rect class="BoundingBox" stroke="none" fill="none" x="735" y="4177" width="1058" height="829"/>
        <path fill="rgb(102,102,102)" stroke="none" d="M 1170,4255 C 1255,4231 1332,4225 1415,4235 1497,4245 1561,4269 1619,4311 1677,4352 1711,4399 1728,4461 1746,4523 1741,4581 1713,4647 1685,4712 1643,4766 1577,4817 1512,4869 1443,4903 1358,4927 1272,4951 1195,4957 1113,4947 1030,4937 966,4913 908,4872 850,4830 816,4783 799,4721 782,4659 787,4601 814,4535 842,4470 885,4416 950,4365 1015,4313 1084,4279 1170,4255 L 1170,4255 Z"/>
        <path fill="none" stroke="rgb(255,191,0)" stroke-width="106" stroke-linejoin="round" d="M 1170,4255 C 1255,4231 1332,4225 1415,4235 1497,4245 1561,4269 1619,4311 1677,4352 1711,4399 1728,4461 1746,4523 1741,4581 1713,4647 1685,4712 1643,4766 1577,4817 1512,4869 1443,4903 1358,4927 1272,4951 1195,4957 1113,4947 1030,4937 966,4913 908,4872 850,4830 816,4783 799,4721 782,4659 787,4601 814,4535 842,4470 885,4416 950,4365 1015,4313 1084,4279 1170,4255 L 1170,4255 Z"/>
       </g>
      </g>
      <g class="com.sun.star.drawing.CustomShape">
       <g id="id12">
        <rect class="BoundingBox" stroke="none" fill="none" x="735" y="2973" width="1058" height="829"/>
        <path fill="rgb(102,102,102)" stroke="none" d="M 1170,3051 C 1255,3027 1332,3021 1415,3031 1497,3041 1561,3065 1619,3107 1677,3148 1711,3195 1728,3257 1746,3319 1741,3377 1713,3443 1685,3508 1643,3562 1577,3613 1512,3665 1443,3699 1358,3723 1272,3747 1195,3753 1113,3743 1030,3733 966,3709 908,3668 850,3626 816,3579 799,3517 782,3455 787,3397 814,3331 842,3266 885,3212 950,3161 1015,3109 1084,3075 1170,3051 L 1170,3051 Z"/>
        <path fill="none" stroke="rgb(255,191,0)" stroke-width="106" stroke-linejoin="round" d="M 1170,3051 C 1255,3027 1332,3021 1415,3031 1497,3041 1561,3065 1619,3107 1677,3148 1711,3195 1728,3257 1746,3319 1741,3377 1713,3443 1685,3508 1643,3562 1577,3613 1512,3665 1443,3699 1358,3723 1272,3747 1195,3753 1113,3743 1030,3733 966,3709 908,3668 850,3626 816,3579 799,3517 782,3455 787,3397 814,3331 842,3266 885,3212 950,3161 1015,3109 1084,3075 1170,3051 L 1170,3051 Z"/>
       </g>
      </g>
      <g class="com.sun.star.drawing.CustomShape">
       <g id="id13">
        <rect class="BoundingBox" stroke="none" fill="none" x="835" y="3375" width="1058" height="829"/>
        <path fill="rgb(102,102,102)" stroke="none" d="M 1270,3453 C 1355,3429 1432,3423 1515,3433 1597,3443 1661,3467 1719,3509 1777,3550 1811,3597 1828,3659 1846,3721 1841,3779 1813,3845 1785,3910 1743,3964 1677,4015 1612,4067 1543,4101 1458,4125 1372,4149 1295,4155 1213,4145 1130,4135 1066,4111 1008,4070 950,4028 916,3981 899,3919 882,3857 887,3799 914,3733 942,3668 985,3614 1050,3563 1115,3511 1184,3477 1270,3453 L 1270,3453 Z"/>
        <path fill="none" stroke="rgb(255,191,0)" stroke-width="106" stroke-linejoin="round" d="M 1270,3453 C 1355,3429 1432,3423 1515,3433 1597,3443 1661,3467 1719,3509 1777,3550 1811,3597 1828,3659 1846,3721 1841,3779 1813,3845 1785,3910 1743,3964 1677,4015 1612,4067 1543,4101 1458,4125 1372,4149 1295,4155 1213,4145 1130,4135 1066,4111 1008,4070 950,4028 916,3981 899,3919 882,3857 887,3799 914,3733 942,3668 985,3614 1050,3563 1115,3511 1184,3477 1270,3453 L 1270,3453 Z"/>
       </g>
      </g>
      <g class="com.sun.star.drawing.CustomShape">
       <g id="id14">
        <rect class="BoundingBox" stroke="none" fill="none" x="1135" y="3674" width="1058" height="829"/>
        <path fill="rgb(102,102,102)" stroke="none" d="M 1570,3752 C 1655,3728 1732,3722 1815,3732 1897,3742 1961,3766 2019,3808 2077,3849 2111,3896 2128,3958 2146,4020 2141,4078 2113,4144 2085,4209 2043,4263 1977,4314 1912,4366 1843,4400 1758,4424 1672,4448 1595,4454 1513,4444 1430,4434 1366,4410 1308,4369 1250,4327 1216,4280 1199,4218 1182,4156 1187,4098 1214,4032 1242,3967 1285,3913 1350,3862 1415,3810 1484,3776 1570,3752 L 1570,3752 Z"/>
        <path fill="none" stroke="rgb(255,191,0)" stroke-width="106" stroke-linejoin="round" d="M 1570,3752 C 1655,3728 1732,3722 1815,3732 1897,3742 1961,3766 2019,3808 2077,3849 2111,3896 2128,3958 2146,4020 2141,4078 2113,4144 2085,4209 2043,4263 1977,4314 1912,4366 1843,4400 1758,4424 1672,4448 1595,4454 1513,4444 1430,4434 1366,4410 1308,4369 1250,4327 1216,4280 1199,4218 1182,4156 1187,4098 1214,4032 1242,3967 1285,3913 1350,3862 1415,3810 1484,3776 1570,3752 Z"/>
       </g>
      </g>
      <g class="com.sun.star.drawing.CustomShape">
       <g id="id15">
        <rect class="BoundingBox" stroke="none" fill="none" x="1449" y="3956" width="1030" height="863"/>
        <path fill="rgb(102,102,102)" stroke="none" d="M 1812,4073 C 1892,4034 1967,4015 2050,4010 2133,4006 2200,4018 2264,4049 2329,4080 2370,4120 2398,4178 2426,4236 2432,4294 2416,4363 2400,4433 2367,4493 2312,4555 2257,4617 2195,4663 2115,4702 2035,4740 1960,4760 1877,4764 1794,4768 1727,4756 1663,4726 1599,4695 1557,4654 1529,4596 1501,4538 1495,4480 1511,4411 1527,4342 1560,4282 1615,4219 1670,4157 1732,4111 1812,4073 L 1812,4073 Z"/>
        <path fill="none" stroke="rgb(255,191,0)" stroke-width="106" stroke-linejoin="round" d="M 1812,4073 C 1892,4034 1967,4015 2050,4010 2133,4006 2200,4018 2264,4049 2329,4080 2370,4120 2398,4178 2426,4236 2432,4294 2416,4363 2400,4433 2367,4493 2312,4555 2257,4617 2195,4663 2115,4702 2035,4740 1960,4760 1877,4764 1794,4768 1727,4756 1663,4726 1599,4695 1557,4654 1529,4596 1501,4538 1495,4480 1511,4411 1527,4342 1560,4282 1615,4219 1670,4157 1732,4111 1812,4073 Z"/>
       </g>
      </g>
      <g class="com.sun.star.drawing.CustomShape">
       <g id="id16">
        <rect class="BoundingBox" stroke="none" fill="none" x="1168" y="2742" width="1053" height="735"/>
        <path fill="rgb(102,102,102)" stroke="none" d="M 1614,2824 C 1700,2800 1776,2792 1857,2798 1939,2803 2001,2821 2057,2854 2112,2888 2144,2927 2159,2979 2173,3032 2166,3082 2136,3139 2106,3196 2062,3244 1995,3291 1928,3337 1859,3370 1774,3394 1688,3418 1612,3426 1531,3420 1449,3415 1387,3397 1331,3364 1276,3330 1244,3291 1229,3239 1215,3186 1222,3136 1252,3079 1282,3022 1326,2974 1393,2927 1460,2881 1529,2848 1614,2824 L 1614,2824 Z"/>
        <path fill="none" stroke="rgb(255,191,0)" stroke-width="106" stroke-linejoin="round" d="M 1614,2824 C 1700,2800 1776,2792 1857,2798 1939,2803 2001,2821 2057,2854 2112,2888 2144,2927 2159,2979 2173,3032 2166,3082 2136,3139 2106,3196 2062,3244 1995,3291 1928,3337 1859,3370 1774,3394 1688,3418 1612,3426 1531,3420 1449,3415 1387,3397 1331,3364 1276,3330 1244,3291 1229,3239 1215,3186 1222,3136 1252,3079 1282,3022 1326,2974 1393,2927 1460,2881 1529,2848 1614,2824 L 1614,2824 Z"/>
       </g>
      </g>
      <g class="com.sun.star.drawing.CustomShape">
       <g id="id17">
        <rect class="BoundingBox" stroke="none" fill="none" x="1349" y="3118" width="1053" height="757"/>
        <path fill="rgb(102,102,102)" stroke="none" d="M 1792,3199 C 1877,3175 1954,3168 2035,3174 2117,3181 2180,3200 2236,3235 2292,3271 2324,3312 2339,3366 2355,3421 2348,3473 2319,3532 2289,3591 2245,3640 2179,3688 2112,3736 2043,3769 1958,3793 1872,3817 1796,3824 1714,3818 1632,3811 1570,3792 1514,3757 1458,3721 1425,3680 1410,3626 1395,3571 1401,3519 1431,3460 1460,3401 1504,3352 1571,3304 1637,3256 1706,3223 1792,3199 L 1792,3199 Z"/>
        <path fill="none" stroke="rgb(255,191,0)" stroke-width="106" stroke-linejoin="round" d="M 1792,3199 C 1877,3175 1954,3168 2035,3174 2117,3181 2180,3200 2236,3235 2292,3271 2324,3312 2339,3366 2355,3421 2348,3473 2319,3532 2289,3591 2245,3640 2179,3688 2112,3736 2043,3769 1958,3793 1872,3817 1796,3824 1714,3818 1632,3811 1570,3792 1514,3757 1458,3721 1425,3680 1410,3626 1395,3571 1401,3519 1431,3460 1460,3401 1504,3352 1571,3304 1637,3256 1706,3223 1792,3199 L 1792,3199 Z"/>
       </g>
      </g>
      <g class="com.sun.star.drawing.CustomShape">
       <g id="id18">
        <rect class="BoundingBox" stroke="none" fill="none" x="1754" y="3546" width="1051" height="731"/>
        <path fill="rgb(102,102,102)" stroke="none" d="M 2200,3628 C 2286,3604 2362,3596 2443,3601 2524,3607 2587,3624 2642,3657 2697,3690 2729,3729 2744,3781 2758,3833 2751,3883 2721,3940 2691,3997 2647,4044 2580,4091 2513,4138 2444,4170 2358,4194 2272,4218 2196,4226 2115,4221 2034,4215 1971,4198 1916,4165 1861,4132 1829,4093 1814,4041 1800,3989 1807,3939 1837,3882 1867,3825 1911,3778 1978,3731 2045,3684 2114,3652 2200,3628 L 2200,3628 Z"/>
        <path fill="none" stroke="rgb(255,191,0)" stroke-width="106" stroke-linejoin="round" d="M 2200,3628 C 2286,3604 2362,3596 2443,3601 2524,3607 2587,3624 2642,3657 2697,3690 2729,3729 2744,3781 2758,3833 2751,3883 2721,3940 2691,3997 2647,4044 2580,4091 2513,4138 2444,4170 2358,4194 2272,4218 2196,4226 2115,4221 2034,4215 1971,4198 1916,4165 1861,4132 1829,4093 1814,4041 1800,3989 1807,3939 1837,3882 1867,3825 1911,3778 1978,3731 2045,3684 2114,3652 2200,3628 L 2200,3628 Z"/>
       </g>
      </g>
      <g class="com.sun.star.drawing.CustomShape">
       <g id="id19">
        <rect class="BoundingBox" stroke="none" fill="none" x="1854" y="2746" width="1051" height="731"/>
        <path fill="rgb(102,102,102)" stroke="none" d="M 2300,2828 C 2386,2804 2462,2796 2543,2801 2624,2807 2687,2824 2742,2857 2797,2890 2829,2929 2844,2981 2858,3033 2851,3083 2821,3140 2791,3197 2747,3244 2680,3291 2613,3338 2544,3370 2458,3394 2372,3418 2296,3426 2215,3421 2134,3415 2071,3398 2016,3365 1961,3332 1929,3293 1914,3241 1900,3189 1907,3139 1937,3082 1967,3025 2011,2978 2078,2931 2145,2884 2214,2852 2300,2828 L 2300,2828 Z"/>
        <path fill="none" stroke="rgb(255,191,0)" stroke-width="106" stroke-linejoin="round" d="M 2300,2828 C 2386,2804 2462,2796 2543,2801 2624,2807 2687,2824 2742,2857 2797,2890 2829,2929 2844,2981 2858,3033 2851,3083 2821,3140 2791,3197 2747,3244 2680,3291 2613,3338 2544,3370 2458,3394 2372,3418 2296,3426 2215,3421 2134,3415 2071,3398 2016,3365 1961,3332 1929,3293 1914,3241 1900,3189 1907,3139 1937,3082 1967,3025 2011,2978 2078,2931 2145,2884 2214,2852 2300,2828 L 2300,2828 Z"/>
       </g>
      </g>
      <g class="com.sun.star.drawing.CustomShape">
       <g id="id20">
        <rect class="BoundingBox" stroke="none" fill="none" x="2054" y="3069" width="1051" height="731"/>
        <path fill="rgb(102,102,102)" stroke="none" d="M 2500,3151 C 2586,3127 2662,3119 2743,3124 2824,3130 2887,3147 2942,3180 2997,3213 3029,3252 3044,3304 3058,3356 3051,3406 3021,3463 2991,3520 2947,3567 2880,3614 2813,3661 2744,3693 2658,3717 2572,3741 2496,3749 2415,3744 2334,3738 2271,3721 2216,3688 2161,3655 2129,3616 2114,3564 2100,3512 2107,3462 2137,3405 2167,3348 2211,3301 2278,3254 2345,3207 2414,3175 2500,3151 L 2500,3151 Z"/>
        <path fill="none" stroke="rgb(255,191,0)" stroke-width="106" stroke-linejoin="round" d="M 2500,3151 C 2586,3127 2662,3119 2743,3124 2824,3130 2887,3147 2942,3180 2997,3213 3029,3252 3044,3304 3058,3356 3051,3406 3021,3463 2991,3520 2947,3567 2880,3614 2813,3661 2744,3693 2658,3717 2572,3741 2496,3749 2415,3744 2334,3738 2271,3721 2216,3688 2161,3655 2129,3616 2114,3564 2100,3512 2107,3462 2137,3405 2167,3348 2211,3301 2278,3254 2345,3207 2414,3175 2500,3151 L 2500,3151 Z"/>
       </g>
      </g>
      <g class="com.sun.star.drawing.CustomShape">
       <g id="id21">
        <rect class="BoundingBox" stroke="none" fill="none" x="2182" y="99" width="4001" height="2703"/>
        <path fill="rgb(178,178,178)" stroke="none" d="M 4182,100 C 4550,100 4863,156 5182,280 5501,405 5730,559 5914,775 6098,990 6182,1201 6182,1450 6182,1699 6098,1910 5914,2125 5730,2341 5501,2495 5182,2620 4863,2744 4550,2801 4182,2801 3814,2801 3501,2744 3182,2620 2863,2495 2634,2341 2450,2125 2266,1910 2182,1699 2182,1450 2182,1201 2266,990 2450,775 2634,559 2863,405 3182,280 3501,156 3814,100 4182,100 L 4182,100 Z"/>
       </g>
      </g>
      <g class="com.sun.star.drawing.CustomShape">
       <g id="id22">
        <rect class="BoundingBox" stroke="none" fill="none" x="4125" y="1260" width="684" height="683"/>
        <path fill="rgb(255,128,0)" stroke="none" d="M 4467,1301 C 4522,1301 4569,1313 4617,1341 4665,1368 4700,1403 4727,1451 4755,1499 4768,1546 4768,1601 4768,1656 4755,1703 4727,1751 4700,1799 4665,1834 4617,1861 4569,1889 4522,1902 4467,1902 4412,1902 4365,1889 4317,1861 4269,1834 4234,1799 4207,1751 4179,1703 4167,1656 4167,1601 4167,1546 4179,1499 4207,1451 4234,1403 4269,1368 4317,1341 4365,1313 4412,1301 4467,1301 L 4467,1301 Z"/>
        <path fill="none" stroke="rgb(255,216,206)" stroke-width="81" stroke-linejoin="round" d="M 4467,1301 C 4522,1301 4569,1313 4617,1341 4665,1368 4700,1403 4727,1451 4755,1499 4768,1546 4768,1601 4768,1656 4755,1703 4727,1751 4700,1799 4665,1834 4617,1861 4569,1889 4522,1902 4467,1902 4412,1902 4365,1889 4317,1861 4269,1834 4234,1799 4207,1751 4179,1703 4167,1656 4167,1601 4167,1546 4179,1499 4207,1451 4234,1403 4269,1368 4317,1341 4365,1313 4412,1301 4467,1301 Z"/>
       </g>
      </g>
      <g class="com.sun.star.drawing.CustomShape">
       <g id="id23">
        <rect class="BoundingBox" stroke="none" fill="none" x="4280" y="1398" width="403" height="403"/>
        <path fill="rgb(0,0,0)" stroke="none" d="M 4481,1398 C 4518,1398 4549,1407 4581,1425 4613,1444 4636,1467 4655,1499 4673,1531 4682,1562 4682,1599 4682,1636 4673,1667 4655,1699 4636,1731 4613,1754 4581,1773 4549,1791 4518,1800 4481,1800 4444,1800 4413,1791 4381,1773 4349,1754 4326,1731 4307,1699 4289,1667 4281,1636 4281,1599 4281,1562 4289,1531 4307,1499 4326,1467 4349,1444 4381,1425 4413,1407 4444,1398 4481,1398 L 4481,1398 Z"/>
       </g>
      </g>
      <g class="com.sun.star.drawing.LineShape">
       <g id="id24">
        <rect class="BoundingBox" stroke="none" fill="none" x="1920" y="2120" width="1461" height="486"/>
        <path fill="none" stroke="rgb(53,82,105)" stroke-width="159" stroke-linejoin="round" d="M 2000,2200 L 3300,2525"/>
       </g>
      </g>
      <g class="com.sun.star.drawing.LineShape">
       <g id="id25">
        <rect class="BoundingBox" stroke="none" fill="none" x="2003" y="1970" width="1361" height="461"/>
        <path fill="none" stroke="rgb(180,199,220)" stroke-width="159" stroke-linejoin="round" d="M 2083,2050 L 3283,2350"/>
       </g>
      </g>
      <g class="com.sun.star.drawing.LineShape">
       <g id="id26">
        <rect class="BoundingBox" stroke="none" fill="none" x="1991" y="1843" width="1373" height="464"/>
        <path fill="none" stroke="rgb(53,82,105)" stroke-width="159" stroke-linejoin="round" d="M 2071,1923 L 3283,2226"/>
       </g>
      </g>
      <g class="com.sun.star.drawing.LineShape">
       <g id="id27">
        <rect class="BoundingBox" stroke="none" fill="none" x="2042" y="1680" width="1322" height="451"/>
        <path fill="none" stroke="rgb(180,199,220)" stroke-width="159" stroke-linejoin="round" d="M 2122,1760 L 3283,2050"/>
       </g>
      </g>
      <g class="com.sun.star.drawing.LineShape">
       <g id="id28">
        <rect class="BoundingBox" stroke="none" fill="none" x="2103" y="1572" width="1261" height="436"/>
        <path fill="none" stroke="rgb(53,82,105)" stroke-width="159" stroke-linejoin="round" d="M 2183,1652 L 3283,1927"/>
       </g>
      </g>
      <g class="com.sun.star.drawing.LineShape">
       <g id="id29">
        <rect class="BoundingBox" stroke="none" fill="none" x="2103" y="1395" width="1261" height="436"/>
        <path fill="none" stroke="rgb(180,199,220)" stroke-width="159" stroke-linejoin="round" d="M 2183,1475 L 3283,1750"/>
       </g>
      </g>
      <g class="com.sun.star.drawing.LineShape">
       <g id="id30">
        <rect class="BoundingBox" stroke="none" fill="none" x="2003" y="2320" width="1561" height="511"/>
        <path fill="none" stroke="rgb(180,199,220)" stroke-width="159" stroke-linejoin="round" d="M 2083,2400 L 3483,2750"/>
       </g>
      </g>
      <g class="com.sun.star.drawing.LineShape">
       <g id="id31">
        <rect class="BoundingBox" stroke="none" fill="none" x="2103" y="2521" width="1461" height="486"/>
        <path fill="none" stroke="rgb(53,82,105)" stroke-width="159" stroke-linejoin="round" d="M 2183,2601 L 3483,2926"/>
       </g>
      </g>
      <g class="com.sun.star.drawing.PolyPolygonShape">
       <g id="id32">
        <rect class="BoundingBox" stroke="none" fill="none" x="5385" y="1832" width="1232" height="1308"/>
        <path fill="rgb(102,102,102)" stroke="none" d="M 5853,1833 L 6497,2599 6616,3138 5392,2353 5385,2304 5853,1833 Z"/>
       </g>
      </g>
      <g class="com.sun.star.drawing.LineShape">
       <g id="id33">
        <rect class="BoundingBox" stroke="none" fill="none" x="4069" y="6770" width="1207" height="207"/>
        <path fill="none" stroke="rgb(97,23,41)" stroke-width="106" stroke-linejoin="round" d="M 4122,6923 L 5222,6823"/>
       </g>
      </g>
      <g class="com.sun.star.drawing.LineShape">
       <g id="id34">
        <rect class="BoundingBox" stroke="none" fill="none" x="4069" y="6870" width="1129" height="207"/>
        <path fill="none" stroke="rgb(97,23,41)" stroke-width="106" stroke-linejoin="round" d="M 4122,6923 L 5143,7023"/>
       </g>
      </g>
      <g class="com.sun.star.drawing.LineShape">
       <g id="id35">
        <rect class="BoundingBox" stroke="none" fill="none" x="4069" y="6570" width="1129" height="407"/>
        <path fill="none" stroke="rgb(97,23,41)" stroke-width="106" stroke-linejoin="round" d="M 4122,6923 L 5143,6623"/>
       </g>
      </g>
     </g>
    </g>
   </g>
  </g>
 </g>
</svg>