<?xml version="1.0" encoding="UTF-8"?>
<!DOCTYPE svg PUBLIC "-//W3C//DTD SVG 1.1//EN" "http://www.w3.org/Graphics/SVG/1.1/DTD/svg11.dtd">
<svg version="1.2" width="70.24mm" height="49.26mm" viewBox="76 1024 7024 4926" preserveAspectRatio="xMidYMid" fill-rule="evenodd" stroke-width="28.222" stroke-linejoin="round" xmlns="http://www.w3.org/2000/svg" xmlns:ooo="http://xml.openoffice.org/svg/export" xmlns:xlink="http://www.w3.org/1999/xlink" xmlns:presentation="http://sun.com/xmlns/staroffice/presentation" xmlns:smil="http://www.w3.org/2001/SMIL20/" xmlns:anim="urn:oasis:names:tc:opendocument:xmlns:animation:1.0" xml:space="preserve">
 <defs class="ClipPathGroup">
  <clipPath id="presentation_clip_path" clipPathUnits="userSpaceOnUse">
   <rect x="76" y="1024" width="7024" height="4926"/>
  </clipPath>
  <clipPath id="presentation_clip_path_shrink" clipPathUnits="userSpaceOnUse">
   <rect x="83" y="1028" width="7010" height="4917"/>
  </clipPath>
 </defs>
 <defs class="TextShapeIndex">
  <g ooo:slide="id1" ooo:id-list="id3 id4 id5 id6 id7 id8 id9 id10 id11 id12 id13 id14 id15 id16 id17 id18 id19 id20 id21 id22 id23 id24 id25 id26 id27 id28 id29 id30 id31 id32 id33 id34 id35 id36 id37"/>
 </defs>
 <defs class="EmbeddedBulletChars">
  <g id="bullet-char-template-57356" transform="scale(0.00048828125,-0.00048828125)">
   <path d="M 580,1141 L 1163,571 580,0 -4,571 580,1141 Z"/>
  </g>
  <g id="bullet-char-template-57354" transform="scale(0.00048828125,-0.00048828125)">
   <path d="M 8,1128 L 1137,1128 1137,0 8,0 8,1128 Z"/>
  </g>
  <g id="bullet-char-template-10146" transform="scale(0.00048828125,-0.00048828125)">
   <path d="M 174,0 L 602,739 174,1481 1456,739 174,0 Z M 1358,739 L 309,1346 659,739 1358,739 Z"/>
  </g>
  <g id="bullet-char-template-10132" transform="scale(0.00048828125,-0.00048828125)">
   <path d="M 2015,739 L 1276,0 717,0 1260,543 174,543 174,936 1260,936 717,1481 1274,1481 2015,739 Z"/>
  </g>
  <g id="bullet-char-template-10007" transform="scale(0.00048828125,-0.00048828125)">
   <path d="M 0,-2 C -7,14 -16,27 -25,37 L 356,567 C 262,823 215,952 215,954 215,979 228,992 255,992 264,992 276,990 289,987 310,991 331,999 354,1012 L 381,999 492,748 772,1049 836,1024 860,1049 C 881,1039 901,1025 922,1006 886,937 835,863 770,784 769,783 710,716 594,584 L 774,223 C 774,196 753,168 711,139 L 727,119 C 717,90 699,76 672,76 641,76 570,178 457,381 L 164,-76 C 142,-110 111,-127 72,-127 30,-127 9,-110 8,-76 1,-67 -2,-52 -2,-32 -2,-23 -1,-13 0,-2 Z"/>
  </g>
  <g id="bullet-char-template-10004" transform="scale(0.00048828125,-0.00048828125)">
   <path d="M 285,-33 C 182,-33 111,30 74,156 52,228 41,333 41,471 41,549 55,616 82,672 116,743 169,778 240,778 293,778 328,747 346,684 L 369,508 C 377,444 397,411 428,410 L 1163,1116 C 1174,1127 1196,1133 1229,1133 1271,1133 1292,1118 1292,1087 L 1292,965 C 1292,929 1282,901 1262,881 L 442,47 C 390,-6 338,-33 285,-33 Z"/>
  </g>
  <g id="bullet-char-template-9679" transform="scale(0.00048828125,-0.00048828125)">
   <path d="M 813,0 C 632,0 489,54 383,161 276,268 223,411 223,592 223,773 276,916 383,1023 489,1130 632,1184 813,1184 992,1184 1136,1130 1245,1023 1353,916 1407,772 1407,592 1407,412 1353,268 1245,161 1136,54 992,0 813,0 Z"/>
  </g>
  <g id="bullet-char-template-8226" transform="scale(0.00048828125,-0.00048828125)">
   <path d="M 346,457 C 273,457 209,483 155,535 101,586 74,649 74,723 74,796 101,859 155,911 209,963 273,989 346,989 419,989 480,963 531,910 582,859 608,796 608,723 608,648 583,586 532,535 482,483 420,457 346,457 Z"/>
  </g>
  <g id="bullet-char-template-8211" transform="scale(0.00048828125,-0.00048828125)">
   <path d="M -4,459 L 1135,459 1135,606 -4,606 -4,459 Z"/>
  </g>
  <g id="bullet-char-template-61548" transform="scale(0.00048828125,-0.00048828125)">
   <path d="M 173,740 C 173,903 231,1043 346,1159 462,1274 601,1332 765,1332 928,1332 1067,1274 1183,1159 1299,1043 1357,903 1357,740 1357,577 1299,437 1183,322 1067,206 928,148 765,148 601,148 462,206 346,322 231,437 173,577 173,740 Z"/>
  </g>
 </defs>
 <defs class="TextEmbeddedBitmaps"/>
 <g class="SlideGroup">
  <g>
   <g id="container-id1">
    <g id="id1" class="Slide" clip-path="url(#presentation_clip_path)">
     <g class="Page">
      <g class="com.sun.star.drawing.CustomShape">
       <g id="id3">
        <rect class="BoundingBox" stroke="none" fill="none" x="4521" y="2098" width="1440" height="2259"/>
        <path fill="rgb(141,40,30)" stroke="none" d="M 5453,4251 L 4947,4355 4521,2307 5534,2098 5959,4146 5453,4251 Z"/>
       </g>
      </g>
      <g class="com.sun.star.drawing.LineShape">
       <g id="id4">
        <rect class="BoundingBox" stroke="none" fill="none" x="1249" y="5230" width="696" height="533"/>
        <path fill="none" stroke="rgb(128,128,128)" stroke-width="247" stroke-linejoin="round" d="M 1820,5354 L 1373,5638"/>
       </g>
      </g>
      <g class="com.sun.star.drawing.CustomShape">
       <g id="id5">
        <rect class="BoundingBox" stroke="none" fill="none" x="75" y="3029" width="5899" height="2541"/>
        <path fill="rgb(120,75,4)" stroke="none" d="M 3024,3029 C 2481,3029 2020,3082 1550,3199 1080,3316 742,3462 471,3664 199,3866 76,4065 76,4299 76,4533 199,4732 471,4934 742,5136 1080,5282 1550,5399 2020,5516 2481,5569 3024,5569 3567,5569 4028,5516 4498,5399 4968,5282 5306,5136 5577,4934 5849,4732 5973,4533 5973,4299 5973,4065 5849,3866 5577,3664 5306,3462 4968,3316 4498,3199 4028,3082 3567,3029 3024,3029 L 3024,3029 Z"/>
       </g>
      </g>
      <g class="com.sun.star.drawing.CustomShape">
       <g id="id6">
        <rect class="BoundingBox" stroke="none" fill="none" x="4454" y="1023" width="1871" height="1969"/>
        <path fill="rgb(141,40,30)" stroke="none" d="M 5389,1024 C 5217,1024 5071,1065 4922,1155 4773,1246 4666,1358 4580,1515 4494,1672 4455,1826 4455,2007 4455,2188 4494,2342 4580,2499 4666,2656 4773,2768 4922,2859 5071,2949 5217,2991 5389,2991 5561,2991 5707,2949 5856,2859 6005,2768 6112,2656 6198,2499 6284,2342 6324,2188 6324,2007 6324,1826 6284,1672 6198,1515 6112,1358 6005,1246 5856,1155 5707,1065 5561,1024 5389,1024 L 5389,1024 Z"/>
       </g>
      </g>
      <g class="com.sun.star.drawing.CustomShape">
       <g id="id7">
        <rect class="BoundingBox" stroke="none" fill="none" x="4822" y="1047" width="1395" height="939"/>
        <path fill="rgb(80,32,12)" stroke="none" d="M 5642,1093 C 5516,1056 5404,1042 5283,1049 5163,1056 5070,1082 4988,1131 4905,1180 4857,1237 4834,1315 4812,1393 4821,1468 4865,1554 4908,1639 4972,1711 5070,1782 5168,1853 5270,1902 5396,1939 5522,1976 5634,1990 5755,1983 5875,1976 5968,1950 6050,1901 6133,1852 6181,1795 6204,1717 6226,1639 6217,1564 6173,1478 6130,1393 6066,1321 5968,1250 5870,1179 5768,1130 5642,1093 L 5642,1093 Z"/>
       </g>
      </g>
      <g class="com.sun.star.drawing.CustomShape">
       <g id="id8">
        <rect class="BoundingBox" stroke="none" fill="none" x="5574" y="1562" width="776" height="1155"/>
        <path fill="rgb(80,32,12)" stroke="none" d="M 6126,1573 C 6062,1554 6000,1561 5929,1597 5858,1633 5799,1686 5741,1767 5682,1848 5642,1932 5612,2036 5581,2141 5570,2234 5576,2333 5582,2433 5603,2510 5643,2578 5684,2647 5732,2687 5796,2705 5861,2724 5922,2717 5993,2681 6064,2645 6123,2592 6182,2511 6240,2430 6281,2346 6311,2242 6341,2137 6353,2044 6347,1945 6341,1845 6320,1768 6279,1700 6239,1631 6191,1591 6126,1573 L 6126,1573 Z"/>
       </g>
      </g>
      <g class="com.sun.star.drawing.CustomShape">
       <g id="id9">
        <rect class="BoundingBox" stroke="none" fill="none" x="5630" y="1612" width="396" height="395"/>
        <path fill="rgb(255,245,206)" stroke="none" d="M 5828,1612 C 5792,1612 5761,1620 5729,1638 5698,1657 5676,1679 5657,1711 5639,1742 5631,1773 5631,1809 5631,1845 5639,1876 5657,1908 5676,1939 5698,1961 5729,1980 5761,1998 5792,2006 5828,2006 5864,2006 5895,1998 5926,1980 5958,1961 5980,1939 5999,1908 6017,1876 6025,1845 6025,1809 6025,1773 6017,1742 5999,1711 5980,1679 5958,1657 5926,1638 5895,1620 5864,1612 5828,1612 L 5828,1612 Z"/>
       </g>
      </g>
      <g class="com.sun.star.drawing.CustomShape">
       <g id="id10">
        <rect class="BoundingBox" stroke="none" fill="none" x="5759" y="1733" width="163" height="163"/>
        <path fill="rgb(0,0,0)" stroke="none" d="M 5840,1751 C 5828,1751 5819,1754 5809,1759 5798,1765 5791,1772 5785,1782 5780,1793 5777,1802 5777,1814 5777,1826 5780,1835 5785,1845 5791,1856 5798,1863 5809,1869 5819,1874 5828,1877 5840,1877 5852,1877 5861,1874 5872,1869 5882,1863 5889,1856 5895,1845 5900,1835 5903,1826 5903,1814 5903,1802 5900,1793 5895,1782 5889,1772 5882,1765 5872,1759 5861,1754 5852,1751 5840,1751 L 5840,1751 Z"/>
        <path fill="none" stroke="rgb(0,0,0)" stroke-width="35" stroke-linejoin="round" d="M 5840,1751 C 5828,1751 5819,1754 5809,1759 5798,1765 5791,1772 5785,1782 5780,1793 5777,1802 5777,1814 5777,1826 5780,1835 5785,1845 5791,1856 5798,1863 5809,1869 5819,1874 5828,1877 5840,1877 5852,1877 5861,1874 5872,1869 5882,1863 5889,1856 5895,1845 5900,1835 5903,1826 5903,1814 5903,1802 5900,1793 5895,1782 5889,1772 5882,1765 5872,1759 5861,1754 5852,1751 5840,1751 Z"/>
       </g>
      </g>
      <g class="com.sun.star.drawing.CustomShape">
       <g id="id11">
        <rect class="BoundingBox" stroke="none" fill="none" x="649" y="5355" width="819" height="596"/>
        <path fill="rgb(153,153,153)" stroke="none" d="M 649,5355 L 693,5950 1467,5744 1445,5447 649,5355 Z"/>
       </g>
      </g>
      <g class="com.sun.star.drawing.CustomShape">
       <g id="id12">
        <rect class="BoundingBox" stroke="none" fill="none" x="6041" y="1892" width="301" height="377"/>
        <path fill="rgb(255,245,206)" stroke="none" d="M 6262,1900 C 6238,1891 6215,1890 6187,1899 6160,1907 6136,1922 6113,1945 6090,1969 6073,1995 6060,2028 6047,2062 6041,2092 6042,2125 6042,2159 6049,2185 6064,2210 6078,2235 6096,2251 6120,2260 6144,2270 6167,2270 6195,2262 6222,2254 6245,2239 6269,2215 6292,2191 6309,2165 6322,2132 6335,2099 6341,2069 6340,2035 6339,2002 6333,1975 6318,1951 6304,1926 6286,1910 6262,1900 L 6262,1900 Z"/>
       </g>
      </g>
      <g class="com.sun.star.drawing.PolyPolygonShape">
       <g id="id13">
        <rect class="BoundingBox" stroke="none" fill="none" x="6129" y="1773" width="972" height="381"/>
        <path fill="rgb(102,102,102)" stroke="none" d="M 6301,1773 L 6891,1889 7099,2082 6147,2152 6129,2133 6301,1773 Z"/>
       </g>
      </g>
      <g class="com.sun.star.drawing.CustomShape">
       <g id="id14">
        <rect class="BoundingBox" stroke="none" fill="none" x="1903" y="2448" width="605" height="947"/>
        <path fill="rgb(120,75,4)" stroke="none" d="M 2293,3350 L 2080,3394 1903,2536 2329,2448 2506,3306 2293,3350 Z"/>
       </g>
      </g>
      <g class="com.sun.star.drawing.CustomShape">
       <g id="id15">
        <rect class="BoundingBox" stroke="none" fill="none" x="1876" y="1996" width="785" height="827"/>
        <path fill="rgb(120,75,4)" stroke="none" d="M 2268,1997 C 2196,1997 2134,2014 2072,2052 2010,2090 1965,2137 1929,2203 1892,2269 1876,2333 1876,2409 1876,2485 1892,2549 1929,2615 1965,2681 2010,2728 2072,2766 2134,2804 2196,2822 2268,2822 2340,2822 2402,2804 2464,2766 2526,2728 2571,2681 2607,2615 2644,2549 2660,2485 2660,2409 2660,2333 2644,2269 2607,2203 2571,2137 2526,2090 2464,2052 2402,2014 2340,1997 2268,1997 L 2268,1997 Z"/>
       </g>
      </g>
      <g class="com.sun.star.drawing.CustomShape">
       <g id="id16">
        <rect class="BoundingBox" stroke="none" fill="none" x="2366" y="2243" width="169" height="169"/>
        <path fill="rgb(255,215,215)" stroke="none" d="M 2450,2244 C 2435,2244 2422,2247 2408,2255 2395,2262 2385,2272 2378,2285 2370,2299 2367,2312 2367,2327 2367,2342 2370,2355 2378,2369 2385,2382 2395,2392 2408,2399 2422,2407 2435,2411 2450,2411 2465,2411 2478,2407 2492,2399 2505,2392 2515,2382 2522,2369 2530,2355 2534,2342 2534,2327 2534,2312 2530,2299 2522,2285 2515,2272 2505,2262 2492,2255 2478,2247 2465,2244 2450,2244 L 2450,2244 Z"/>
       </g>
      </g>
      <g class="com.sun.star.drawing.CustomShape">
       <g id="id17">
        <rect class="BoundingBox" stroke="none" fill="none" x="2132" y="2320" width="299" height="37"/>
        <path fill="rgb(255,215,215)" stroke="none" d="M 2280,2324 C 2253,2326 2230,2328 2206,2331 2182,2334 2166,2337 2152,2340 2139,2343 2133,2346 2133,2349 2133,2351 2139,2353 2153,2354 2167,2355 2184,2356 2208,2355 2231,2355 2255,2354 2282,2352 2309,2350 2332,2348 2356,2345 2379,2342 2396,2339 2410,2336 2423,2333 2429,2330 2429,2327 2429,2325 2423,2323 2409,2322 2395,2321 2378,2320 2354,2321 2330,2321 2307,2322 2280,2324 L 2280,2324 Z"/>
       </g>
      </g>
      <g class="com.sun.star.drawing.CustomShape">
       <g id="id18">
        <rect class="BoundingBox" stroke="none" fill="none" x="2411" y="2284" width="90" height="89"/>
        <path fill="rgb(0,0,0)" stroke="none" d="M 2456,2302 C 2451,2302 2447,2303 2443,2305 2439,2308 2435,2311 2433,2315 2431,2319 2429,2323 2429,2328 2429,2333 2431,2337 2433,2341 2435,2345 2439,2348 2443,2351 2447,2353 2451,2354 2456,2354 2461,2354 2465,2353 2469,2351 2473,2348 2477,2345 2479,2341 2481,2337 2482,2333 2482,2328 2482,2323 2481,2319 2479,2315 2477,2311 2473,2308 2469,2305 2465,2303 2461,2302 2456,2302 L 2456,2302 Z"/>
        <path fill="none" stroke="rgb(0,0,0)" stroke-width="35" stroke-linejoin="round" d="M 2456,2302 C 2451,2302 2447,2303 2443,2305 2439,2308 2435,2311 2433,2315 2431,2319 2429,2323 2429,2328 2429,2333 2431,2337 2433,2341 2435,2345 2439,2348 2443,2351 2447,2353 2451,2354 2456,2354 2461,2354 2465,2353 2469,2351 2473,2348 2477,2345 2479,2341 2481,2337 2482,2333 2482,2328 2482,2323 2481,2319 2479,2315 2477,2311 2473,2308 2469,2305 2465,2303 2461,2302 2456,2302 Z"/>
       </g>
      </g>
      <g class="com.sun.star.drawing.CustomShape">
       <g id="id19">
        <rect class="BoundingBox" stroke="none" fill="none" x="2802" y="2449" width="605" height="947"/>
        <path fill="rgb(120,75,4)" stroke="none" d="M 3192,3351 L 2979,3395 2802,2537 3228,2449 3405,3307 3192,3351 Z"/>
       </g>
      </g>
      <g class="com.sun.star.drawing.CustomShape">
       <g id="id20">
        <rect class="BoundingBox" stroke="none" fill="none" x="2775" y="1997" width="785" height="827"/>
        <path fill="rgb(120,75,4)" stroke="none" d="M 3167,1998 C 3095,1998 3033,2015 2971,2053 2909,2091 2864,2138 2828,2204 2791,2270 2775,2334 2775,2410 2775,2486 2791,2550 2828,2616 2864,2682 2909,2729 2971,2767 3033,2805 3095,2823 3167,2823 3239,2823 3301,2805 3363,2767 3425,2729 3470,2682 3506,2616 3543,2550 3559,2486 3559,2410 3559,2334 3543,2270 3506,2204 3470,2138 3425,2091 3363,2053 3301,2015 3239,1998 3167,1998 L 3167,1998 Z"/>
       </g>
      </g>
      <g class="com.sun.star.drawing.CustomShape">
       <g id="id21">
        <rect class="BoundingBox" stroke="none" fill="none" x="3265" y="2244" width="169" height="169"/>
        <path fill="rgb(255,215,215)" stroke="none" d="M 3349,2245 C 3334,2245 3321,2248 3307,2256 3294,2263 3284,2273 3277,2286 3269,2300 3266,2313 3266,2328 3266,2343 3269,2356 3277,2370 3284,2383 3294,2393 3307,2400 3321,2408 3334,2412 3349,2412 3364,2412 3377,2408 3391,2400 3404,2393 3414,2383 3421,2370 3429,2356 3433,2343 3433,2328 3433,2313 3429,2300 3421,2286 3414,2273 3404,2263 3391,2256 3377,2248 3364,2245 3349,2245 L 3349,2245 Z"/>
       </g>
      </g>
      <g class="com.sun.star.drawing.CustomShape">
       <g id="id22">
        <rect class="BoundingBox" stroke="none" fill="none" x="3031" y="2321" width="299" height="37"/>
        <path fill="rgb(255,215,215)" stroke="none" d="M 3179,2325 C 3152,2327 3129,2329 3105,2332 3081,2335 3065,2338 3051,2341 3038,2344 3032,2347 3032,2350 3032,2352 3038,2354 3052,2355 3066,2356 3083,2357 3107,2356 3130,2356 3154,2355 3181,2353 3208,2351 3231,2349 3255,2346 3278,2343 3295,2340 3309,2337 3322,2334 3328,2331 3328,2328 3328,2326 3322,2324 3308,2323 3294,2322 3277,2321 3253,2322 3229,2322 3206,2323 3179,2325 L 3179,2325 Z"/>
       </g>
      </g>
      <g class="com.sun.star.drawing.CustomShape">
       <g id="id23">
        <rect class="BoundingBox" stroke="none" fill="none" x="3310" y="2285" width="90" height="89"/>
        <path fill="rgb(0,0,0)" stroke="none" d="M 3355,2303 C 3350,2303 3346,2304 3342,2306 3338,2309 3334,2312 3332,2316 3330,2320 3328,2324 3328,2329 3328,2334 3330,2338 3332,2342 3334,2346 3338,2349 3342,2352 3346,2354 3350,2355 3355,2355 3360,2355 3364,2354 3368,2352 3372,2349 3376,2346 3378,2342 3380,2338 3381,2334 3381,2329 3381,2324 3380,2320 3378,2316 3376,2312 3372,2309 3368,2306 3364,2304 3360,2303 3355,2303 L 3355,2303 Z"/>
        <path fill="none" stroke="rgb(0,0,0)" stroke-width="35" stroke-linejoin="round" d="M 3355,2303 C 3350,2303 3346,2304 3342,2306 3338,2309 3334,2312 3332,2316 3330,2320 3328,2324 3328,2329 3328,2334 3330,2338 3332,2342 3334,2346 3338,2349 3342,2352 3346,2354 3350,2355 3355,2355 3360,2355 3364,2354 3368,2352 3372,2349 3376,2346 3378,2342 3380,2338 3381,2334 3381,2329 3381,2324 3380,2320 3378,2316 3376,2312 3372,2309 3368,2306 3364,2304 3360,2303 3355,2303 Z"/>
       </g>
      </g>
      <g class="com.sun.star.drawing.PolyPolygonShape">
       <g id="id24">
        <rect class="BoundingBox" stroke="none" fill="none" x="3476" y="2312" width="408" height="160"/>
        <path fill="rgb(255,222,89)" stroke="none" d="M 3548,2312 L 3796,2361 3883,2441 3483,2471 3476,2463 3548,2312 Z"/>
       </g>
      </g>
      <g class="com.sun.star.drawing.CustomShape">
       <g id="id25">
        <rect class="BoundingBox" stroke="none" fill="none" x="3126" y="2764" width="201" height="33"/>
        <path fill="rgb(255,215,215)" stroke="none" d="M 3225,2766 C 3207,2767 3192,2769 3176,2771 3160,2774 3148,2776 3139,2779 3130,2782 3126,2784 3126,2787 3126,2790 3131,2791 3140,2793 3149,2795 3161,2795 3177,2796 3192,2796 3208,2795 3226,2794 3245,2793 3260,2791 3276,2789 3292,2786 3303,2784 3313,2781 3322,2778 3326,2775 3326,2773 3326,2770 3321,2768 3312,2767 3303,2765 3291,2764 3275,2764 3259,2764 3244,2765 3225,2766 L 3225,2766 Z"/>
       </g>
      </g>
      <g class="com.sun.star.drawing.CustomShape">
       <g id="id26">
        <rect class="BoundingBox" stroke="none" fill="none" x="2862" y="2441" width="117" height="441"/>
        <path fill="rgb(255,215,215)" stroke="none" d="M 2934,2657 C 2923,2617 2914,2583 2904,2548 2893,2513 2885,2489 2878,2469 2871,2449 2866,2441 2864,2441 2861,2442 2862,2452 2865,2472 2868,2493 2872,2519 2880,2554 2888,2589 2896,2624 2906,2664 2917,2705 2926,2739 2936,2773 2946,2808 2954,2833 2962,2853 2969,2872 2974,2881 2976,2880 2979,2880 2978,2870 2975,2849 2972,2828 2967,2803 2960,2767 2952,2732 2944,2698 2934,2657 L 2934,2657 Z"/>
       </g>
      </g>
      <g class="com.sun.star.drawing.CustomShape">
       <g id="id27">
        <rect class="BoundingBox" stroke="none" fill="none" x="3017" y="2611" width="85" height="307"/>
        <path fill="rgb(255,215,215)" stroke="none" d="M 3073,2760 C 3065,2732 3059,2708 3051,2684 3044,2660 3038,2643 3032,2630 3026,2616 3022,2611 3020,2611 3017,2612 3017,2619 3018,2633 3020,2648 3023,2666 3028,2690 3033,2715 3038,2739 3045,2767 3053,2795 3059,2819 3067,2843 3074,2867 3080,2884 3086,2898 3092,2911 3095,2917 3098,2916 3100,2916 3101,2909 3100,2894 3098,2880 3095,2862 3090,2837 3085,2812 3080,2788 3073,2760 L 3073,2760 Z"/>
       </g>
      </g>
      <g class="com.sun.star.drawing.CustomShape">
       <g id="id28">
        <rect class="BoundingBox" stroke="none" fill="none" x="2892" y="2051" width="371" height="154"/>
        <path fill="rgb(255,215,215)" stroke="none" d="M 3071,2115 C 3037,2128 3009,2141 2980,2154 2951,2167 2930,2177 2914,2186 2898,2195 2891,2200 2892,2202 2893,2205 2902,2204 2919,2199 2937,2194 2959,2187 2989,2176 3019,2166 3048,2154 3082,2141 3116,2127 3144,2115 3173,2102 3202,2088 3223,2078 3239,2070 3255,2061 3262,2055 3261,2053 3260,2051 3251,2052 3234,2057 3216,2061 3194,2068 3164,2079 3134,2090 3105,2101 3071,2115 L 3071,2115 Z"/>
       </g>
      </g>
      <g class="com.sun.star.drawing.PolyPolygonShape">
       <g id="id29">
        <rect class="BoundingBox" stroke="none" fill="none" x="2577" y="2311" width="408" height="160"/>
        <path fill="rgb(255,222,89)" stroke="none" d="M 2649,2311 L 2897,2360 2984,2440 2584,2470 2577,2462 2649,2311 Z"/>
       </g>
      </g>
      <g class="com.sun.star.drawing.CustomShape">
       <g id="id30">
        <rect class="BoundingBox" stroke="none" fill="none" x="2227" y="2763" width="201" height="33"/>
        <path fill="rgb(255,215,215)" stroke="none" d="M 2326,2765 C 2308,2766 2293,2768 2277,2770 2261,2773 2249,2775 2240,2778 2231,2781 2227,2783 2227,2786 2227,2789 2232,2790 2241,2792 2250,2794 2262,2794 2278,2795 2293,2795 2309,2794 2327,2793 2346,2792 2361,2790 2377,2788 2393,2785 2404,2783 2414,2780 2423,2777 2427,2774 2427,2772 2427,2769 2422,2767 2413,2766 2404,2764 2392,2763 2376,2763 2360,2763 2345,2764 2326,2765 L 2326,2765 Z"/>
       </g>
      </g>
      <g class="com.sun.star.drawing.CustomShape">
       <g id="id31">
        <rect class="BoundingBox" stroke="none" fill="none" x="1963" y="2440" width="117" height="441"/>
        <path fill="rgb(255,215,215)" stroke="none" d="M 2035,2656 C 2024,2616 2015,2582 2005,2547 1994,2512 1986,2488 1979,2468 1972,2448 1967,2440 1965,2440 1962,2441 1963,2451 1966,2471 1969,2492 1973,2518 1981,2553 1989,2588 1997,2623 2007,2663 2018,2704 2027,2738 2037,2772 2047,2807 2055,2832 2063,2852 2070,2871 2075,2880 2077,2879 2080,2879 2079,2869 2076,2848 2073,2827 2068,2802 2061,2766 2053,2731 2045,2697 2035,2656 L 2035,2656 Z"/>
       </g>
      </g>
      <g class="com.sun.star.drawing.CustomShape">
       <g id="id32">
        <rect class="BoundingBox" stroke="none" fill="none" x="2118" y="2610" width="85" height="307"/>
        <path fill="rgb(255,215,215)" stroke="none" d="M 2174,2759 C 2166,2731 2160,2707 2152,2683 2145,2659 2139,2642 2133,2629 2127,2615 2123,2610 2121,2610 2118,2611 2118,2618 2119,2632 2121,2647 2124,2665 2129,2689 2134,2714 2139,2738 2146,2766 2154,2794 2160,2818 2168,2842 2175,2866 2181,2883 2187,2897 2193,2910 2196,2916 2199,2915 2201,2915 2202,2908 2201,2893 2199,2879 2196,2861 2191,2836 2186,2811 2181,2787 2174,2759 L 2174,2759 Z"/>
       </g>
      </g>
      <g class="com.sun.star.drawing.CustomShape">
       <g id="id33">
        <rect class="BoundingBox" stroke="none" fill="none" x="1993" y="2050" width="371" height="154"/>
        <path fill="rgb(255,215,215)" stroke="none" d="M 2172,2114 C 2138,2127 2110,2140 2081,2153 2052,2166 2031,2176 2015,2185 1999,2194 1992,2199 1993,2201 1994,2204 2003,2203 2020,2198 2038,2193 2060,2186 2090,2175 2120,2165 2149,2153 2183,2140 2217,2126 2245,2114 2274,2101 2303,2087 2324,2077 2340,2069 2356,2060 2363,2054 2362,2052 2361,2050 2352,2051 2335,2056 2317,2060 2295,2067 2265,2078 2235,2089 2206,2100 2172,2114 L 2172,2114 Z"/>
       </g>
      </g>
      <g class="com.sun.star.drawing.CustomShape">
       <g id="id34">
        <rect class="BoundingBox" stroke="none" fill="none" x="1774" y="2930" width="1629" height="773"/>
        <path fill="rgb(120,75,4)" stroke="none" d="M 2588,2931 C 2438,2931 2311,2947 2181,2982 2052,3018 1958,3062 1883,3123 1809,3185 1774,3245 1774,3316 1774,3387 1809,3447 1883,3509 1958,3570 2052,3614 2181,3650 2311,3685 2438,3702 2588,3702 2738,3702 2865,3685 2995,3650 3124,3614 3218,3570 3293,3509 3367,3447 3401,3387 3401,3316 3401,3245 3367,3185 3293,3123 3218,3062 3124,3018 2995,2982 2865,2947 2738,2931 2588,2931 L 2588,2931 Z"/>
       </g>
      </g>
      <g class="com.sun.star.drawing.CustomShape">
       <g id="id35">
        <rect class="BoundingBox" stroke="none" fill="none" x="3174" y="2158" width="299" height="35"/>
        <path fill="rgb(255,215,215)" stroke="none" d="M 3324,2161 C 3297,2159 3273,2158 3250,2158 3226,2158 3209,2159 3195,2160 3181,2161 3175,2163 3175,2166 3175,2168 3181,2171 3194,2174 3208,2177 3225,2180 3248,2182 3272,2185 3295,2187 3322,2189 3349,2191 3373,2192 3396,2192 3420,2192 3437,2191 3451,2190 3465,2189 3471,2187 3471,2184 3471,2182 3465,2179 3452,2176 3438,2173 3421,2170 3398,2168 3374,2165 3351,2163 3324,2161 L 3324,2161 Z"/>
       </g>
      </g>
      <g class="com.sun.star.drawing.CustomShape">
       <g id="id36">
        <rect class="BoundingBox" stroke="none" fill="none" x="875" y="2929" width="1629" height="773"/>
        <path fill="rgb(120,75,4)" stroke="none" d="M 1689,2930 C 1539,2930 1412,2946 1282,2981 1153,3017 1059,3061 984,3122 910,3184 876,3244 876,3315 876,3386 910,3446 984,3508 1059,3569 1153,3613 1282,3649 1412,3684 1539,3701 1689,3701 1839,3701 1966,3684 2096,3649 2225,3613 2319,3569 2394,3508 2468,3446 2502,3386 2502,3315 2502,3244 2468,3184 2394,3122 2319,3061 2225,3017 2096,2981 1966,2946 1839,2930 1689,2930 L 1689,2930 Z"/>
       </g>
      </g>
      <g class="com.sun.star.drawing.CustomShape">
       <g id="id37">
        <rect class="BoundingBox" stroke="none" fill="none" x="2275" y="2157" width="299" height="35"/>
        <path fill="rgb(255,215,215)" stroke="none" d="M 2425,2160 C 2398,2158 2374,2157 2351,2157 2327,2157 2310,2158 2296,2159 2282,2160 2276,2162 2276,2165 2276,2167 2282,2170 2295,2173 2309,2176 2326,2179 2349,2181 2373,2184 2396,2186 2423,2188 2450,2190 2474,2191 2497,2191 2521,2191 2538,2190 2552,2189 2566,2188 2572,2186 2572,2183 2572,2181 2566,2178 2553,2175 2539,2172 2522,2169 2499,2167 2475,2164 2452,2162 2425,2160 L 2425,2160 Z"/>
       </g>
      </g>
     </g>
    </g>
   </g>
  </g>
 </g>
</svg>