<?xml version="1.0" encoding="UTF-8"?>
<!DOCTYPE svg PUBLIC "-//W3C//DTD SVG 1.1//EN" "http://www.w3.org/Graphics/SVG/1.1/DTD/svg11.dtd">
<svg version="1.2" width="70.24mm" height="49.25mm" viewBox="76 1024 7024 4925" preserveAspectRatio="xMidYMid" fill-rule="evenodd" stroke-width="28.222" stroke-linejoin="round" xmlns="http://www.w3.org/2000/svg" xmlns:ooo="http://xml.openoffice.org/svg/export" xmlns:xlink="http://www.w3.org/1999/xlink" xmlns:presentation="http://sun.com/xmlns/staroffice/presentation" xmlns:smil="http://www.w3.org/2001/SMIL20/" xmlns:anim="urn:oasis:names:tc:opendocument:xmlns:animation:1.0" xml:space="preserve">
 <defs class="ClipPathGroup">
  <clipPath id="presentation_clip_path" clipPathUnits="userSpaceOnUse">
   <rect x="76" y="1024" width="7024" height="4925"/>
  </clipPath>
  <clipPath id="presentation_clip_path_shrink" clipPathUnits="userSpaceOnUse">
   <rect x="83" y="1028" width="7010" height="4916"/>
  </clipPath>
 </defs>
 <defs class="TextShapeIndex">
  <g ooo:slide="id1" ooo:id-list="id3 id4 id5 id6 id7 id8 id9 id10 id11 id12 id13 id14 id15 id16 id17 id18 id19 id20 id21 id22 id23 id24 id25 id26 id27 id28 id29 id30 id31 id32 id33 id34 id35 id36 id37 id38 id39 id40 id41"/>
 </defs>
 <defs class="EmbeddedBulletChars">
  <g id="bullet-char-template-57356" transform="scale(0.00048828125,-0.00048828125)">
   <path d="M 580,1141 L 1163,571 580,0 -4,571 580,1141 Z"/>
  </g>
  <g id="bullet-char-template-57354" transform="scale(0.00048828125,-0.00048828125)">
   <path d="M 8,1128 L 1137,1128 1137,0 8,0 8,1128 Z"/>
  </g>
  <g id="bullet-char-template-10146" transform="scale(0.00048828125,-0.00048828125)">
   <path d="M 174,0 L 602,739 174,1481 1456,739 174,0 Z M 1358,739 L 309,1346 659,739 1358,739 Z"/>
  </g>
  <g id="bullet-char-template-10132" transform="scale(0.00048828125,-0.00048828125)">
   <path d="M 2015,739 L 1276,0 717,0 1260,543 174,543 174,936 1260,936 717,1481 1274,1481 2015,739 Z"/>
  </g>
  <g id="bullet-char-template-10007" transform="scale(0.00048828125,-0.00048828125)">
   <path d="M 0,-2 C -7,14 -16,27 -25,37 L 356,567 C 262,823 215,952 215,954 215,979 228,992 255,992 264,992 276,990 289,987 310,991 331,999 354,1012 L 381,999 492,748 772,1049 836,1024 860,1049 C 881,1039 901,1025 922,1006 886,937 835,863 770,784 769,783 710,716 594,584 L 774,223 C 774,196 753,168 711,139 L 727,119 C 717,90 699,76 672,76 641,76 570,178 457,381 L 164,-76 C 142,-110 111,-127 72,-127 30,-127 9,-110 8,-76 1,-67 -2,-52 -2,-32 -2,-23 -1,-13 0,-2 Z"/>
  </g>
  <g id="bullet-char-template-10004" transform="scale(0.00048828125,-0.00048828125)">
   <path d="M 285,-33 C 182,-33 111,30 74,156 52,228 41,333 41,471 41,549 55,616 82,672 116,743 169,778 240,778 293,778 328,747 346,684 L 369,508 C 377,444 397,411 428,410 L 1163,1116 C 1174,1127 1196,1133 1229,1133 1271,1133 1292,1118 1292,1087 L 1292,965 C 1292,929 1282,901 1262,881 L 442,47 C 390,-6 338,-33 285,-33 Z"/>
  </g>
  <g id="bullet-char-template-9679" transform="scale(0.00048828125,-0.00048828125)">
   <path d="M 813,0 C 632,0 489,54 383,161 276,268 223,411 223,592 223,773 276,916 383,1023 489,1130 632,1184 813,1184 992,1184 1136,1130 1245,1023 1353,916 1407,772 1407,592 1407,412 1353,268 1245,161 1136,54 992,0 813,0 Z"/>
  </g>
  <g id="bullet-char-template-8226" transform="scale(0.00048828125,-0.00048828125)">
   <path d="M 346,457 C 273,457 209,483 155,535 101,586 74,649 74,723 74,796 101,859 155,911 209,963 273,989 346,989 419,989 480,963 531,910 582,859 608,796 608,723 608,648 583,586 532,535 482,483 420,457 346,457 Z"/>
  </g>
  <g id="bullet-char-template-8211" transform="scale(0.00048828125,-0.00048828125)">
   <path d="M -4,459 L 1135,459 1135,606 -4,606 -4,459 Z"/>
  </g>
  <g id="bullet-char-template-61548" transform="scale(0.00048828125,-0.00048828125)">
   <path d="M 173,740 C 173,903 231,1043 346,1159 462,1274 601,1332 765,1332 928,1332 1067,1274 1183,1159 1299,1043 1357,903 1357,740 1357,577 1299,437 1183,322 1067,206 928,148 765,148 601,148 462,206 346,322 231,437 173,577 173,740 Z"/>
  </g>
 </defs>
 <defs class="TextEmbeddedBitmaps"/>
 <g class="SlideGroup">
  <g>
   <g id="container-id1">
    <g id="id1" class="Slide" clip-path="url(#presentation_clip_path)">
     <g class="Page">
      <g class="com.sun.star.drawing.CustomShape">
       <g id="id3">
        <rect class="BoundingBox" stroke="none" fill="none" x="4513" y="2098" width="1437" height="2258"/>
        <path fill="rgb(141,40,30)" stroke="none" d="M 5442,4250 L 4936,4355 4513,2307 5526,2098 5948,4146 5442,4250 Z"/>
       </g>
      </g>
      <g class="com.sun.star.drawing.LineShape">
       <g id="id4">
        <rect class="BoundingBox" stroke="none" fill="none" x="1249" y="5230" width="695" height="533"/>
        <path fill="none" stroke="rgb(128,128,128)" stroke-width="247" stroke-linejoin="round" d="M 1819,5354 L 1373,5638"/>
       </g>
      </g>
      <g class="com.sun.star.drawing.CustomShape">
       <g id="id5">
        <rect class="BoundingBox" stroke="none" fill="none" x="75" y="3029" width="5899" height="2541"/>
        <path fill="rgb(120,75,4)" stroke="none" d="M 3024,3029 C 2481,3029 2020,3082 1550,3199 1080,3316 742,3462 471,3664 199,3866 76,4065 76,4299 76,4533 199,4732 471,4934 742,5136 1080,5282 1550,5399 2020,5516 2481,5569 3024,5569 3567,5569 4028,5516 4498,5399 4968,5282 5306,5136 5577,4934 5849,4732 5973,4533 5973,4299 5973,4065 5849,3866 5577,3664 5306,3462 4968,3316 4498,3199 4028,3082 3567,3029 3024,3029 L 3024,3029 Z"/>
       </g>
      </g>
      <g class="com.sun.star.drawing.CustomShape">
       <g id="id6">
        <rect class="BoundingBox" stroke="none" fill="none" x="4454" y="1023" width="1871" height="1969"/>
        <path fill="rgb(141,40,30)" stroke="none" d="M 5389,1024 C 5217,1024 5071,1065 4922,1155 4773,1246 4666,1358 4580,1515 4494,1672 4455,1826 4455,2007 4455,2188 4494,2342 4580,2499 4666,2656 4773,2768 4922,2859 5071,2949 5217,2991 5389,2991 5561,2991 5707,2949 5856,2859 6005,2768 6112,2656 6198,2499 6284,2342 6324,2188 6324,2007 6324,1826 6284,1672 6198,1515 6112,1358 6005,1246 5856,1155 5707,1065 5561,1024 5389,1024 L 5389,1024 Z"/>
       </g>
      </g>
      <g class="com.sun.star.drawing.CustomShape">
       <g id="id7">
        <rect class="BoundingBox" stroke="none" fill="none" x="4818" y="1046" width="1395" height="937"/>
        <path fill="rgb(80,32,12)" stroke="none" d="M 5640,1093 C 5514,1056 5401,1042 5281,1049 5160,1055 5067,1081 4984,1129 4902,1178 4853,1236 4830,1313 4807,1391 4817,1465 4860,1551 4903,1636 4967,1708 5065,1779 5162,1849 5264,1898 5390,1935 5516,1972 5629,1986 5749,1979 5870,1973 5963,1947 6046,1899 6128,1850 6177,1792 6200,1715 6223,1637 6213,1563 6170,1477 6127,1392 6063,1320 5965,1249 5868,1179 5766,1130 5640,1093 L 5640,1093 Z"/>
       </g>
      </g>
      <g class="com.sun.star.drawing.CustomShape">
       <g id="id8">
        <rect class="BoundingBox" stroke="none" fill="none" x="5570" y="1563" width="777" height="1154"/>
        <path fill="rgb(80,32,12)" stroke="none" d="M 6125,1573 C 6060,1554 5999,1562 5928,1598 5857,1633 5797,1686 5739,1767 5680,1848 5639,1932 5609,2036 5578,2141 5566,2233 5572,2333 5578,2433 5599,2509 5639,2578 5680,2646 5727,2686 5792,2705 5856,2724 5918,2716 5989,2681 6060,2645 6119,2592 6178,2511 6237,2430 6277,2346 6308,2242 6339,2137 6350,2045 6344,1945 6339,1845 6318,1769 6277,1700 6237,1632 6189,1592 6125,1573 L 6125,1573 Z"/>
       </g>
      </g>
      <g class="com.sun.star.drawing.CustomShape">
       <g id="id9">
        <rect class="BoundingBox" stroke="none" fill="none" x="5621" y="1612" width="395" height="395"/>
        <path fill="rgb(255,245,206)" stroke="none" d="M 5818,1612 C 5782,1612 5751,1620 5720,1638 5688,1657 5666,1679 5647,1711 5629,1742 5621,1773 5621,1809 5621,1845 5629,1876 5647,1908 5666,1939 5688,1961 5720,1980 5751,1998 5782,2006 5818,2006 5854,2006 5885,1998 5917,1980 5948,1961 5970,1939 5989,1908 6007,1876 6015,1845 6015,1809 6015,1773 6007,1742 5989,1711 5970,1679 5948,1657 5917,1638 5885,1620 5854,1612 5818,1612 L 5818,1612 Z"/>
       </g>
      </g>
      <g class="com.sun.star.drawing.CustomShape">
       <g id="id10">
        <rect class="BoundingBox" stroke="none" fill="none" x="5749" y="1733" width="163" height="163"/>
        <path fill="rgb(0,0,0)" stroke="none" d="M 5830,1751 C 5818,1751 5809,1754 5798,1759 5788,1765 5781,1772 5775,1782 5770,1793 5767,1802 5767,1814 5767,1826 5770,1835 5775,1845 5781,1856 5788,1863 5798,1869 5809,1874 5818,1877 5830,1877 5842,1877 5851,1874 5861,1869 5872,1863 5879,1856 5885,1845 5890,1835 5893,1826 5893,1814 5893,1802 5890,1793 5885,1782 5879,1772 5872,1765 5861,1759 5851,1754 5842,1751 5830,1751 L 5830,1751 Z"/>
        <path fill="none" stroke="rgb(0,0,0)" stroke-width="35" stroke-linejoin="round" d="M 5830,1751 C 5818,1751 5809,1754 5798,1759 5788,1765 5781,1772 5775,1782 5770,1793 5767,1802 5767,1814 5767,1826 5770,1835 5775,1845 5781,1856 5788,1863 5798,1869 5809,1874 5818,1877 5830,1877 5842,1877 5851,1874 5861,1869 5872,1863 5879,1856 5885,1845 5890,1835 5893,1826 5893,1814 5893,1802 5890,1793 5885,1782 5879,1772 5872,1765 5861,1759 5851,1754 5842,1751 5830,1751 Z"/>
       </g>
      </g>
      <g class="com.sun.star.drawing.CustomShape">
       <g id="id11">
        <rect class="BoundingBox" stroke="none" fill="none" x="639" y="5354" width="819" height="596"/>
        <path fill="rgb(153,153,153)" stroke="none" d="M 639,5354 L 683,5949 1457,5743 1435,5446 639,5354 Z"/>
       </g>
      </g>
      <g class="com.sun.star.drawing.CustomShape">
       <g id="id12">
        <rect class="BoundingBox" stroke="none" fill="none" x="6031" y="1892" width="301" height="377"/>
        <path fill="rgb(255,245,206)" stroke="none" d="M 6252,1900 C 6228,1891 6205,1890 6177,1899 6150,1907 6126,1922 6103,1945 6080,1969 6063,1995 6050,2028 6037,2062 6031,2092 6032,2125 6032,2159 6039,2185 6054,2210 6068,2235 6086,2251 6110,2260 6134,2270 6157,2270 6185,2262 6212,2254 6235,2239 6259,2215 6282,2191 6299,2165 6312,2132 6325,2099 6331,2069 6330,2035 6329,2002 6323,1975 6308,1951 6294,1926 6276,1910 6252,1900 L 6252,1900 Z"/>
       </g>
      </g>
      <g class="com.sun.star.drawing.PolyPolygonShape">
       <g id="id13">
        <rect class="BoundingBox" stroke="none" fill="none" x="6129" y="1773" width="972" height="381"/>
        <path fill="rgb(102,102,102)" stroke="none" d="M 6301,1774 L 6891,1889 7100,2082 6146,2152 6129,2133 6301,1774 Z"/>
       </g>
      </g>
      <g class="com.sun.star.drawing.CustomShape">
       <g id="id14">
        <rect class="BoundingBox" stroke="none" fill="none" x="1884" y="2439" width="623" height="965"/>
        <path fill="rgb(120,75,4)" stroke="none" d="M 2283,3350 L 2070,3394 1893,2536 2319,2448 2496,3306 2283,3350 Z"/>
        <path fill="none" stroke="rgb(238,238,238)" stroke-width="18" stroke-linejoin="round" d="M 2283,3350 L 2070,3394 1893,2536 2319,2448 2496,3306 2283,3350 Z"/>
       </g>
      </g>
      <g class="com.sun.star.drawing.CustomShape">
       <g id="id15">
        <rect class="BoundingBox" stroke="none" fill="none" x="1865" y="1996" width="786" height="827"/>
        <path fill="rgb(120,75,4)" stroke="none" d="M 2258,1997 C 2186,1997 2124,2014 2062,2052 2000,2090 1955,2137 1919,2203 1882,2269 1866,2333 1866,2409 1866,2485 1882,2549 1919,2615 1955,2681 2000,2728 2062,2766 2124,2804 2186,2822 2258,2822 2330,2822 2392,2804 2454,2766 2516,2728 2561,2681 2597,2615 2634,2549 2650,2485 2650,2409 2650,2333 2634,2269 2597,2203 2561,2137 2516,2090 2454,2052 2392,2014 2330,1997 2258,1997 L 2258,1997 Z"/>
       </g>
      </g>
      <g class="com.sun.star.drawing.CustomShape">
       <g id="id16">
        <rect class="BoundingBox" stroke="none" fill="none" x="2366" y="2243" width="169" height="169"/>
        <path fill="rgb(255,215,215)" stroke="none" d="M 2450,2244 C 2435,2244 2422,2247 2408,2255 2395,2262 2385,2272 2378,2285 2370,2299 2367,2312 2367,2327 2367,2342 2370,2355 2378,2369 2385,2382 2395,2392 2408,2399 2422,2407 2435,2411 2450,2411 2465,2411 2478,2407 2492,2399 2505,2392 2515,2382 2522,2369 2530,2355 2534,2342 2534,2327 2534,2312 2530,2299 2522,2285 2515,2272 2505,2262 2492,2255 2478,2247 2465,2244 2450,2244 L 2450,2244 Z"/>
       </g>
      </g>
      <g class="com.sun.star.drawing.CustomShape">
       <g id="id17">
        <rect class="BoundingBox" stroke="none" fill="none" x="2122" y="2320" width="299" height="37"/>
        <path fill="rgb(255,215,215)" stroke="none" d="M 2270,2324 C 2243,2326 2220,2328 2196,2331 2172,2334 2156,2337 2142,2340 2129,2343 2123,2346 2123,2349 2123,2351 2129,2353 2143,2354 2157,2355 2174,2356 2198,2355 2221,2355 2245,2354 2272,2352 2299,2350 2322,2348 2346,2345 2369,2342 2386,2339 2400,2336 2413,2333 2419,2330 2419,2327 2419,2325 2413,2323 2399,2322 2385,2321 2368,2320 2344,2321 2320,2321 2297,2322 2270,2324 L 2270,2324 Z"/>
       </g>
      </g>
      <g class="com.sun.star.drawing.CustomShape">
       <g id="id18">
        <rect class="BoundingBox" stroke="none" fill="none" x="2411" y="2284" width="90" height="89"/>
        <path fill="rgb(0,0,0)" stroke="none" d="M 2456,2302 C 2451,2302 2447,2303 2443,2305 2439,2308 2435,2311 2433,2315 2431,2319 2429,2323 2429,2328 2429,2333 2431,2337 2433,2341 2435,2345 2439,2348 2443,2351 2447,2353 2451,2354 2456,2354 2461,2354 2465,2353 2469,2351 2473,2348 2477,2345 2479,2341 2481,2337 2482,2333 2482,2328 2482,2323 2481,2319 2479,2315 2477,2311 2473,2308 2469,2305 2465,2303 2461,2302 2456,2302 L 2456,2302 Z"/>
        <path fill="none" stroke="rgb(0,0,0)" stroke-width="35" stroke-linejoin="round" d="M 2456,2302 C 2451,2302 2447,2303 2443,2305 2439,2308 2435,2311 2433,2315 2431,2319 2429,2323 2429,2328 2429,2333 2431,2337 2433,2341 2435,2345 2439,2348 2443,2351 2447,2353 2451,2354 2456,2354 2461,2354 2465,2353 2469,2351 2473,2348 2477,2345 2479,2341 2481,2337 2482,2333 2482,2328 2482,2323 2481,2319 2479,2315 2477,2311 2473,2308 2469,2305 2465,2303 2461,2302 2456,2302 Z"/>
       </g>
      </g>
      <g class="com.sun.star.drawing.CustomShape">
       <g id="id19">
        <rect class="BoundingBox" stroke="none" fill="none" x="2783" y="2440" width="623" height="965"/>
        <path fill="rgb(120,75,4)" stroke="none" d="M 3182,3351 L 2969,3395 2792,2537 3218,2449 3395,3307 3182,3351 Z"/>
        <path fill="none" stroke="rgb(238,238,238)" stroke-width="18" stroke-linejoin="round" d="M 3182,3351 L 2969,3395 2792,2537 3218,2449 3395,3307 3182,3351 Z"/>
       </g>
      </g>
      <g class="com.sun.star.drawing.CustomShape">
       <g id="id20">
        <rect class="BoundingBox" stroke="none" fill="none" x="2764" y="1997" width="786" height="827"/>
        <path fill="rgb(120,75,4)" stroke="none" d="M 3157,1998 C 3085,1998 3023,2015 2961,2053 2899,2091 2854,2138 2818,2204 2781,2270 2765,2334 2765,2410 2765,2486 2781,2550 2818,2616 2854,2682 2899,2729 2961,2767 3023,2805 3085,2823 3157,2823 3229,2823 3291,2805 3353,2767 3415,2729 3460,2682 3496,2616 3533,2550 3549,2486 3549,2410 3549,2334 3533,2270 3496,2204 3460,2138 3415,2091 3353,2053 3291,2015 3229,1998 3157,1998 L 3157,1998 Z"/>
       </g>
      </g>
      <g class="com.sun.star.drawing.CustomShape">
       <g id="id21">
        <rect class="BoundingBox" stroke="none" fill="none" x="3265" y="2244" width="169" height="169"/>
        <path fill="rgb(255,215,215)" stroke="none" d="M 3349,2245 C 3334,2245 3321,2248 3307,2256 3294,2263 3284,2273 3277,2286 3269,2300 3266,2313 3266,2328 3266,2343 3269,2356 3277,2370 3284,2383 3294,2393 3307,2400 3321,2408 3334,2412 3349,2412 3364,2412 3377,2408 3391,2400 3404,2393 3414,2383 3421,2370 3429,2356 3433,2343 3433,2328 3433,2313 3429,2300 3421,2286 3414,2273 3404,2263 3391,2256 3377,2248 3364,2245 3349,2245 L 3349,2245 Z"/>
       </g>
      </g>
      <g class="com.sun.star.drawing.CustomShape">
       <g id="id22">
        <rect class="BoundingBox" stroke="none" fill="none" x="3021" y="2321" width="299" height="37"/>
        <path fill="rgb(255,215,215)" stroke="none" d="M 3169,2325 C 3142,2327 3119,2329 3095,2332 3071,2335 3055,2338 3041,2341 3028,2344 3022,2347 3022,2350 3022,2352 3028,2354 3042,2355 3056,2356 3073,2357 3097,2356 3120,2356 3144,2355 3171,2353 3198,2351 3221,2349 3245,2346 3268,2343 3285,2340 3299,2337 3312,2334 3318,2331 3318,2328 3318,2326 3312,2324 3298,2323 3284,2322 3267,2321 3243,2322 3219,2322 3196,2323 3169,2325 L 3169,2325 Z"/>
       </g>
      </g>
      <g class="com.sun.star.drawing.CustomShape">
       <g id="id23">
        <rect class="BoundingBox" stroke="none" fill="none" x="3310" y="2285" width="90" height="89"/>
        <path fill="rgb(0,0,0)" stroke="none" d="M 3355,2303 C 3350,2303 3346,2304 3342,2306 3338,2309 3334,2312 3332,2316 3330,2320 3328,2324 3328,2329 3328,2334 3330,2338 3332,2342 3334,2346 3338,2349 3342,2352 3346,2354 3350,2355 3355,2355 3360,2355 3364,2354 3368,2352 3372,2349 3376,2346 3378,2342 3380,2338 3381,2334 3381,2329 3381,2324 3380,2320 3378,2316 3376,2312 3372,2309 3368,2306 3364,2304 3360,2303 3355,2303 L 3355,2303 Z"/>
        <path fill="none" stroke="rgb(0,0,0)" stroke-width="35" stroke-linejoin="round" d="M 3355,2303 C 3350,2303 3346,2304 3342,2306 3338,2309 3334,2312 3332,2316 3330,2320 3328,2324 3328,2329 3328,2334 3330,2338 3332,2342 3334,2346 3338,2349 3342,2352 3346,2354 3350,2355 3355,2355 3360,2355 3364,2354 3368,2352 3372,2349 3376,2346 3378,2342 3380,2338 3381,2334 3381,2329 3381,2324 3380,2320 3378,2316 3376,2312 3372,2309 3368,2306 3364,2304 3360,2303 3355,2303 Z"/>
       </g>
      </g>
      <g class="com.sun.star.drawing.PolyPolygonShape">
       <g id="id24">
        <rect class="BoundingBox" stroke="none" fill="none" x="3476" y="2312" width="408" height="160"/>
        <path fill="rgb(255,222,89)" stroke="none" d="M 3548,2312 L 3796,2361 3883,2442 3483,2471 3476,2463 3548,2312 Z"/>
       </g>
      </g>
      <g class="com.sun.star.drawing.CustomShape">
       <g id="id25">
        <rect class="BoundingBox" stroke="none" fill="none" x="3112" y="2765" width="201" height="33"/>
        <path fill="rgb(255,215,215)" stroke="none" d="M 3211,2767 C 3193,2768 3177,2770 3161,2772 3146,2775 3134,2777 3125,2780 3117,2783 3112,2785 3113,2788 3113,2791 3117,2793 3126,2794 3136,2796 3147,2796 3163,2797 3179,2797 3195,2796 3213,2795 3231,2794 3247,2792 3262,2790 3278,2787 3289,2785 3298,2782 3307,2779 3311,2777 3311,2774 3311,2771 3307,2769 3297,2768 3288,2766 3277,2766 3261,2765 3245,2765 3229,2766 3211,2767 L 3211,2767 Z"/>
       </g>
      </g>
      <g class="com.sun.star.drawing.CustomShape">
       <g id="id26">
        <rect class="BoundingBox" stroke="none" fill="none" x="2852" y="2441" width="117" height="441"/>
        <path fill="rgb(255,215,215)" stroke="none" d="M 2924,2657 C 2913,2617 2904,2583 2894,2548 2883,2513 2875,2489 2868,2469 2861,2449 2856,2441 2854,2441 2851,2442 2852,2452 2855,2472 2858,2493 2862,2519 2870,2554 2878,2589 2886,2624 2896,2664 2907,2705 2916,2739 2926,2773 2936,2808 2944,2833 2952,2853 2959,2872 2964,2881 2966,2880 2969,2880 2968,2870 2965,2849 2962,2828 2957,2803 2950,2767 2942,2732 2934,2698 2924,2657 L 2924,2657 Z"/>
       </g>
      </g>
      <g class="com.sun.star.drawing.CustomShape">
       <g id="id27">
        <rect class="BoundingBox" stroke="none" fill="none" x="3008" y="2611" width="85" height="307"/>
        <path fill="rgb(255,215,215)" stroke="none" d="M 3064,2760 C 3056,2732 3050,2708 3042,2684 3035,2660 3029,2643 3023,2630 3017,2616 3013,2611 3011,2611 3008,2612 3008,2619 3009,2633 3011,2648 3014,2666 3019,2690 3024,2715 3029,2739 3036,2767 3044,2795 3050,2819 3058,2843 3065,2867 3071,2884 3077,2898 3083,2911 3086,2917 3089,2916 3091,2916 3092,2909 3091,2894 3089,2880 3086,2862 3081,2837 3076,2812 3071,2788 3064,2760 L 3064,2760 Z"/>
       </g>
      </g>
      <g class="com.sun.star.drawing.CustomShape">
       <g id="id28">
        <rect class="BoundingBox" stroke="none" fill="none" x="2882" y="2051" width="371" height="154"/>
        <path fill="rgb(255,215,215)" stroke="none" d="M 3061,2115 C 3027,2128 2999,2141 2970,2154 2941,2167 2920,2177 2904,2186 2888,2195 2881,2200 2882,2202 2883,2205 2892,2204 2909,2199 2927,2194 2949,2187 2979,2176 3009,2166 3038,2154 3072,2141 3106,2127 3134,2115 3163,2102 3192,2088 3213,2078 3229,2070 3245,2061 3252,2055 3251,2053 3250,2051 3241,2052 3224,2057 3206,2061 3184,2068 3154,2079 3124,2090 3095,2101 3061,2115 L 3061,2115 Z"/>
       </g>
      </g>
      <g class="com.sun.star.drawing.PolyPolygonShape">
       <g id="id29">
        <rect class="BoundingBox" stroke="none" fill="none" x="2577" y="2311" width="408" height="160"/>
        <path fill="rgb(255,222,89)" stroke="none" d="M 2649,2311 L 2897,2360 2984,2441 2584,2470 2577,2462 2649,2311 Z"/>
       </g>
      </g>
      <g class="com.sun.star.drawing.CustomShape">
       <g id="id30">
        <rect class="BoundingBox" stroke="none" fill="none" x="2213" y="2764" width="201" height="33"/>
        <path fill="rgb(255,215,215)" stroke="none" d="M 2312,2766 C 2294,2767 2278,2769 2262,2771 2247,2774 2235,2776 2226,2779 2218,2782 2213,2784 2214,2787 2214,2790 2218,2792 2227,2793 2237,2795 2248,2795 2264,2796 2280,2796 2296,2795 2314,2794 2332,2793 2348,2791 2363,2789 2379,2786 2390,2784 2399,2781 2408,2778 2412,2776 2412,2773 2412,2770 2408,2768 2398,2767 2389,2765 2378,2765 2362,2764 2346,2764 2330,2765 2312,2766 L 2312,2766 Z"/>
       </g>
      </g>
      <g class="com.sun.star.drawing.CustomShape">
       <g id="id31">
        <rect class="BoundingBox" stroke="none" fill="none" x="1953" y="2440" width="117" height="441"/>
        <path fill="rgb(255,215,215)" stroke="none" d="M 2025,2656 C 2014,2616 2005,2582 1995,2547 1984,2512 1976,2488 1969,2468 1962,2448 1957,2440 1955,2440 1952,2441 1953,2451 1956,2471 1959,2492 1963,2518 1971,2553 1979,2588 1987,2623 1997,2663 2008,2704 2017,2738 2027,2772 2037,2807 2045,2832 2053,2852 2060,2871 2065,2880 2067,2879 2070,2879 2069,2869 2066,2848 2063,2827 2058,2802 2051,2766 2043,2731 2035,2697 2025,2656 L 2025,2656 Z"/>
       </g>
      </g>
      <g class="com.sun.star.drawing.CustomShape">
       <g id="id32">
        <rect class="BoundingBox" stroke="none" fill="none" x="2109" y="2610" width="85" height="307"/>
        <path fill="rgb(255,215,215)" stroke="none" d="M 2165,2759 C 2157,2731 2151,2707 2143,2683 2136,2659 2130,2642 2124,2629 2118,2615 2114,2610 2112,2610 2109,2611 2109,2618 2110,2632 2112,2647 2115,2665 2120,2689 2125,2714 2130,2738 2137,2766 2145,2794 2151,2818 2159,2842 2166,2866 2172,2883 2178,2897 2184,2910 2187,2916 2190,2915 2192,2915 2193,2908 2192,2893 2190,2879 2187,2861 2182,2836 2177,2811 2172,2787 2165,2759 L 2165,2759 Z"/>
       </g>
      </g>
      <g class="com.sun.star.drawing.CustomShape">
       <g id="id33">
        <rect class="BoundingBox" stroke="none" fill="none" x="1983" y="2050" width="371" height="154"/>
        <path fill="rgb(255,215,215)" stroke="none" d="M 2162,2114 C 2128,2127 2100,2140 2071,2153 2042,2166 2021,2176 2005,2185 1989,2194 1982,2199 1983,2201 1984,2204 1993,2203 2010,2198 2028,2193 2050,2186 2080,2175 2110,2165 2139,2153 2173,2140 2207,2126 2235,2114 2264,2101 2293,2087 2314,2077 2330,2069 2346,2060 2353,2054 2352,2052 2351,2050 2342,2051 2325,2056 2307,2060 2285,2067 2255,2078 2225,2089 2196,2100 2162,2114 L 2162,2114 Z"/>
       </g>
      </g>
      <g class="com.sun.star.drawing.CustomShape">
       <g id="id34">
        <rect class="BoundingBox" stroke="none" fill="none" x="866" y="2920" width="1647" height="791"/>
        <path fill="rgb(120,75,4)" stroke="none" d="M 1689,2930 C 1539,2930 1412,2946 1282,2981 1153,3017 1059,3061 984,3122 910,3184 876,3244 876,3315 876,3386 910,3446 984,3508 1059,3569 1153,3613 1282,3649 1412,3684 1539,3701 1689,3701 1839,3701 1966,3684 2096,3649 2225,3613 2319,3569 2394,3508 2468,3446 2502,3386 2502,3315 2502,3244 2468,3184 2394,3122 2319,3061 2225,3017 2096,2981 1966,2946 1839,2930 1689,2930 L 1689,2930 Z"/>
        <path fill="none" stroke="rgb(238,238,238)" stroke-width="18" stroke-linejoin="round" d="M 1689,2930 C 1539,2930 1412,2946 1282,2981 1153,3017 1059,3061 984,3122 910,3184 876,3244 876,3315 876,3386 910,3446 984,3508 1059,3569 1153,3613 1282,3649 1412,3684 1539,3701 1689,3701 1839,3701 1966,3684 2096,3649 2225,3613 2319,3569 2394,3508 2468,3446 2502,3386 2502,3315 2502,3244 2468,3184 2394,3122 2319,3061 2225,3017 2096,2981 1966,2946 1839,2930 1689,2930 L 1689,2930 Z"/>
       </g>
      </g>
      <g class="com.sun.star.drawing.CustomShape">
       <g id="id35">
        <rect class="BoundingBox" stroke="none" fill="none" x="1765" y="2921" width="1647" height="791"/>
        <path fill="rgb(120,75,4)" stroke="none" d="M 2588,2931 C 2438,2931 2311,2947 2181,2982 2052,3018 1958,3062 1883,3123 1809,3185 1774,3245 1774,3316 1774,3387 1809,3447 1883,3509 1958,3570 2052,3614 2181,3650 2311,3685 2438,3702 2588,3702 2738,3702 2865,3685 2995,3650 3124,3614 3218,3570 3293,3509 3367,3447 3401,3387 3401,3316 3401,3245 3367,3185 3293,3123 3218,3062 3124,3018 2995,2982 2865,2947 2738,2931 2588,2931 L 2588,2931 Z"/>
        <path fill="none" stroke="rgb(238,238,238)" stroke-width="18" stroke-linejoin="round" d="M 2588,2931 C 2438,2931 2311,2947 2181,2982 2052,3018 1958,3062 1883,3123 1809,3185 1774,3245 1774,3316 1774,3387 1809,3447 1883,3509 1958,3570 2052,3614 2181,3650 2311,3685 2438,3702 2588,3702 2738,3702 2865,3685 2995,3650 3124,3614 3218,3570 3293,3509 3367,3447 3401,3387 3401,3316 3401,3245 3367,3185 3293,3123 3218,3062 3124,3018 2995,2982 2865,2947 2738,2931 2588,2931 L 2588,2931 Z"/>
       </g>
      </g>
      <g class="com.sun.star.drawing.CustomShape">
       <g id="id36">
        <rect class="BoundingBox" stroke="none" fill="none" x="3164" y="2158" width="299" height="35"/>
        <path fill="rgb(255,215,215)" stroke="none" d="M 3314,2161 C 3287,2159 3263,2158 3240,2158 3216,2158 3199,2159 3185,2160 3171,2161 3165,2163 3165,2166 3165,2168 3171,2171 3184,2174 3198,2177 3215,2180 3238,2182 3262,2185 3285,2187 3312,2189 3339,2191 3363,2192 3386,2192 3410,2192 3427,2191 3441,2190 3455,2189 3461,2187 3461,2184 3461,2182 3455,2179 3442,2176 3428,2173 3411,2170 3388,2168 3364,2165 3341,2163 3314,2161 L 3314,2161 Z"/>
       </g>
      </g>
      <g class="com.sun.star.drawing.CustomShape">
       <g id="id37">
        <rect class="BoundingBox" stroke="none" fill="none" x="2265" y="2157" width="299" height="35"/>
        <path fill="rgb(255,215,215)" stroke="none" d="M 2415,2160 C 2388,2158 2364,2157 2341,2157 2317,2157 2300,2158 2286,2159 2272,2160 2266,2162 2266,2165 2266,2167 2272,2170 2285,2173 2299,2176 2316,2179 2339,2181 2363,2184 2386,2186 2413,2188 2440,2190 2464,2191 2487,2191 2511,2191 2528,2190 2542,2189 2556,2188 2562,2186 2562,2183 2562,2181 2556,2178 2543,2175 2529,2172 2512,2169 2489,2167 2465,2164 2442,2162 2415,2160 L 2415,2160 Z"/>
       </g>
      </g>
      <g class="com.sun.star.drawing.LineShape">
       <g id="id38">
        <rect class="BoundingBox" stroke="none" fill="none" x="1931" y="3554" width="402" height="296"/>
        <path fill="none" stroke="rgb(128,128,128)" stroke-width="106" stroke-linejoin="round" d="M 2279,3608 L 1984,3795"/>
       </g>
      </g>
      <g class="com.sun.star.drawing.CustomShape">
       <g id="id39">
        <rect class="BoundingBox" stroke="none" fill="none" x="1694" y="3677" width="342" height="248"/>
        <path fill="rgb(153,153,153)" stroke="none" d="M 1695,3677 L 1712,3924 2034,3838 2025,3714 1695,3677 Z"/>
       </g>
      </g>
      <g class="com.sun.star.drawing.LineShape">
       <g id="id40">
        <rect class="BoundingBox" stroke="none" fill="none" x="852" y="3446" width="402" height="296"/>
        <path fill="none" stroke="rgb(128,128,128)" stroke-width="106" stroke-linejoin="round" d="M 1200,3500 L 905,3687"/>
       </g>
      </g>
      <g class="com.sun.star.drawing.CustomShape">
       <g id="id41">
        <rect class="BoundingBox" stroke="none" fill="none" x="615" y="3569" width="342" height="248"/>
        <path fill="rgb(153,153,153)" stroke="none" d="M 616,3569 L 633,3816 955,3730 946,3606 616,3569 Z"/>
       </g>
      </g>
     </g>
    </g>
   </g>
  </g>
 </g>
</svg>