<?xml version="1.0" encoding="UTF-8"?>
<!DOCTYPE svg PUBLIC "-//W3C//DTD SVG 1.1//EN" "http://www.w3.org/Graphics/SVG/1.1/DTD/svg11.dtd">
<svg version="1.2" width="62.21mm" height="28.23mm" viewBox="300 1501 6221 2823" preserveAspectRatio="xMidYMid" fill-rule="evenodd" stroke-width="28.222" stroke-linejoin="round" xmlns="http://www.w3.org/2000/svg" xmlns:ooo="http://xml.openoffice.org/svg/export" xmlns:xlink="http://www.w3.org/1999/xlink" xmlns:presentation="http://sun.com/xmlns/staroffice/presentation" xmlns:smil="http://www.w3.org/2001/SMIL20/" xmlns:anim="urn:oasis:names:tc:opendocument:xmlns:animation:1.0" xml:space="preserve">
 <defs class="ClipPathGroup">
  <clipPath id="presentation_clip_path" clipPathUnits="userSpaceOnUse">
   <rect x="300" y="1501" width="6221" height="2823"/>
  </clipPath>
  <clipPath id="presentation_clip_path_shrink" clipPathUnits="userSpaceOnUse">
   <rect x="306" y="1503" width="6209" height="2818"/>
  </clipPath>
 </defs>
 <defs class="TextShapeIndex">
  <g ooo:slide="id1" ooo:id-list="id3 id4 id5 id6 id7 id8 id9 id10 id11 id12 id13"/>
 </defs>
 <defs class="EmbeddedBulletChars">
  <g id="bullet-char-template-57356" transform="scale(0.00048828125,-0.00048828125)">
   <path d="M 580,1141 L 1163,571 580,0 -4,571 580,1141 Z"/>
  </g>
  <g id="bullet-char-template-57354" transform="scale(0.00048828125,-0.00048828125)">
   <path d="M 8,1128 L 1137,1128 1137,0 8,0 8,1128 Z"/>
  </g>
  <g id="bullet-char-template-10146" transform="scale(0.00048828125,-0.00048828125)">
   <path d="M 174,0 L 602,739 174,1481 1456,739 174,0 Z M 1358,739 L 309,1346 659,739 1358,739 Z"/>
  </g>
  <g id="bullet-char-template-10132" transform="scale(0.00048828125,-0.00048828125)">
   <path d="M 2015,739 L 1276,0 717,0 1260,543 174,543 174,936 1260,936 717,1481 1274,1481 2015,739 Z"/>
  </g>
  <g id="bullet-char-template-10007" transform="scale(0.00048828125,-0.00048828125)">
   <path d="M 0,-2 C -7,14 -16,27 -25,37 L 356,567 C 262,823 215,952 215,954 215,979 228,992 255,992 264,992 276,990 289,987 310,991 331,999 354,1012 L 381,999 492,748 772,1049 836,1024 860,1049 C 881,1039 901,1025 922,1006 886,937 835,863 770,784 769,783 710,716 594,584 L 774,223 C 774,196 753,168 711,139 L 727,119 C 717,90 699,76 672,76 641,76 570,178 457,381 L 164,-76 C 142,-110 111,-127 72,-127 30,-127 9,-110 8,-76 1,-67 -2,-52 -2,-32 -2,-23 -1,-13 0,-2 Z"/>
  </g>
  <g id="bullet-char-template-10004" transform="scale(0.00048828125,-0.00048828125)">
   <path d="M 285,-33 C 182,-33 111,30 74,156 52,228 41,333 41,471 41,549 55,616 82,672 116,743 169,778 240,778 293,778 328,747 346,684 L 369,508 C 377,444 397,411 428,410 L 1163,1116 C 1174,1127 1196,1133 1229,1133 1271,1133 1292,1118 1292,1087 L 1292,965 C 1292,929 1282,901 1262,881 L 442,47 C 390,-6 338,-33 285,-33 Z"/>
  </g>
  <g id="bullet-char-template-9679" transform="scale(0.00048828125,-0.00048828125)">
   <path d="M 813,0 C 632,0 489,54 383,161 276,268 223,411 223,592 223,773 276,916 383,1023 489,1130 632,1184 813,1184 992,1184 1136,1130 1245,1023 1353,916 1407,772 1407,592 1407,412 1353,268 1245,161 1136,54 992,0 813,0 Z"/>
  </g>
  <g id="bullet-char-template-8226" transform="scale(0.00048828125,-0.00048828125)">
   <path d="M 346,457 C 273,457 209,483 155,535 101,586 74,649 74,723 74,796 101,859 155,911 209,963 273,989 346,989 419,989 480,963 531,910 582,859 608,796 608,723 608,648 583,586 532,535 482,483 420,457 346,457 Z"/>
  </g>
  <g id="bullet-char-template-8211" transform="scale(0.00048828125,-0.00048828125)">
   <path d="M -4,459 L 1135,459 1135,606 -4,606 -4,459 Z"/>
  </g>
  <g id="bullet-char-template-61548" transform="scale(0.00048828125,-0.00048828125)">
   <path d="M 173,740 C 173,903 231,1043 346,1159 462,1274 601,1332 765,1332 928,1332 1067,1274 1183,1159 1299,1043 1357,903 1357,740 1357,577 1299,437 1183,322 1067,206 928,148 765,148 601,148 462,206 346,322 231,437 173,577 173,740 Z"/>
  </g>
 </defs>
 <defs class="TextEmbeddedBitmaps"/>
 <g class="SlideGroup">
  <g>
   <g id="container-id1">
    <g id="id1" class="Slide" clip-path="url(#presentation_clip_path)">
     <g class="Page">
      <g class="com.sun.star.drawing.CustomShape">
       <g id="id3">
        <rect class="BoundingBox" stroke="none" fill="none" x="4010" y="3388" width="2489" height="461"/>
        <path fill="rgb(238,238,238)" stroke="none" d="M 5243,3397 C 5472,3386 5667,3385 5866,3396 6066,3406 6209,3425 6325,3454 6442,3484 6495,3516 6497,3557 6499,3598 6449,3635 6336,3676 6224,3717 6082,3749 5885,3779 5688,3809 5494,3828 5265,3839 5036,3851 4841,3851 4642,3840 4442,3830 4299,3811 4183,3782 4066,3752 4013,3720 4011,3679 4009,3639 4059,3601 4172,3560 4284,3520 4426,3487 4623,3457 4820,3427 5014,3408 5243,3397 L 5243,3397 Z"/>
       </g>
      </g>
      <g class="com.sun.star.drawing.CustomShape">
       <g id="id4">
        <rect class="BoundingBox" stroke="none" fill="none" x="599" y="2999" width="4203" height="1103"/>
        <path fill="rgb(42,96,153)" stroke="none" d="M 2700,3000 C 3087,3000 3415,3023 3750,3073 4085,3124 4326,3187 4519,3275 4712,3363 4801,3449 4801,3550 4801,3651 4712,3737 4519,3825 4326,3913 4085,3976 3750,4027 3415,4077 3087,4101 2700,4101 2313,4101 1985,4077 1650,4027 1315,3976 1074,3913 881,3825 688,3737 600,3651 600,3550 599,3449 688,3363 881,3275 1074,3187 1315,3124 1650,3073 1985,3023 2313,3000 2700,3000 L 2700,3000 Z"/>
       </g>
      </g>
      <g class="com.sun.star.drawing.CustomShape">
       <g id="id5">
        <rect class="BoundingBox" stroke="none" fill="none" x="1569" y="2676" width="2003" height="641"/>
        <path fill="rgb(42,96,153)" stroke="none" d="M 2570,2676 C 2754,2676 2911,2689 3070,2719 3230,2748 3344,2785 3436,2836 3529,2887 3571,2937 3571,2996 3571,3055 3529,3105 3436,3156 3344,3207 3230,3244 3070,3273 2911,3303 2754,3316 2570,3316 2386,3316 2229,3303 2070,3273 1910,3244 1796,3207 1704,3156 1611,3105 1570,3055 1570,2996 1569,2937 1611,2887 1704,2836 1796,2785 1910,2748 2070,2719 2229,2689 2386,2676 2570,2676 L 2570,2676 Z"/>
       </g>
      </g>
      <g class="com.sun.star.drawing.CustomShape">
       <g id="id6">
        <rect class="BoundingBox" stroke="none" fill="none" x="1563" y="1500" width="3260" height="1645"/>
        <path fill="rgb(42,96,153)" stroke="none" d="M 3016,1924 C 3314,1791 3574,1696 3848,1618 4123,1540 4328,1503 4506,1501 4683,1498 4778,1530 4811,1604 4843,1677 4803,1769 4682,1899 4562,2029 4397,2157 4155,2308 3913,2459 3667,2588 3370,2721 3072,2853 2811,2949 2537,3026 2262,3104 2057,3141 1880,3144 1703,3146 1607,3114 1574,3041 1542,2967 1582,2875 1703,2745 1823,2615 1989,2487 2230,2336 2472,2185 2718,2056 3016,1924 L 3016,1924 Z"/>
       </g>
      </g>
      <g class="com.sun.star.drawing.CustomShape">
       <g id="id7">
        <rect class="BoundingBox" stroke="none" fill="none" x="1600" y="3634" width="1901" height="473"/>
        <path fill="rgb(238,238,238)" stroke="none" d="M 2539,3640 C 2713,3631 2862,3634 3015,3647 3167,3661 3277,3682 3366,3714 3456,3747 3497,3781 3499,3823 3501,3866 3463,3904 3378,3945 3292,3986 3185,4017 3034,4046 2884,4075 2736,4092 2561,4100 2387,4109 2238,4106 2085,4093 1933,4079 1823,4058 1734,4026 1644,3993 1603,3959 1601,3917 1599,3874 1637,3836 1722,3795 1808,3754 1915,3723 2066,3694 2216,3665 2364,3648 2539,3640 L 2539,3640 Z"/>
       </g>
      </g>
      <g class="com.sun.star.drawing.CustomShape">
       <g id="id8">
        <rect class="BoundingBox" stroke="none" fill="none" x="1452" y="3446" width="3501" height="879"/>
        <path fill="rgb(42,96,153)" stroke="none" d="M 3256,3545 C 3578,3595 3849,3653 4123,3728 4397,3803 4591,3874 4743,3953 4896,4033 4961,4098 4951,4160 4941,4223 4859,4265 4690,4294 4520,4323 4314,4330 4030,4317 3746,4305 3470,4276 3148,4225 2826,4175 2555,4117 2281,4042 2007,3967 1813,3896 1661,3817 1508,3737 1443,3672 1453,3610 1463,3547 1545,3505 1714,3476 1884,3447 2090,3440 2374,3453 2658,3465 2934,3494 3256,3545 L 3256,3545 Z"/>
       </g>
      </g>
      <g class="com.sun.star.drawing.CustomShape">
       <g id="id9">
        <rect class="BoundingBox" stroke="none" fill="none" x="2319" y="3360" width="4203" height="403"/>
        <path fill="rgb(42,96,153)" stroke="none" d="M 4420,3361 C 4807,3361 5135,3369 5470,3387 5805,3406 6046,3429 6239,3461 6432,3493 6521,3524 6521,3561 6521,3598 6432,3629 6239,3661 6046,3693 5805,3716 5470,3735 5135,3753 4807,3762 4420,3762 4033,3762 3705,3753 3370,3735 3035,3716 2794,3693 2601,3661 2408,3629 2320,3598 2320,3561 2319,3524 2408,3493 2601,3461 2794,3429 3035,3406 3370,3387 3705,3369 4033,3361 4420,3361 L 4420,3361 Z"/>
       </g>
      </g>
      <g class="com.sun.star.drawing.CustomShape">
       <g id="id10">
        <rect class="BoundingBox" stroke="none" fill="none" x="573" y="3298" width="386" height="300"/>
        <path fill="rgb(190,72,10)" stroke="none" d="M 708,3361 C 742,3339 773,3324 807,3312 842,3301 869,3296 895,3299 921,3301 938,3310 948,3325 959,3341 960,3360 952,3385 944,3409 930,3433 906,3460 882,3488 856,3510 823,3533 789,3555 758,3571 724,3582 689,3594 662,3598 636,3595 610,3593 593,3585 583,3569 572,3553 571,3535 579,3510 586,3485 601,3461 625,3434 648,3407 675,3384 708,3361 L 708,3361 Z"/>
       </g>
      </g>
      <g class="com.sun.star.drawing.CustomShape">
       <g id="id11">
        <rect class="BoundingBox" stroke="none" fill="none" x="907" y="3368" width="195" height="195"/>
        <path fill="rgb(0,0,0)" stroke="none" d="M 1004,3368 C 986,3368 971,3372 956,3381 940,3390 929,3401 920,3417 911,3432 907,3447 907,3465 907,3483 911,3498 920,3514 929,3529 940,3540 956,3549 971,3558 986,3562 1004,3562 1022,3562 1037,3558 1053,3549 1068,3540 1079,3529 1088,3514 1097,3498 1101,3483 1101,3465 1101,3447 1097,3432 1088,3417 1079,3401 1068,3390 1053,3381 1037,3372 1022,3368 1004,3368 L 1004,3368 Z"/>
       </g>
      </g>
      <g class="com.sun.star.drawing.CustomShape">
       <g id="id12">
        <rect class="BoundingBox" stroke="none" fill="none" x="628" y="3573" width="580" height="345"/>
        <path fill="rgb(190,72,10)" stroke="none" d="M 964,3653 C 1017,3680 1059,3706 1100,3738 1141,3770 1169,3797 1187,3825 1206,3853 1211,3873 1202,3890 1194,3907 1174,3915 1141,3916 1107,3918 1069,3912 1019,3897 970,3882 923,3864 871,3837 818,3810 776,3784 735,3752 694,3721 666,3694 647,3666 629,3638 624,3617 633,3600 641,3583 661,3575 694,3574 728,3572 766,3579 816,3593 865,3608 912,3627 964,3653 L 964,3653 Z"/>
       </g>
      </g>
      <g class="com.sun.star.drawing.PolyPolygonShape">
       <g id="id13">
        <rect class="BoundingBox" stroke="none" fill="none" x="299" y="3492" width="503" height="163"/>
        <path fill="rgb(0,0,0)" stroke="none" d="M 718,3493 L 411,3520 300,3592 791,3653 800,3646 718,3493 Z"/>
       </g>
      </g>
     </g>
    </g>
   </g>
  </g>
 </g>
</svg>