<?xml version="1.0" encoding="UTF-8"?>
<!DOCTYPE svg PUBLIC "-//W3C//DTD SVG 1.1//EN" "http://www.w3.org/Graphics/SVG/1.1/DTD/svg11.dtd">
<svg version="1.2" width="64.64mm" height="45.34mm" viewBox="298 1622 6464 4534" preserveAspectRatio="xMidYMid" fill-rule="evenodd" stroke-width="28.222" stroke-linejoin="round" xmlns="http://www.w3.org/2000/svg" xmlns:ooo="http://xml.openoffice.org/svg/export" xmlns:xlink="http://www.w3.org/1999/xlink" xmlns:presentation="http://sun.com/xmlns/staroffice/presentation" xmlns:smil="http://www.w3.org/2001/SMIL20/" xmlns:anim="urn:oasis:names:tc:opendocument:xmlns:animation:1.0" xml:space="preserve">
 <defs class="ClipPathGroup">
  <clipPath id="presentation_clip_path" clipPathUnits="userSpaceOnUse">
   <rect x="298" y="1622" width="6464" height="4534"/>
  </clipPath>
  <clipPath id="presentation_clip_path_shrink" clipPathUnits="userSpaceOnUse">
   <rect x="304" y="1626" width="6452" height="4525"/>
  </clipPath>
 </defs>
 <defs class="TextShapeIndex">
  <g ooo:slide="id1" ooo:id-list="id3 id4 id5 id6 id7 id8 id9 id10 id11 id12 id13 id14 id15 id16"/>
 </defs>
 <defs class="EmbeddedBulletChars">
  <g id="bullet-char-template-57356" transform="scale(0.00048828125,-0.00048828125)">
   <path d="M 580,1141 L 1163,571 580,0 -4,571 580,1141 Z"/>
  </g>
  <g id="bullet-char-template-57354" transform="scale(0.00048828125,-0.00048828125)">
   <path d="M 8,1128 L 1137,1128 1137,0 8,0 8,1128 Z"/>
  </g>
  <g id="bullet-char-template-10146" transform="scale(0.00048828125,-0.00048828125)">
   <path d="M 174,0 L 602,739 174,1481 1456,739 174,0 Z M 1358,739 L 309,1346 659,739 1358,739 Z"/>
  </g>
  <g id="bullet-char-template-10132" transform="scale(0.00048828125,-0.00048828125)">
   <path d="M 2015,739 L 1276,0 717,0 1260,543 174,543 174,936 1260,936 717,1481 1274,1481 2015,739 Z"/>
  </g>
  <g id="bullet-char-template-10007" transform="scale(0.00048828125,-0.00048828125)">
   <path d="M 0,-2 C -7,14 -16,27 -25,37 L 356,567 C 262,823 215,952 215,954 215,979 228,992 255,992 264,992 276,990 289,987 310,991 331,999 354,1012 L 381,999 492,748 772,1049 836,1024 860,1049 C 881,1039 901,1025 922,1006 886,937 835,863 770,784 769,783 710,716 594,584 L 774,223 C 774,196 753,168 711,139 L 727,119 C 717,90 699,76 672,76 641,76 570,178 457,381 L 164,-76 C 142,-110 111,-127 72,-127 30,-127 9,-110 8,-76 1,-67 -2,-52 -2,-32 -2,-23 -1,-13 0,-2 Z"/>
  </g>
  <g id="bullet-char-template-10004" transform="scale(0.00048828125,-0.00048828125)">
   <path d="M 285,-33 C 182,-33 111,30 74,156 52,228 41,333 41,471 41,549 55,616 82,672 116,743 169,778 240,778 293,778 328,747 346,684 L 369,508 C 377,444 397,411 428,410 L 1163,1116 C 1174,1127 1196,1133 1229,1133 1271,1133 1292,1118 1292,1087 L 1292,965 C 1292,929 1282,901 1262,881 L 442,47 C 390,-6 338,-33 285,-33 Z"/>
  </g>
  <g id="bullet-char-template-9679" transform="scale(0.00048828125,-0.00048828125)">
   <path d="M 813,0 C 632,0 489,54 383,161 276,268 223,411 223,592 223,773 276,916 383,1023 489,1130 632,1184 813,1184 992,1184 1136,1130 1245,1023 1353,916 1407,772 1407,592 1407,412 1353,268 1245,161 1136,54 992,0 813,0 Z"/>
  </g>
  <g id="bullet-char-template-8226" transform="scale(0.00048828125,-0.00048828125)">
   <path d="M 346,457 C 273,457 209,483 155,535 101,586 74,649 74,723 74,796 101,859 155,911 209,963 273,989 346,989 419,989 480,963 531,910 582,859 608,796 608,723 608,648 583,586 532,535 482,483 420,457 346,457 Z"/>
  </g>
  <g id="bullet-char-template-8211" transform="scale(0.00048828125,-0.00048828125)">
   <path d="M -4,459 L 1135,459 1135,606 -4,606 -4,459 Z"/>
  </g>
  <g id="bullet-char-template-61548" transform="scale(0.00048828125,-0.00048828125)">
   <path d="M 173,740 C 173,903 231,1043 346,1159 462,1274 601,1332 765,1332 928,1332 1067,1274 1183,1159 1299,1043 1357,903 1357,740 1357,577 1299,437 1183,322 1067,206 928,148 765,148 601,148 462,206 346,322 231,437 173,577 173,740 Z"/>
  </g>
 </defs>
 <defs class="TextEmbeddedBitmaps"/>
 <g class="SlideGroup">
  <g>
   <g id="container-id1">
    <g id="id1" class="Slide" clip-path="url(#presentation_clip_path)">
     <g class="Page">
      <g class="com.sun.star.drawing.LineShape">
       <g id="id3">
        <rect class="BoundingBox" stroke="none" fill="none" x="962" y="5376" width="720" height="549"/>
        <path fill="none" stroke="rgb(128,128,128)" stroke-width="247" stroke-linejoin="round" d="M 1557,5500 L 1086,5800"/>
       </g>
      </g>
      <g class="com.sun.star.drawing.CustomShape">
       <g id="id4">
        <rect class="BoundingBox" stroke="none" fill="none" x="4835" y="2340" width="1922" height="1189"/>
        <path fill="rgb(153,153,153)" stroke="none" d="M 5939,2681 C 5764,2582 5610,2509 5445,2447 5281,2384 5156,2352 5046,2343 4936,2334 4874,2351 4847,2398 4821,2444 4838,2507 4903,2596 4967,2686 5059,2777 5197,2885 5335,2994 5478,3089 5652,3187 5827,3286 5981,3359 6146,3422 6310,3484 6435,3516 6545,3525 6655,3534 6717,3517 6744,3470 6770,3424 6753,3362 6688,3272 6624,3182 6532,3092 6394,2983 6256,2874 6113,2780 5939,2681 L 5939,2681 Z"/>
       </g>
      </g>
      <g class="com.sun.star.drawing.CustomShape">
       <g id="id5">
        <rect class="BoundingBox" stroke="none" fill="none" x="352" y="2765" width="6225" height="3114"/>
        <path fill="rgb(0,0,0)" stroke="none" d="M 3464,2766 C 2891,2766 2404,2831 1908,2974 1412,3118 1056,3296 769,3544 483,3792 353,4036 353,4322 353,4608 483,4852 769,5100 1056,5348 1412,5526 1908,5670 2404,5813 2891,5878 3464,5878 4037,5878 4524,5813 5020,5670 5516,5526 5872,5348 6159,5100 6445,4852 6576,4608 6576,4322 6576,4036 6445,3792 6159,3544 5872,3296 5516,3118 5020,2974 4524,2831 4037,2766 3464,2766 L 3464,2766 Z"/>
       </g>
      </g>
      <g class="com.sun.star.drawing.CustomShape">
       <g id="id6">
        <rect class="BoundingBox" stroke="none" fill="none" x="1597" y="4010" width="3839" height="1869"/>
        <path fill="rgb(238,238,238)" stroke="none" d="M 3516,4010 C 3163,4010 2862,4049 2557,4135 2251,4221 2031,4328 1854,4477 1677,4626 1597,4772 1597,4944 1597,5116 1677,5262 1854,5411 2031,5560 2251,5667 2556,5753 2862,5839 3163,5878 3516,5878 3869,5878 4170,5839 4475,5753 4781,5667 5001,5560 5178,5411 5355,5262 5435,5116 5435,4944 5435,4772 5355,4626 5178,4477 5001,4328 4781,4221 4476,4135 4170,4049 3869,4010 3516,4010 L 3516,4010 Z"/>
       </g>
      </g>
      <g class="com.sun.star.drawing.CustomShape">
       <g id="id7">
        <rect class="BoundingBox" stroke="none" fill="none" x="3982" y="1730" width="1973" height="2077"/>
        <path fill="rgb(0,0,0)" stroke="none" d="M 4968,1731 C 4786,1731 4632,1774 4475,1869 4318,1965 4205,2084 4114,2249 4023,2415 3982,2577 3982,2768 3982,2959 4023,3121 4114,3287 4205,3452 4318,3571 4475,3667 4632,3762 4786,3806 4968,3806 5150,3806 5304,3762 5461,3667 5618,3571 5731,3452 5822,3287 5913,3121 5954,2959 5954,2768 5954,2577 5913,2415 5822,2249 5731,2084 5618,1965 5461,1869 5304,1774 5150,1731 4968,1731 L 4968,1731 Z"/>
       </g>
      </g>
      <g class="com.sun.star.drawing.EllipseShape">
       <g id="id8">
        <rect class="BoundingBox" stroke="none" fill="none" x="3688" y="1724" width="1415" height="820"/>
        <path fill="none" stroke="rgb(0,0,0)" stroke-width="159" stroke-linejoin="round" d="M 3768,2463 C 3802,2390 3835,2331 3878,2266 3996,2088 4123,1970 4283,1888 4443,1806 4588,1785 4747,1821 4851,1845 4934,1886 5022,1958"/>
       </g>
      </g>
      <g class="com.sun.star.drawing.EllipseShape">
       <g id="id9">
        <rect class="BoundingBox" stroke="none" fill="none" x="3575" y="1621" width="1415" height="820"/>
        <path fill="none" stroke="rgb(0,0,0)" stroke-width="159" stroke-linejoin="round" d="M 3655,2360 C 3689,2287 3722,2228 3765,2163 3883,1985 4010,1867 4170,1785 4330,1703 4475,1682 4634,1718 4738,1742 4821,1783 4909,1855"/>
       </g>
      </g>
      <g class="com.sun.star.drawing.CustomShape">
       <g id="id10">
        <rect class="BoundingBox" stroke="none" fill="none" x="5123" y="2351" width="418" height="418"/>
        <path fill="rgb(255,191,0)" stroke="none" d="M 5331,2351 C 5293,2351 5260,2360 5227,2379 5194,2398 5170,2422 5151,2455 5132,2488 5123,2521 5123,2559 5123,2597 5132,2630 5151,2663 5170,2696 5194,2720 5227,2739 5260,2758 5293,2767 5331,2767 5369,2767 5402,2758 5435,2739 5468,2720 5492,2696 5511,2663 5530,2630 5539,2597 5539,2559 5539,2521 5530,2488 5511,2455 5492,2422 5468,2398 5435,2379 5402,2360 5369,2351 5331,2351 L 5331,2351 Z"/>
       </g>
      </g>
      <g class="com.sun.star.drawing.CustomShape">
       <g id="id11">
        <rect class="BoundingBox" stroke="none" fill="none" x="5288" y="2509" width="141" height="141"/>
        <path fill="rgb(0,0,0)" stroke="none" d="M 5358,2527 C 5348,2527 5340,2529 5332,2534 5324,2539 5318,2545 5313,2553 5308,2561 5306,2569 5306,2579 5306,2589 5308,2597 5313,2605 5318,2613 5324,2619 5332,2624 5340,2629 5348,2631 5358,2631 5368,2631 5376,2629 5384,2624 5392,2619 5398,2613 5403,2605 5408,2597 5410,2589 5410,2579 5410,2569 5408,2561 5403,2553 5398,2545 5392,2539 5384,2534 5376,2529 5368,2527 5358,2527 L 5358,2527 Z"/>
        <path fill="none" stroke="rgb(0,0,0)" stroke-width="35" stroke-linejoin="round" d="M 5358,2527 C 5348,2527 5340,2529 5332,2534 5324,2539 5318,2545 5313,2553 5308,2561 5306,2569 5306,2579 5306,2589 5308,2597 5313,2605 5318,2613 5324,2619 5332,2624 5340,2629 5348,2631 5358,2631 5368,2631 5376,2629 5384,2624 5392,2619 5398,2613 5403,2605 5408,2597 5410,2589 5410,2579 5410,2569 5408,2561 5403,2553 5398,2545 5392,2539 5384,2534 5376,2529 5368,2527 5358,2527 Z"/>
       </g>
      </g>
      <g class="com.sun.star.drawing.CustomShape">
       <g id="id12">
        <rect class="BoundingBox" stroke="none" fill="none" x="6516" y="3271" width="248" height="247"/>
        <path fill="rgb(102,102,102)" stroke="none" d="M 6561,3486 C 6578,3501 6597,3510 6619,3514 6641,3518 6661,3517 6682,3510 6704,3502 6720,3491 6734,3474 6749,3457 6757,3440 6761,3417 6764,3395 6763,3376 6755,3354 6747,3333 6735,3316 6718,3302 6700,3287 6682,3278 6660,3274 6637,3269 6618,3271 6596,3278 6575,3285 6559,3296 6544,3313 6530,3330 6522,3348 6518,3370 6514,3392 6516,3412 6524,3433 6532,3455 6544,3471 6561,3486 L 6561,3486 Z"/>
       </g>
      </g>
      <g class="com.sun.star.drawing.LineShape">
       <g id="id13">
        <rect class="BoundingBox" stroke="none" fill="none" x="6016" y="2934" width="290" height="187"/>
        <path fill="none" stroke="rgb(102,102,102)" stroke-width="81" stroke-linejoin="round" d="M 6264,3079 L 6057,2975"/>
       </g>
      </g>
      <g class="com.sun.star.drawing.CustomShape">
       <g id="id14">
        <rect class="BoundingBox" stroke="none" fill="none" x="1804" y="2869" width="3321" height="1558"/>
        <path fill="rgb(0,0,0)" stroke="none" d="M 3464,2870 C 3158,2870 2899,2903 2634,2974 2370,3046 2180,3135 2027,3259 1874,3383 1805,3505 1805,3648 1805,3791 1874,3913 2027,4037 2180,4161 2370,4250 2634,4322 2899,4393 3158,4426 3464,4426 3770,4426 4029,4393 4294,4322 4558,4250 4748,4161 4901,4037 5054,3913 5124,3791 5124,3648 5124,3505 5054,3383 4901,3259 4748,3135 4558,3046 4294,2974 4029,2903 3770,2870 3464,2870 L 3464,2870 Z"/>
       </g>
      </g>
      <g class="com.sun.star.drawing.CustomShape">
       <g id="id15">
        <rect class="BoundingBox" stroke="none" fill="none" x="4604" y="3492" width="1869" height="1870"/>
        <path fill="rgb(0,0,0)" stroke="none" d="M 5538,3492 C 5366,3492 5220,3531 5071,3617 4922,3703 4815,3810 4730,3959 4644,4108 4605,4254 4605,4426 4605,4598 4644,4744 4730,4893 4815,5042 4922,5149 5071,5235 5220,5321 5366,5360 5538,5360 5710,5360 5856,5321 6005,5235 6154,5149 6261,5042 6346,4893 6432,4744 6472,4598 6472,4426 6472,4254 6432,4108 6346,3959 6261,3810 6154,3703 6005,3617 5856,3531 5710,3492 5538,3492 L 5538,3492 Z"/>
       </g>
      </g>
      <g class="com.sun.star.drawing.CustomShape">
       <g id="id16">
        <rect class="BoundingBox" stroke="none" fill="none" x="298" y="5527" width="865" height="630"/>
        <path fill="rgb(153,153,153)" stroke="none" d="M 298,5528 L 344,6155 1161,5937 1139,5624 298,5528 Z"/>
       </g>
      </g>
     </g>
    </g>
   </g>
  </g>
 </g>
</svg>